Titillium Math Sans Pro Zanichelli-Light Italic.ufo
<glyph name="exclam" format="2">
  <advance width="217"/>
  <unicode hex="0021"/>
  <note>
exclam
</note>
  <outline>
    <contour>
      <point x="130" y="223" type="line"/>
      <point x="235" y="700" type="line"/>
      <point x="173" y="700" type="line"/>
      <point x="75" y="223" type="line"/>
    </contour>
    <contour>
      <point x="46" y="98" type="line"/>
      <point x="26" y="0" type="line"/>
      <point x="91" y="0" type="line"/>
      <point x="112" y="98" type="line"/>
    </contour>
  </outline>
</glyph>
<glyph name="quotedbl" format="2">
  <advance width="336"/>
  <unicode hex="0022"/>
  <note>
quotedbl
</note>
  <outline>
    <contour>
      <point x="177" y="513" type="line"/>
      <point x="229" y="730" type="line"/>
      <point x="165" y="730" type="line"/>
      <point x="124" y="513" type="line"/>
    </contour>
    <contour>
      <point x="310" y="730" type="line"/>
      <point x="268" y="513" type="line"/>
      <point x="322" y="513" type="line"/>
      <point x="373" y="730" type="line"/>
    </contour>
  </outline>
</glyph>
<glyph name="numbersign" format="2">
  <advance width="613"/>
  <unicode hex="0023"/>
  <note>
numbersign
</note>
  <outline>
    <contour>
      <point x="337" y="0" type="line"/>
      <point x="393" y="0" type="line"/>
      <point x="431" y="180" type="line"/>
      <point x="546" y="180" type="line"/>
      <point x="556" y="232" type="line"/>
      <point x="442" y="232" type="line"/>
      <point x="484" y="426" type="line"/>
      <point x="598" y="426" type="line"/>
      <point x="609" y="477" type="line"/>
      <point x="494" y="477" type="line"/>
      <point x="533" y="660" type="line"/>
      <point x="477" y="660" type="line"/>
      <point x="439" y="477" type="line"/>
      <point x="271" y="477" type="line"/>
      <point x="310" y="660" type="line"/>
      <point x="255" y="660" type="line"/>
      <point x="216" y="477" type="line"/>
      <point x="101" y="477" type="line"/>
      <point x="91" y="426" type="line"/>
      <point x="205" y="426" type="line"/>
      <point x="164" y="232" type="line"/>
      <point x="49" y="232" type="line"/>
      <point x="38" y="180" type="line"/>
      <point x="153" y="180" type="line"/>
      <point x="115" y="0" type="line"/>
      <point x="170" y="0" type="line"/>
      <point x="208" y="180" type="line"/>
      <point x="376" y="180" type="line"/>
    </contour>
    <contour>
      <point x="388" y="231" type="line"/>
      <point x="218" y="231" type="line"/>
      <point x="260" y="427" type="line"/>
      <point x="429" y="427" type="line"/>
    </contour>
  </outline>
</glyph>
<glyph name="dollar" format="2">
  <advance width="492"/>
  <unicode hex="0024"/>
  <note>
dollar
</note>
  <outline>
    <contour>
      <point x="492" y="591" type="curve"/>
      <point x="507" y="640" type="line"/>
      <point x="507" y="640"/>
      <point x="450" y="648"/>
      <point x="392" y="653" type="curve"/>
      <point x="441" y="795" type="line"/>
      <point x="396" y="795" type="line"/>
      <point x="349" y="656" type="line"/>
      <point x="324" y="656" type="line" smooth="yes"/>
      <point x="173" y="658"/>
      <point x="101" y="563"/>
      <point x="101" y="447" type="curve" smooth="yes"/>
      <point x="101" y="368"/>
      <point x="154" y="336"/>
      <point x="237" y="316" type="curve"/>
      <point x="151" y="57" type="line"/>
      <point x="89" y="61"/>
      <point x="17" y="71"/>
      <point x="17" y="71" type="curve"/>
      <point x="1" y="23" type="line"/>
      <point x="1" y="23"/>
      <point x="69" y="13"/>
      <point x="135" y="7" type="curve"/>
      <point x="92" y="-118" type="line"/>
      <point x="136" y="-118" type="line"/>
      <point x="178" y="5" type="line"/>
      <point x="195" y="5" type="line" smooth="yes"/>
      <point x="387" y="1"/>
      <point x="440" y="151"/>
      <point x="440" y="235" type="curve" smooth="yes"/>
      <point x="440" y="307"/>
      <point x="389" y="342"/>
      <point x="296" y="362" type="curve"/>
      <point x="374" y="603" type="line"/>
      <point x="428" y="599"/>
      <point x="492" y="591"/>
    </contour>
    <contour>
      <point x="159" y="455" type="curve" smooth="yes"/>
      <point x="159" y="528"/>
      <point x="201" y="608"/>
      <point x="317" y="606" type="curve" smooth="yes"/>
      <point x="332" y="606" type="line"/>
      <point x="255" y="371" type="line"/>
      <point x="194" y="386"/>
      <point x="159" y="402"/>
    </contour>
    <contour>
      <point x="205" y="55" type="curve" smooth="yes"/>
      <point x="195" y="55" type="line"/>
      <point x="277" y="308" type="line"/>
      <point x="346" y="293"/>
      <point x="381" y="273"/>
      <point x="381" y="224" type="curve" smooth="yes"/>
      <point x="381" y="152"/>
      <point x="335" y="55"/>
    </contour>
  </outline>
</glyph>
<glyph name="percent" format="2">
  <advance width="651"/>
  <unicode hex="0025"/>
  <note>
percent
</note>
  <outline>
    <contour>
      <point x="249" y="710" type="curve" smooth="yes"/>
      <point x="134" y="710"/>
      <point x="96" y="565"/>
      <point x="96" y="476" type="curve" smooth="yes"/>
      <point x="96" y="406"/>
      <point x="135" y="377"/>
      <point x="191" y="377" type="curve" smooth="yes"/>
      <point x="307" y="377"/>
      <point x="345" y="524"/>
      <point x="345" y="612" type="curve" smooth="yes"/>
      <point x="345" y="681"/>
      <point x="306" y="710"/>
    </contour>
    <contour>
      <point x="620" y="710" type="line"/>
      <point x="43" y="13" type="line"/>
      <point x="70" y="-12" type="line"/>
      <point x="649" y="685" type="line"/>
    </contour>
    <contour>
      <point x="150" y="481" type="curve" smooth="yes"/>
      <point x="150" y="543"/>
      <point x="183" y="663"/>
      <point x="245" y="663" type="curve" smooth="yes"/>
      <point x="275" y="663"/>
      <point x="291" y="646"/>
      <point x="291" y="607" type="curve" smooth="yes"/>
      <point x="291" y="547"/>
      <point x="259" y="425"/>
      <point x="195" y="425" type="curve" smooth="yes"/>
      <point x="167" y="425"/>
      <point x="150" y="439"/>
    </contour>
    <contour>
      <point x="349" y="89" type="curve" smooth="yes"/>
      <point x="349" y="19"/>
      <point x="388" y="-10"/>
      <point x="444" y="-10" type="curve" smooth="yes"/>
      <point x="560" y="-10"/>
      <point x="598" y="138"/>
      <point x="598" y="225" type="curve" smooth="yes"/>
      <point x="598" y="294"/>
      <point x="559" y="323"/>
      <point x="502" y="323" type="curve" smooth="yes"/>
      <point x="387" y="323"/>
      <point x="349" y="178"/>
    </contour>
    <contour>
      <point x="403" y="94" type="curve" smooth="yes"/>
      <point x="403" y="156"/>
      <point x="436" y="276"/>
      <point x="498" y="276" type="curve" smooth="yes"/>
      <point x="528" y="276"/>
      <point x="544" y="259"/>
      <point x="544" y="220" type="curve" smooth="yes"/>
      <point x="544" y="160"/>
      <point x="512" y="38"/>
      <point x="448" y="38" type="curve" smooth="yes"/>
      <point x="420" y="38"/>
      <point x="403" y="52"/>
    </contour>
  </outline>
</glyph>
<glyph name="ampersand" format="2">
  <advance width="635"/>
  <unicode hex="0026"/>
  <note>
ampersand
</note>
  <outline>
    <contour>
      <point x="395" y="712" type="curve" smooth="yes"/>
      <point x="281" y="712"/>
      <point x="212" y="640"/>
      <point x="212" y="522" type="curve" smooth="yes"/>
      <point x="212" y="478"/>
      <point x="221" y="452"/>
      <point x="238" y="418" type="curve"/>
      <point x="91" y="363"/>
      <point x="30" y="304"/>
      <point x="30" y="175" type="curve" smooth="yes"/>
      <point x="30" y="63"/>
      <point x="88" y="-10"/>
      <point x="217" y="-10" type="curve" smooth="yes"/>
      <point x="313" y="-10"/>
      <point x="385" y="32"/>
      <point x="448" y="113" type="curve"/>
      <point x="541" y="-5" type="line"/>
      <point x="585" y="29" type="line"/>
      <point x="484" y="156" type="line"/>
      <point x="514" y="200"/>
      <point x="550" y="271"/>
      <point x="571" y="338" type="curve"/>
      <point x="512" y="338" type="line"/>
      <point x="496" y="287"/>
      <point x="470" y="233"/>
      <point x="449" y="199" type="curve"/>
      <point x="330" y="372" type="line"/>
      <point x="459" y="417"/>
      <point x="532" y="479"/>
      <point x="532" y="587" type="curve" smooth="yes"/>
      <point x="532" y="675"/>
      <point x="478" y="712"/>
    </contour>
    <contour>
      <point x="92" y="172" type="curve" smooth="yes"/>
      <point x="92" y="269"/>
      <point x="134" y="329"/>
      <point x="262" y="376" type="curve"/>
      <point x="415" y="155" type="line"/>
      <point x="367" y="84"/>
      <point x="297" y="44"/>
      <point x="223" y="44" type="curve" smooth="yes"/>
      <point x="139" y="44"/>
      <point x="92" y="86"/>
    </contour>
    <contour>
      <point x="273" y="520" type="curve" smooth="yes"/>
      <point x="273" y="599"/>
      <point x="312" y="661"/>
      <point x="392" y="661" type="curve" smooth="yes"/>
      <point x="441" y="661"/>
      <point x="470" y="639"/>
      <point x="470" y="584" type="curve" smooth="yes"/>
      <point x="470" y="501"/>
      <point x="422" y="454"/>
      <point x="306" y="411" type="curve"/>
      <point x="284" y="442"/>
      <point x="273" y="478"/>
    </contour>
  </outline>
</glyph>
<glyph name="quotesingle" format="2">
  <advance width="191"/>
  <unicode hex="0027"/>
  <note>
quotesingle
</note>
  <outline>
    <contour>
      <point x="177" y="513" type="line"/>
      <point x="229" y="730" type="line"/>
      <point x="165" y="730" type="line"/>
      <point x="124" y="513" type="line"/>
    </contour>
  </outline>
</glyph>
<glyph name="parenleft" format="2">
  <advance width="250"/>
  <unicode hex="0028"/>
  <note>
parenleft
</note>
  <outline>
    <contour>
      <point x="318" y="750" type="curve"/>
      <point x="260" y="750" type="line"/>
      <point x="112" y="502"/>
      <point x="46" y="329"/>
      <point x="46" y="122" type="curve" smooth="yes"/>
      <point x="46" y="-16"/>
      <point x="74" y="-125"/>
      <point x="74" y="-125" type="curve"/>
      <point x="132" y="-125" type="line"/>
      <point x="132" y="-125"/>
      <point x="111" y="-13"/>
      <point x="111" y="122" type="curve" smooth="yes"/>
      <point x="111" y="344"/>
      <point x="185" y="501"/>
    </contour>
  </outline>
</glyph>
<glyph name="parenright" format="2">
  <advance width="250"/>
  <unicode hex="0029"/>
  <note>
parenright
</note>
  <outline>
    <contour>
      <point x="-41" y="-125" type="curve"/>
      <point x="17" y="-125" type="line"/>
      <point x="165" y="123"/>
      <point x="231" y="296"/>
      <point x="231" y="503" type="curve" smooth="yes"/>
      <point x="231" y="641"/>
      <point x="203" y="750"/>
      <point x="203" y="750" type="curve"/>
      <point x="145" y="750" type="line"/>
      <point x="145" y="750"/>
      <point x="166" y="638"/>
      <point x="166" y="503" type="curve" smooth="yes"/>
      <point x="166" y="281"/>
      <point x="92" y="124"/>
    </contour>
  </outline>
</glyph>
<glyph name="asterisk" format="2">
  <advance width="428"/>
  <unicode hex="002A"/>
  <note>
asterisk
</note>
  <outline>
    <contour>
      <point x="304" y="385" type="line"/>
      <point x="347" y="398" type="line"/>
      <point x="305" y="524" type="line"/>
      <point x="439" y="524" type="line"/>
      <point x="439" y="568" type="line"/>
      <point x="307" y="568" type="line"/>
      <point x="348" y="696" type="line"/>
      <point x="306" y="710" type="line"/>
      <point x="264" y="583" type="line"/>
      <point x="157" y="662" type="line"/>
      <point x="130" y="626" type="line"/>
      <point x="237" y="548" type="line"/>
      <point x="128" y="468" type="line"/>
      <point x="155" y="433" type="line"/>
      <point x="263" y="512" type="line"/>
    </contour>
  </outline>
</glyph>
<glyph name="plus" format="2">
  <advance width="560"/>
  <unicode hex="002B"/>
  <note>
plus
</note>
  <outline>
    <contour>
      <point x="308" y="514" type="line"/>
      <point x="265" y="315" type="line"/>
      <point x="71" y="315" type="line"/>
      <point x="59" y="260" type="line"/>
      <point x="254" y="260" type="line"/>
      <point x="211" y="60" type="line"/>
      <point x="268" y="60" type="line"/>
      <point x="311" y="260" type="line"/>
      <point x="505" y="260" type="line"/>
      <point x="517" y="315" type="line"/>
      <point x="322" y="315" type="line"/>
      <point x="365" y="514" type="line"/>
    </contour>
  </outline>
</glyph>
<glyph name="comma" format="2">
  <advance width="206"/>
  <unicode hex="002C"/>
  <note>
comma
</note>
  <outline>
    <contour>
      <point x="9" y="-123" type="line"/>
      <point x="117" y="101" type="line"/>
      <point x="51" y="101" type="line"/>
      <point x="-41" y="-123" type="line"/>
    </contour>
  </outline>
</glyph>
<glyph name="hyphen" format="2">
  <advance width="413"/>
  <unicode hex="002D"/>
  <note>
hyphen
</note>
  <outline>
    <contour>
      <point x="361" y="259" type="line"/>
      <point x="373" y="315" type="line"/>
      <point x="67" y="315" type="line"/>
      <point x="55" y="259" type="line"/>
    </contour>
  </outline>
</glyph>
<glyph name="period" format="2">
  <advance width="201"/>
  <unicode hex="002E"/>
  <note>
period
</note>
  <outline>
    <contour>
      <point x="82" y="0" type="line"/>
      <point x="103" y="101" type="line"/>
      <point x="38" y="101" type="line"/>
      <point x="16" y="0" type="line"/>
    </contour>
  </outline>
</glyph>
<glyph name="slash" format="2">
  <advance width="376"/>
  <unicode hex="002F"/>
  <note>
slash
</note>
  <outline>
    <contour>
      <point x="15" y="-10" type="line"/>
      <point x="447" y="682" type="line"/>
      <point x="402" y="710" type="line"/>
      <point x="-29" y="18" type="line"/>
    </contour>
  </outline>
</glyph>
<glyph name="zero" format="2">
  <advance width="593"/>
  <unicode hex="0030"/>
  <note>
zero
</note>
  <outline>
    <contour>
      <point x="379" y="670" type="curve" smooth="yes"/>
      <point x="134" y="670"/>
      <point x="63" y="351"/>
      <point x="63" y="192" type="curve" smooth="yes"/>
      <point x="63" y="44"/>
      <point x="133" y="-11"/>
      <point x="247" y="-11" type="curve" smooth="yes"/>
      <point x="489" y="-11"/>
      <point x="564" y="297"/>
      <point x="564" y="463" type="curve" smooth="yes"/>
      <point x="564" y="617"/>
      <point x="490" y="670"/>
    </contour>
    <contour>
      <point x="126" y="192" type="curve" smooth="yes"/>
      <point x="126" y="310"/>
      <point x="176" y="615"/>
      <point x="375" y="615" type="curve" smooth="yes"/>
      <point x="455" y="615"/>
      <point x="501" y="582"/>
      <point x="501" y="463" type="curve" smooth="yes"/>
      <point x="501" y="330"/>
      <point x="440" y="44"/>
      <point x="253" y="44" type="curve" smooth="yes"/>
      <point x="176" y="44"/>
      <point x="126" y="72"/>
    </contour>
  </outline>
</glyph>
<glyph name="one" format="2">
  <advance width="367"/>
  <unicode hex="0031"/>
  <note>
one
</note>
  <outline>
    <contour>
      <point x="224" y="0" type="line"/>
      <point x="363" y="660" type="line"/>
      <point x="309" y="660" type="line"/>
      <point x="74" y="522" type="line"/>
      <point x="94" y="472" type="line"/>
      <point x="289" y="587" type="line"/>
      <point x="165" y="0" type="line"/>
    </contour>
  </outline>
</glyph>
<glyph name="two" format="2">
  <advance width="511"/>
  <unicode hex="0032"/>
  <note>
two
</note>
  <outline>
    <contour>
      <point x="262" y="273" type="curve" smooth="yes"/>
      <point x="0" y="52" type="line"/>
      <point x="-10" y="0" type="line"/>
      <point x="412" y="0" type="line"/>
      <point x="423" y="53" type="line"/>
      <point x="74" y="53" type="line"/>
      <point x="302" y="240" type="line" smooth="yes"/>
      <point x="426" y="342"/>
      <point x="505" y="406"/>
      <point x="505" y="522" type="curve" smooth="yes"/>
      <point x="505" y="622"/>
      <point x="439" y="670"/>
      <point x="323" y="670" type="curve" smooth="yes"/>
      <point x="242" y="670"/>
      <point x="141" y="643"/>
      <point x="141" y="643" type="curve"/>
      <point x="135" y="591" type="line"/>
      <point x="135" y="591"/>
      <point x="232" y="615"/>
      <point x="308" y="615" type="curve" smooth="yes"/>
      <point x="396" y="615"/>
      <point x="442" y="588"/>
      <point x="442" y="521" type="curve" smooth="yes"/>
      <point x="442" y="433"/>
      <point x="375" y="368"/>
    </contour>
  </outline>
</glyph>
<glyph name="three" format="2">
  <advance width="531"/>
  <unicode hex="0033"/>
  <note>
three
</note>
  <outline>
    <contour>
      <point x="139" y="644" type="curve"/>
      <point x="134" y="594" type="line"/>
      <point x="134" y="594"/>
      <point x="234" y="615"/>
      <point x="315" y="615" type="curve" smooth="yes"/>
      <point x="417" y="615"/>
      <point x="445" y="578"/>
      <point x="445" y="523" type="curve" smooth="yes"/>
      <point x="445" y="423"/>
      <point x="355" y="372"/>
      <point x="284" y="372" type="curve" smooth="yes"/>
      <point x="155" y="372" type="line"/>
      <point x="144" y="319" type="line"/>
      <point x="289" y="319" type="line" smooth="yes"/>
      <point x="349" y="317"/>
      <point x="393" y="283"/>
      <point x="393" y="203" type="curve" smooth="yes"/>
      <point x="393" y="122"/>
      <point x="348" y="45"/>
      <point x="199" y="44" type="curve" smooth="yes"/>
      <point x="108" y="43"/>
      <point x="18" y="69"/>
      <point x="18" y="69" type="curve"/>
      <point x="2" y="18" type="line"/>
      <point x="2" y="18"/>
      <point x="96" y="-11"/>
      <point x="200" y="-11" type="curve" smooth="yes"/>
      <point x="395" y="-11"/>
      <point x="458" y="91"/>
      <point x="458" y="208" type="curve" smooth="yes"/>
      <point x="458" y="292"/>
      <point x="422" y="328"/>
      <point x="372" y="345" type="curve"/>
      <point x="465" y="380"/>
      <point x="508" y="442"/>
      <point x="508" y="526" type="curve" smooth="yes"/>
      <point x="508" y="610"/>
      <point x="466" y="670"/>
      <point x="331" y="670" type="curve" smooth="yes"/>
      <point x="241" y="670"/>
      <point x="139" y="644"/>
    </contour>
  </outline>
</glyph>
<glyph name="four" format="2">
  <advance width="528"/>
  <unicode hex="0034"/>
  <note>
four
</note>
  <outline>
    <contour>
      <point x="20" y="182" type="line"/>
      <point x="9" y="134" type="line"/>
      <point x="327" y="134" type="line"/>
      <point x="298" y="0" type="line"/>
      <point x="357" y="0" type="line"/>
      <point x="385" y="134" type="line"/>
      <point x="476" y="134" type="line"/>
      <point x="488" y="188" type="line"/>
      <point x="397" y="188" type="line"/>
      <point x="442" y="400" type="line"/>
      <point x="383" y="400" type="line"/>
      <point x="338" y="188" type="line"/>
      <point x="86" y="188" type="line"/>
      <point x="394" y="660" type="line"/>
      <point x="325" y="660" type="line"/>
    </contour>
  </outline>
</glyph>
<glyph name="five" format="2">
  <advance width="549"/>
  <unicode hex="0035"/>
  <note>
five
</note>
  <outline>
    <contour>
      <point x="219" y="604" type="line"/>
      <point x="541" y="604" type="line"/>
      <point x="553" y="660" type="line"/>
      <point x="179" y="660" type="line"/>
      <point x="85" y="321" type="line"/>
      <point x="130" y="313" type="line"/>
      <point x="130" y="313"/>
      <point x="209" y="359"/>
      <point x="301" y="359" type="curve" smooth="yes"/>
      <point x="369" y="359"/>
      <point x="426" y="334"/>
      <point x="426" y="236" type="curve" smooth="yes"/>
      <point x="426" y="141"/>
      <point x="370" y="44"/>
      <point x="211" y="44" type="curve" smooth="yes"/>
      <point x="128" y="44"/>
      <point x="27" y="69"/>
      <point x="27" y="69" type="curve"/>
      <point x="11" y="17" type="line"/>
      <point x="11" y="17"/>
      <point x="121" y="-11"/>
      <point x="213" y="-11" type="curve" smooth="yes"/>
      <point x="411" y="-11"/>
      <point x="490" y="121"/>
      <point x="490" y="246" type="curve" smooth="yes"/>
      <point x="490" y="366"/>
      <point x="418" y="414"/>
      <point x="321" y="414" type="curve" smooth="yes"/>
      <point x="228" y="414"/>
      <point x="151" y="372"/>
      <point x="151" y="372" type="curve"/>
    </contour>
  </outline>
</glyph>
<glyph name="six" format="2">
  <advance width="575"/>
  <unicode hex="0036"/>
  <note>
six
</note>
  <outline>
    <contour>
      <point x="561" y="602" type="curve"/>
      <point x="578" y="653" type="line"/>
      <point x="578" y="653"/>
      <point x="485" y="670"/>
      <point x="418" y="670" type="curve" smooth="yes"/>
      <point x="177" y="670"/>
      <point x="66" y="438"/>
      <point x="66" y="227" type="curve" smooth="yes"/>
      <point x="66" y="70"/>
      <point x="144" y="-11"/>
      <point x="274" y="-11" type="curve" smooth="yes"/>
      <point x="441" y="-11"/>
      <point x="517" y="120"/>
      <point x="517" y="244" type="curve" smooth="yes"/>
      <point x="517" y="358"/>
      <point x="447" y="410"/>
      <point x="341" y="410" type="curve" smooth="yes"/>
      <point x="244" y="410"/>
      <point x="147" y="367"/>
      <point x="147" y="367" type="curve"/>
      <point x="183" y="517"/>
      <point x="268" y="615"/>
      <point x="417" y="615" type="curve" smooth="yes"/>
      <point x="474" y="615"/>
      <point x="561" y="602"/>
    </contour>
    <contour>
      <point x="128" y="222" type="curve" smooth="yes"/>
      <point x="128" y="267"/>
      <point x="134" y="302"/>
      <point x="138" y="319" type="curve"/>
      <point x="138" y="319"/>
      <point x="238" y="355"/>
      <point x="325" y="355" type="curve" smooth="yes"/>
      <point x="406" y="355"/>
      <point x="454" y="319"/>
      <point x="454" y="234" type="curve" smooth="yes"/>
      <point x="454" y="139"/>
      <point x="397" y="44"/>
      <point x="278" y="44" type="curve" smooth="yes"/>
      <point x="180" y="44"/>
      <point x="128" y="101"/>
    </contour>
  </outline>
</glyph>
<glyph name="seven" format="2">
  <advance width="464"/>
  <unicode hex="0037"/>
  <note>
seven
</note>
  <outline>
    <contour>
      <point x="493" y="574" type="line"/>
      <point x="510" y="660" type="line"/>
      <point x="113" y="660" type="line"/>
      <point x="102" y="604" type="line"/>
      <point x="436" y="604" type="line"/>
      <point x="430" y="578" type="line"/>
      <point x="63" y="20" type="line"/>
      <point x="111" y="-11" type="line"/>
    </contour>
  </outline>
</glyph>
<glyph name="eight" format="2">
  <advance width="612"/>
  <unicode hex="0038"/>
  <note>
eight
</note>
  <outline>
    <contour>
      <point x="42" y="153" type="curve" smooth="yes"/>
      <point x="42" y="43"/>
      <point x="129" y="-11"/>
      <point x="271" y="-11" type="curve" smooth="yes"/>
      <point x="437" y="-11"/>
      <point x="541" y="62"/>
      <point x="541" y="199" type="curve" smooth="yes"/>
      <point x="541" y="279"/>
      <point x="491" y="318"/>
      <point x="438" y="341" type="curve"/>
      <point x="522" y="364"/>
      <point x="585" y="430"/>
      <point x="585" y="516" type="curve" smooth="yes"/>
      <point x="585" y="617"/>
      <point x="504" y="670"/>
      <point x="373" y="670" type="curve" smooth="yes"/>
      <point x="234" y="670"/>
      <point x="123" y="599"/>
      <point x="123" y="474" type="curve" smooth="yes"/>
      <point x="123" y="409"/>
      <point x="155" y="370"/>
      <point x="211" y="347" type="curve"/>
      <point x="110" y="319"/>
      <point x="42" y="251"/>
    </contour>
    <contour>
      <point x="104" y="155" type="curve" smooth="yes"/>
      <point x="104" y="234"/>
      <point x="169" y="294"/>
      <point x="265" y="317" type="curve"/>
      <point x="371" y="317" type="line"/>
      <point x="431" y="300"/>
      <point x="480" y="265"/>
      <point x="480" y="194" type="curve" smooth="yes"/>
      <point x="480" y="96"/>
      <point x="403" y="45"/>
      <point x="277" y="45" type="curve" smooth="yes"/>
      <point x="187" y="45"/>
      <point x="104" y="68"/>
    </contour>
    <contour>
      <point x="183" y="470" type="curve" smooth="yes"/>
      <point x="183" y="563"/>
      <point x="256" y="614"/>
      <point x="369" y="614" type="curve" smooth="yes"/>
      <point x="462" y="614"/>
      <point x="525" y="584"/>
      <point x="525" y="510" type="curve" smooth="yes"/>
      <point x="525" y="437"/>
      <point x="469" y="392"/>
      <point x="381" y="370" type="curve"/>
      <point x="277" y="370" type="line"/>
      <point x="219" y="389"/>
      <point x="183" y="414"/>
    </contour>
  </outline>
</glyph>
<glyph name="nine" format="2">
  <advance width="576"/>
  <unicode hex="0039"/>
  <note>
nine
</note>
  <outline>
    <contour>
      <point x="53" y="58" type="curve"/>
      <point x="36" y="7" type="line"/>
      <point x="36" y="7"/>
      <point x="144" y="-11"/>
      <point x="211" y="-11" type="curve" smooth="yes"/>
      <point x="451" y="-11"/>
      <point x="541" y="222"/>
      <point x="541" y="433" type="curve" smooth="yes"/>
      <point x="541" y="590"/>
      <point x="463" y="670"/>
      <point x="334" y="670" type="curve" smooth="yes"/>
      <point x="166" y="670"/>
      <point x="90" y="540"/>
      <point x="90" y="416" type="curve" smooth="yes"/>
      <point x="90" y="302"/>
      <point x="161" y="250"/>
      <point x="271" y="250" type="curve" smooth="yes"/>
      <point x="367" y="250"/>
      <point x="463" y="292"/>
      <point x="463" y="292" type="curve"/>
      <point x="434" y="141"/>
      <point x="352" y="44"/>
      <point x="209" y="44" type="curve" smooth="yes"/>
      <point x="152" y="44"/>
      <point x="53" y="58"/>
    </contour>
    <contour>
      <point x="153" y="426" type="curve" smooth="yes"/>
      <point x="153" y="521"/>
      <point x="210" y="615"/>
      <point x="330" y="615" type="curve" smooth="yes"/>
      <point x="427" y="615"/>
      <point x="479" y="559"/>
      <point x="479" y="438" type="curve" smooth="yes"/>
      <point x="479" y="393"/>
      <point x="475" y="358"/>
      <point x="472" y="341" type="curve"/>
      <point x="472" y="341"/>
      <point x="369" y="305"/>
      <point x="282" y="305" type="curve" smooth="yes"/>
      <point x="202" y="305"/>
      <point x="153" y="341"/>
    </contour>
  </outline>
</glyph>
<glyph name="colon" format="2">
  <advance width="203"/>
  <unicode hex="003A"/>
  <note>
colon
</note>
  <outline>
    <contour>
      <point x="151" y="330" type="line"/>
      <point x="173" y="431" type="line"/>
      <point x="107" y="431" type="line"/>
      <point x="86" y="330" type="line"/>
    </contour>
    <contour>
      <point x="37" y="101" type="line"/>
      <point x="15" y="0" type="line"/>
      <point x="81" y="0" type="line"/>
      <point x="103" y="101" type="line"/>
    </contour>
  </outline>
</glyph>
<glyph name="semicolon" format="2">
  <advance width="245"/>
  <unicode hex="003B"/>
  <note>
semicolon
</note>
  <outline>
    <contour>
      <point x="166" y="330" type="line"/>
      <point x="188" y="431" type="line"/>
      <point x="122" y="431" type="line"/>
      <point x="101" y="330" type="line"/>
    </contour>
    <contour>
      <point x="73" y="101" type="line"/>
      <point x="-19" y="-123" type="line"/>
      <point x="31" y="-123" type="line"/>
      <point x="139" y="101" type="line"/>
    </contour>
  </outline>
</glyph>
<glyph name="less" format="2">
  <advance width="560"/>
  <unicode hex="003C"/>
  <note>
less
</note>
  <outline>
    <contour>
      <point x="447" y="47" type="line"/>
      <point x="460" y="104" type="line"/>
      <point x="134" y="282" type="line"/>
      <point x="536" y="462" type="line"/>
      <point x="549" y="528" type="line"/>
      <point x="79" y="313" type="line"/>
      <point x="67" y="262" type="line"/>
    </contour>
  </outline>
</glyph>
<glyph name="equal" format="2">
  <advance width="560"/>
  <unicode hex="003D"/>
  <note>
equal
</note>
  <outline>
    <contour>
      <point x="516" y="408" type="line"/>
      <point x="109" y="408" type="line"/>
      <point x="98" y="353" type="line"/>
      <point x="505" y="353" type="line"/>
    </contour>
    <contour>
      <point x="70" y="222" type="line"/>
      <point x="59" y="167" type="line"/>
      <point x="465" y="167" type="line"/>
      <point x="477" y="222" type="line"/>
    </contour>
  </outline>
</glyph>
<glyph name="greater" format="2">
  <advance width="560"/>
  <unicode hex="003E"/>
  <note>
greater
</note>
  <outline>
    <contour>
      <point x="130" y="528" type="line"/>
      <point x="117" y="471" type="line"/>
      <point x="443" y="293" type="line"/>
      <point x="41" y="113" type="line"/>
      <point x="28" y="47" type="line"/>
      <point x="498" y="262" type="line"/>
      <point x="510" y="313" type="line"/>
    </contour>
  </outline>
</glyph>
<glyph name="question" format="2">
  <advance width="425"/>
  <unicode hex="003F"/>
  <note>
question
</note>
  <outline>
    <contour>
      <point x="456" y="581" type="curve" smooth="yes"/>
      <point x="456" y="670"/>
      <point x="390" y="712"/>
      <point x="289" y="712" type="curve" smooth="yes"/>
      <point x="188" y="712"/>
      <point x="112" y="684"/>
      <point x="112" y="684" type="curve"/>
      <point x="106" y="633" type="line"/>
      <point x="106" y="633"/>
      <point x="187" y="658"/>
      <point x="273" y="658" type="curve" smooth="yes"/>
      <point x="342" y="658"/>
      <point x="394" y="639"/>
      <point x="394" y="575" type="curve" smooth="yes"/>
      <point x="394" y="493"/>
      <point x="336" y="450"/>
      <point x="270" y="401" type="curve" smooth="yes"/>
      <point x="209" y="356"/>
      <point x="143" y="308"/>
      <point x="140" y="236" type="curve" smooth="yes"/>
      <point x="139" y="218"/>
      <point x="140" y="202"/>
      <point x="140" y="202" type="curve"/>
      <point x="190" y="202" type="line"/>
      <point x="198" y="238" type="line" smooth="yes"/>
      <point x="209" y="287"/>
      <point x="252" y="323"/>
      <point x="318" y="371" type="curve" smooth="yes"/>
      <point x="412" y="439"/>
      <point x="456" y="487"/>
    </contour>
    <contour>
      <point x="120" y="98" type="line"/>
      <point x="99" y="0" type="line"/>
      <point x="165" y="0" type="line"/>
      <point x="185" y="98" type="line"/>
    </contour>
  </outline>
</glyph>
<glyph name="at" format="2">
  <advance width="988"/>
  <unicode hex="0040"/>
  <note>
at
</note>
  <outline>
    <contour>
      <point x="703" y="-8" type="curve" smooth="yes"/>
      <point x="884" y="-8"/>
      <point x="956" y="250"/>
      <point x="956" y="420" type="curve" smooth="yes"/>
      <point x="956" y="617"/>
      <point x="850" y="721"/>
      <point x="604" y="721" type="curve" smooth="yes"/>
      <point x="148" y="721"/>
      <point x="37" y="344"/>
      <point x="37" y="117" type="curve" smooth="yes"/>
      <point x="37" y="-119"/>
      <point x="170" y="-201"/>
      <point x="405" y="-201" type="curve" smooth="yes"/>
      <point x="456" y="-201"/>
      <point x="553" y="-192"/>
      <point x="553" y="-192" type="curve"/>
      <point x="561" y="-139" type="line"/>
      <point x="561" y="-139"/>
      <point x="459" y="-149"/>
      <point x="416" y="-149" type="curve" smooth="yes"/>
      <point x="206" y="-149"/>
      <point x="99" y="-93"/>
      <point x="99" y="122" type="curve" smooth="yes"/>
      <point x="99" y="306"/>
      <point x="178" y="669"/>
      <point x="594" y="669" type="curve" smooth="yes"/>
      <point x="802" y="669"/>
      <point x="895" y="593"/>
      <point x="895" y="423" type="curve" smooth="yes"/>
      <point x="895" y="263"/>
      <point x="825" y="43"/>
      <point x="714" y="43" type="curve" smooth="yes"/>
      <point x="673" y="43"/>
      <point x="652" y="57"/>
      <point x="652" y="104" type="curve" smooth="yes"/>
      <point x="652" y="142"/>
      <point x="664" y="199"/>
      <point x="686" y="302" type="curve" smooth="yes"/>
      <point x="727" y="489" type="line"/>
      <point x="668" y="498"/>
      <point x="590" y="512"/>
      <point x="541" y="512" type="curve" smooth="yes"/>
      <point x="351" y="512"/>
      <point x="278" y="273"/>
      <point x="278" y="142" type="curve" smooth="yes"/>
      <point x="278" y="32"/>
      <point x="325" y="-8"/>
      <point x="403" y="-8" type="curve" smooth="yes"/>
      <point x="500" y="-8"/>
      <point x="595" y="105"/>
      <point x="595" y="105" type="curve"/>
      <point x="593" y="41"/>
      <point x="620" y="-8"/>
    </contour>
    <contour>
      <point x="338" y="145" type="curve" smooth="yes"/>
      <point x="338" y="237"/>
      <point x="394" y="460"/>
      <point x="539" y="460" type="curve" smooth="yes"/>
      <point x="595" y="460"/>
      <point x="659" y="446"/>
      <point x="659" y="446" type="curve"/>
      <point x="597" y="174" type="line"/>
      <point x="597" y="174"/>
      <point x="502" y="47"/>
      <point x="417" y="47" type="curve" smooth="yes"/>
      <point x="370" y="47"/>
      <point x="338" y="73"/>
    </contour>
  </outline>
</glyph>
<glyph name="B" format="2">
  <advance width="598"/>
  <unicode hex="0042"/>
  <note>
B
</note>
  <outline>
    <contour>
      <point x="404" y="700" type="curve" smooth="yes"/>
      <point x="184" y="700" type="line"/>
      <point x="35" y="0" type="line"/>
      <point x="285" y="0" type="line" smooth="yes"/>
      <point x="475" y="0"/>
      <point x="537" y="117"/>
      <point x="537" y="225" type="curve" smooth="yes"/>
      <point x="537" y="312"/>
      <point x="495" y="343"/>
      <point x="446" y="358" type="curve"/>
      <point x="544" y="388"/>
      <point x="579" y="486"/>
      <point x="579" y="560" type="curve" smooth="yes"/>
      <point x="579" y="660"/>
      <point x="516" y="700"/>
    </contour>
    <contour>
      <point x="279" y="55" type="curve" smooth="yes"/>
      <point x="107" y="55" type="line"/>
      <point x="166" y="331" type="line"/>
      <point x="338" y="331" type="line" smooth="yes"/>
      <point x="415" y="331"/>
      <point x="472" y="310"/>
      <point x="472" y="230" type="curve" smooth="yes"/>
      <point x="472" y="137"/>
      <point x="424" y="55"/>
    </contour>
    <contour>
      <point x="349" y="385" type="curve" smooth="yes"/>
      <point x="178" y="385" type="line"/>
      <point x="233" y="645" type="line"/>
      <point x="394" y="645" type="line" smooth="yes"/>
      <point x="474" y="645"/>
      <point x="515" y="617"/>
      <point x="515" y="549" type="curve" smooth="yes"/>
      <point x="515" y="480"/>
      <point x="479" y="385"/>
    </contour>
  </outline>
</glyph>
<glyph name="F" format="2">
  <advance width="505"/>
  <unicode hex="0046"/>
  <note>
F
</note>
  <outline>
    <contour>
      <point x="558" y="645" type="line"/>
      <point x="570" y="700" type="line"/>
      <point x="184" y="700" type="line"/>
      <point x="35" y="0" type="line"/>
      <point x="96" y="0" type="line"/>
      <point x="160" y="303" type="line"/>
      <point x="434" y="303" type="line"/>
      <point x="446" y="358" type="line"/>
      <point x="172" y="358" type="line"/>
      <point x="233" y="645" type="line"/>
    </contour>
  </outline>
</glyph>
<glyph name="H" format="2">
  <advance width="658"/>
  <unicode hex="0048"/>
  <note>
H
</note>
  <outline>
    <contour>
      <point x="96" y="0" type="line"/>
      <point x="166" y="328" type="line"/>
      <point x="526" y="328" type="line"/>
      <point x="456" y="0" type="line"/>
      <point x="517" y="0" type="line"/>
      <point x="666" y="700" type="line"/>
      <point x="605" y="700" type="line"/>
      <point x="538" y="384" type="line"/>
      <point x="177" y="384" type="line"/>
      <point x="245" y="700" type="line"/>
      <point x="184" y="700" type="line"/>
      <point x="35" y="0" type="line"/>
    </contour>
  </outline>
</glyph>
<glyph name="I" format="2">
  <advance width="237"/>
  <unicode hex="0049"/>
  <note>
I
</note>
  <outline>
    <contour>
      <point x="96" y="0" type="line"/>
      <point x="245" y="700" type="line"/>
      <point x="184" y="700" type="line"/>
      <point x="35" y="0" type="line"/>
    </contour>
  </outline>
</glyph>
<glyph name="J" format="2">
  <advance width="285"/>
  <unicode hex="004A"/>
  <note>
J
</note>
  <outline>
    <contour>
      <point x="175" y="130" type="curve" smooth="yes"/>
      <point x="296" y="700" type="line"/>
      <point x="235" y="700" type="line"/>
      <point x="116" y="141" type="line" smooth="yes"/>
      <point x="99" y="61"/>
      <point x="79" y="49"/>
      <point x="-25" y="49" type="curve"/>
      <point x="-36" y="-7" type="line"/>
      <point x="110" y="-7"/>
      <point x="150" y="12"/>
    </contour>
  </outline>
</glyph>
<glyph name="K" format="2">
  <advance width="551"/>
  <unicode hex="004B"/>
  <note>
K
</note>
  <outline>
    <contour>
      <point x="96" y="0" type="line"/>
      <point x="163" y="316" type="line"/>
      <point x="285" y="319" type="line"/>
      <point x="427" y="0" type="line"/>
      <point x="492" y="0" type="line"/>
      <point x="337" y="349" type="line"/>
      <point x="608" y="700" type="line"/>
      <point x="536" y="700" type="line"/>
      <point x="286" y="373" type="line"/>
      <point x="175" y="371" type="line"/>
      <point x="245" y="700" type="line"/>
      <point x="184" y="700" type="line"/>
      <point x="35" y="0" type="line"/>
    </contour>
  </outline>
</glyph>
<glyph name="L" format="2">
  <advance width="460"/>
  <unicode hex="004C"/>
  <note>
L
</note>
  <outline>
    <contour>
      <point x="245" y="700" type="line"/>
      <point x="184" y="700" type="line"/>
      <point x="35" y="0" type="line"/>
      <point x="398" y="0" type="line"/>
      <point x="410" y="56" type="line"/>
      <point x="108" y="56" type="line"/>
    </contour>
  </outline>
</glyph>
<glyph name="N" format="2">
  <advance width="644"/>
  <unicode hex="004E"/>
  <note>
N
</note>
  <outline>
    <contour>
      <point x="425" y="58" type="line"/>
      <point x="311" y="700" type="line"/>
      <point x="184" y="700" type="line"/>
      <point x="35" y="0" type="line"/>
      <point x="96" y="0" type="line"/>
      <point x="232" y="642" type="line"/>
      <point x="262" y="642" type="line"/>
      <point x="375" y="0" type="line"/>
      <point x="503" y="0" type="line"/>
      <point x="652" y="700" type="line"/>
      <point x="591" y="700" type="line"/>
      <point x="454" y="58" type="line"/>
    </contour>
  </outline>
</glyph>
<glyph name="O" format="2">
  <advance width="648"/>
  <unicode hex="004F"/>
  <note>
O
</note>
  <outline>
    <contour>
      <point x="278" y="-9" type="curve" smooth="yes"/>
      <point x="551" y="-9"/>
      <point x="626" y="301"/>
      <point x="626" y="488" type="curve" smooth="yes"/>
      <point x="626" y="660"/>
      <point x="526" y="709"/>
      <point x="414" y="709" type="curve" smooth="yes"/>
      <point x="142" y="709"/>
      <point x="64" y="403"/>
      <point x="64" y="210" type="curve" smooth="yes"/>
      <point x="64" y="46"/>
      <point x="156" y="-9"/>
    </contour>
    <contour>
      <point x="128" y="201" type="curve" smooth="yes"/>
      <point x="128" y="353"/>
      <point x="189" y="653"/>
      <point x="403" y="653" type="curve" smooth="yes"/>
      <point x="485" y="653"/>
      <point x="564" y="624"/>
      <point x="564" y="491" type="curve" smooth="yes"/>
      <point x="564" y="340"/>
      <point x="496" y="47"/>
      <point x="286" y="47" type="curve" smooth="yes"/>
      <point x="204" y="47"/>
      <point x="128" y="75"/>
    </contour>
  </outline>
</glyph>
<glyph name="P" format="2">
  <advance width="566"/>
  <unicode hex="0050"/>
  <note>
P
</note>
  <outline>
    <contour>
      <point x="35" y="0" type="line"/>
      <point x="96" y="0" type="line"/>
      <point x="147" y="242" type="line"/>
      <point x="310" y="242" type="line" smooth="yes"/>
      <point x="508" y="242"/>
      <point x="581" y="401"/>
      <point x="581" y="536" type="curve" smooth="yes"/>
      <point x="581" y="649"/>
      <point x="514" y="700"/>
      <point x="399" y="700" type="curve" smooth="yes"/>
      <point x="184" y="700" type="line"/>
    </contour>
    <contour>
      <point x="320" y="297" type="curve" smooth="yes"/>
      <point x="159" y="297" type="line"/>
      <point x="233" y="645" type="line"/>
      <point x="395" y="645" type="line" smooth="yes"/>
      <point x="481" y="645"/>
      <point x="518" y="611"/>
      <point x="518" y="530" type="curve" smooth="yes"/>
      <point x="518" y="427"/>
      <point x="467" y="297"/>
    </contour>
  </outline>
</glyph>
<glyph name="Q" format="2">
  <advance width="648"/>
  <unicode hex="0051"/>
  <note>
Q
</note>
  <outline>
    <contour>
      <point x="278" y="-9" type="curve" smooth="yes"/>
      <point x="301" y="-9"/>
      <point x="324" y="-7"/>
      <point x="363" y="1" type="curve"/>
      <point x="423" y="-117" type="line"/>
      <point x="480" y="-86" type="line"/>
      <point x="423" y="26" type="line"/>
      <point x="572" y="104"/>
      <point x="626" y="333"/>
      <point x="626" y="488" type="curve" smooth="yes"/>
      <point x="626" y="660"/>
      <point x="529" y="709"/>
      <point x="414" y="709" type="curve" smooth="yes"/>
      <point x="142" y="709"/>
      <point x="64" y="403"/>
      <point x="64" y="210" type="curve" smooth="yes"/>
      <point x="64" y="46"/>
      <point x="156" y="-9"/>
    </contour>
    <contour>
      <point x="128" y="201" type="curve" smooth="yes"/>
      <point x="128" y="353"/>
      <point x="189" y="653"/>
      <point x="403" y="653" type="curve" smooth="yes"/>
      <point x="491" y="653"/>
      <point x="564" y="624"/>
      <point x="564" y="490" type="curve" smooth="yes"/>
      <point x="564" y="292"/>
      <point x="496" y="47"/>
      <point x="286" y="47" type="curve" smooth="yes"/>
      <point x="204" y="47"/>
      <point x="128" y="75"/>
    </contour>
  </outline>
</glyph>
<glyph name="R" format="2">
  <advance width="586"/>
  <unicode hex="0052"/>
  <note>
R
</note>
  <outline>
    <contour>
      <point x="35" y="0" type="line"/>
      <point x="96" y="0" type="line"/>
      <point x="154" y="275" type="line"/>
      <point x="348" y="275" type="line"/>
      <point x="424" y="0" type="line"/>
      <point x="487" y="0" type="line"/>
      <point x="406" y="286" type="line"/>
      <point x="546" y="317"/>
      <point x="587" y="438"/>
      <point x="587" y="533" type="curve" smooth="yes"/>
      <point x="587" y="639"/>
      <point x="526" y="700"/>
      <point x="398" y="700" type="curve" smooth="yes"/>
      <point x="184" y="700" type="line"/>
    </contour>
    <contour>
      <point x="337" y="329" type="curve" smooth="yes"/>
      <point x="166" y="329" type="line"/>
      <point x="233" y="645" type="line"/>
      <point x="402" y="645" type="line" smooth="yes"/>
      <point x="486" y="645"/>
      <point x="523" y="597"/>
      <point x="523" y="523" type="curve" smooth="yes"/>
      <point x="523" y="438"/>
      <point x="483" y="329"/>
    </contour>
  </outline>
</glyph>
<glyph name="T" format="2">
  <advance width="515"/>
  <unicode hex="0054"/>
  <note>
T
</note>
  <outline>
    <contour>
      <point x="587" y="644" type="line"/>
      <point x="599" y="700" type="line"/>
      <point x="108" y="700" type="line"/>
      <point x="96" y="644" type="line"/>
      <point x="311" y="644" type="line"/>
      <point x="174" y="0" type="line"/>
      <point x="235" y="0" type="line"/>
      <point x="372" y="644" type="line"/>
    </contour>
  </outline>
</glyph>
<glyph name="V" format="2">
  <advance width="557"/>
  <unicode hex="0056"/>
  <note>
V
</note>
  <outline>
    <contour>
      <point x="164" y="0" type="line"/>
      <point x="285" y="0" type="line"/>
      <point x="625" y="700" type="line"/>
      <point x="562" y="700" type="line"/>
      <point x="249" y="58" type="line"/>
      <point x="220" y="58" type="line"/>
      <point x="185" y="700" type="line"/>
      <point x="126" y="700" type="line"/>
    </contour>
  </outline>
</glyph>
<glyph name="W" format="2">
  <advance width="845"/>
  <unicode hex="0057"/>
  <note>
W
</note>
  <outline>
    <contour>
      <point x="207" y="58" type="line"/>
      <point x="177" y="58" type="line"/>
      <point x="193" y="700" type="line"/>
      <point x="134" y="700" type="line"/>
      <point x="117" y="0" type="line"/>
      <point x="239" y="0" type="line"/>
      <point x="498" y="610" type="line"/>
      <point x="496" y="0" type="line"/>
      <point x="617" y="0" type="line"/>
      <point x="904" y="700" type="line"/>
      <point x="843" y="700" type="line"/>
      <point x="580" y="58" type="line"/>
      <point x="551" y="58" type="line"/>
      <point x="552" y="687" type="line"/>
      <point x="477" y="687" type="line"/>
    </contour>
  </outline>
</glyph>
<glyph name="X" format="2">
  <advance width="551"/>
  <unicode hex="0058"/>
  <note>
X
</note>
  <outline>
    <contour>
      <point x="131" y="700" type="line"/>
      <point x="263" y="354" type="line"/>
      <point x="-35" y="0" type="line"/>
      <point x="38" y="0" type="line"/>
      <point x="285" y="302" type="line"/>
      <point x="401" y="0" type="line"/>
      <point x="463" y="0" type="line"/>
      <point x="329" y="340" type="line"/>
      <point x="627" y="700" type="line"/>
      <point x="555" y="700" type="line"/>
      <point x="307" y="394" type="line"/>
      <point x="193" y="700" type="line"/>
    </contour>
  </outline>
</glyph>
<glyph name="Y" format="2">
  <advance width="523"/>
  <unicode hex="0059"/>
  <note>
Y
</note>
  <outline>
    <contour>
      <point x="125" y="700" type="line"/>
      <point x="239" y="297" type="line"/>
      <point x="176" y="0" type="line"/>
      <point x="236" y="0" type="line"/>
      <point x="299" y="295" type="line"/>
      <point x="603" y="700" type="line"/>
      <point x="532" y="700" type="line"/>
      <point x="280" y="360" type="line"/>
      <point x="185" y="700" type="line"/>
    </contour>
  </outline>
</glyph>
<glyph name="Z" format="2">
  <advance width="514"/>
  <unicode hex="005A"/>
  <note>
Z
</note>
  <outline>
    <contour>
      <point x="539" y="602" type="line"/>
      <point x="561" y="700" type="line"/>
      <point x="148" y="700" type="line"/>
      <point x="135" y="645" type="line"/>
      <point x="488" y="645" type="line"/>
      <point x="482" y="620" type="line"/>
      <point x="9" y="100" type="line"/>
      <point x="-13" y="0" type="line"/>
      <point x="421" y="0" type="line"/>
      <point x="433" y="56" type="line"/>
      <point x="60" y="56" type="line"/>
      <point x="65" y="81" type="line"/>
    </contour>
  </outline>
</glyph>
<glyph name="bracketleft" format="2">
  <advance width="315"/>
  <unicode hex="005B"/>
  <note>
bracketleft
</note>
  <outline>
    <contour>
      <point x="78" y="-70" type="line"/>
      <point x="240" y="695" type="line"/>
      <point x="379" y="695" type="line"/>
      <point x="391" y="748" type="line"/>
      <point x="192" y="748" type="line"/>
      <point x="6" y="-123" type="line"/>
      <point x="205" y="-123" type="line"/>
      <point x="217" y="-70" type="line"/>
    </contour>
  </outline>
</glyph>
<glyph name="backslash" format="2">
  <advance width="641"/>
  <unicode hex="005C"/>
  <note>
backslash
</note>
  <outline>
    <contour>
      <point x="536" y="-10" type="line"/>
      <point x="580" y="18" type="line"/>
      <point x="149" y="710" type="line"/>
      <point x="104" y="682" type="line"/>
    </contour>
  </outline>
</glyph>
<glyph name="bracketright" format="2">
  <advance width="315"/>
  <unicode hex="005D"/>
  <note>
bracketright
</note>
  <outline>
    <contour>
      <point x="264" y="695" type="line"/>
      <point x="102" y="-70" type="line"/>
      <point x="-37" y="-70" type="line"/>
      <point x="-49" y="-123" type="line"/>
      <point x="150" y="-123" type="line"/>
      <point x="336" y="748" type="line"/>
      <point x="137" y="748" type="line"/>
      <point x="125" y="695" type="line"/>
    </contour>
  </outline>
</glyph>
<glyph name="asciicircum" format="2">
  <advance width="560"/>
  <unicode hex="005E"/>
  <note>
asciicircum
</note>
  <outline>
    <contour>
      <point x="83" y="321" type="line"/>
      <point x="151" y="321" type="line"/>
      <point x="358" y="601" type="line"/>
      <point x="450" y="321" type="line"/>
      <point x="511" y="321" type="line"/>
      <point x="393" y="660" type="line"/>
      <point x="338" y="660" type="line"/>
    </contour>
  </outline>
</glyph>
<glyph name="underscore" format="2">
  <advance width="541"/>
  <unicode hex="005F"/>
  <note>
underscore
</note>
  <outline>
    <contour>
      <point x="418" y="-96" type="line"/>
      <point x="429" y="-42" type="line"/>
      <point x="-7" y="-42" type="line"/>
      <point x="-18" y="-96" type="line"/>
    </contour>
  </outline>
</glyph>
<glyph name="grave" format="2">
  <advance width="328"/>
  <unicode hex="0060"/>
  <note>
grave
</note>
  <outline>
    <contour>
      <point x="93" y="686" type="line"/>
      <point x="285" y="598" type="line"/>
      <point x="307" y="640" type="line"/>
      <point x="121" y="737" type="line"/>
    </contour>
  </outline>
</glyph>
<glyph name="b" format="2">
  <advance width="498"/>
  <unicode hex="0062"/>
  <note>
b
</note>
  <outline>
    <contour>
      <point x="339" y="512" type="curve" smooth="yes"/>
      <point x="248" y="512"/>
      <point x="169" y="427"/>
      <point x="169" y="427" type="curve"/>
      <point x="233" y="731" type="line"/>
      <point x="177" y="730" type="line"/>
      <point x="25" y="12" type="line"/>
      <point x="25" y="12"/>
      <point x="138" y="-11"/>
      <point x="213" y="-11" type="curve" smooth="yes"/>
      <point x="395" y="-11"/>
      <point x="461" y="228"/>
      <point x="461" y="358" type="curve" smooth="yes"/>
      <point x="461" y="449"/>
      <point x="431" y="512"/>
    </contour>
    <contour>
      <point x="93" y="55" type="curve"/>
      <point x="154" y="349" type="line"/>
      <point x="154" y="349"/>
      <point x="232" y="456"/>
      <point x="327" y="456" type="curve" smooth="yes"/>
      <point x="383" y="456"/>
      <point x="400" y="417"/>
      <point x="400" y="355" type="curve" smooth="yes"/>
      <point x="400" y="254"/>
      <point x="352" y="41"/>
      <point x="207" y="41" type="curve" smooth="yes"/>
      <point x="154" y="41"/>
      <point x="93" y="55"/>
    </contour>
  </outline>
</glyph>
<glyph name="c" format="2">
  <advance width="414"/>
  <unicode hex="0063"/>
  <note>
c
</note>
  <outline>
    <contour>
      <point x="303" y="512" type="curve" smooth="yes"/>
      <point x="105" y="512"/>
      <point x="39" y="278"/>
      <point x="39" y="151" type="curve" smooth="yes"/>
      <point x="39" y="32"/>
      <point x="89" y="-11"/>
      <point x="182" y="-11" type="curve" smooth="yes"/>
      <point x="250" y="-11"/>
      <point x="322" y="5"/>
      <point x="322" y="5" type="curve"/>
      <point x="329" y="56" type="line"/>
      <point x="329" y="56"/>
      <point x="254" y="42"/>
      <point x="194" y="42" type="curve" smooth="yes"/>
      <point x="130" y="42"/>
      <point x="99" y="64"/>
      <point x="99" y="152" type="curve" smooth="yes"/>
      <point x="99" y="250"/>
      <point x="143" y="459"/>
      <point x="304" y="459" type="curve" smooth="yes"/>
      <point x="348" y="459"/>
      <point x="412" y="449"/>
      <point x="412" y="449" type="curve"/>
      <point x="427" y="498" type="line"/>
      <point x="427" y="498"/>
      <point x="351" y="512"/>
    </contour>
  </outline>
</glyph>
<glyph name="g" format="2">
  <advance width="469"/>
  <unicode hex="0067"/>
  <note>
g
</note>
  <outline>
    <contour>
      <point x="144" y="-240" type="curve" smooth="yes"/>
      <point x="314" y="-240"/>
      <point x="398" y="-177"/>
      <point x="398" y="-57" type="curve" smooth="yes"/>
      <point x="398" y="11"/>
      <point x="363" y="40"/>
      <point x="275" y="55" type="curve" smooth="yes"/>
      <point x="168" y="74" type="line" smooth="yes"/>
      <point x="141" y="79"/>
      <point x="133" y="87"/>
      <point x="133" y="103" type="curve" smooth="yes"/>
      <point x="133" y="127"/>
      <point x="155" y="162"/>
      <point x="167" y="179" type="curve"/>
      <point x="170" y="178"/>
      <point x="186" y="176"/>
      <point x="202" y="176" type="curve" smooth="yes"/>
      <point x="342" y="176"/>
      <point x="412" y="274"/>
      <point x="412" y="376" type="curve" smooth="yes"/>
      <point x="412" y="415"/>
      <point x="403" y="436"/>
      <point x="393" y="450" type="curve"/>
      <point x="490" y="450" type="line"/>
      <point x="502" y="502" type="line"/>
      <point x="357" y="498" type="line"/>
      <point x="357" y="498"/>
      <point x="310" y="512"/>
      <point x="261" y="512" type="curve" smooth="yes"/>
      <point x="121" y="512"/>
      <point x="60" y="406"/>
      <point x="60" y="306" type="curve" smooth="yes"/>
      <point x="60" y="244"/>
      <point x="88" y="209"/>
      <point x="128" y="192" type="curve"/>
      <point x="114" y="172"/>
      <point x="75" y="131"/>
      <point x="75" y="93" type="curve" smooth="yes"/>
      <point x="75" y="75"/>
      <point x="80" y="62"/>
      <point x="91" y="52" type="curve"/>
      <point x="16" y="1"/>
      <point x="-47" y="-33"/>
      <point x="-47" y="-112" type="curve" smooth="yes"/>
      <point x="-47" y="-193"/>
      <point x="3" y="-240"/>
    </contour>
    <contour>
      <point x="9" y="-108" type="curve" smooth="yes"/>
      <point x="9" y="-54"/>
      <point x="54" y="-23"/>
      <point x="124" y="28" type="curve"/>
      <point x="130" y="25"/>
      <point x="142" y="22"/>
      <point x="166" y="17" type="curve" smooth="yes"/>
      <point x="251" y="0" type="line" smooth="yes"/>
      <point x="311" y="-11"/>
      <point x="340" y="-25"/>
      <point x="340" y="-71" type="curve" smooth="yes"/>
      <point x="340" y="-146"/>
      <point x="284" y="-190"/>
      <point x="151" y="-190" type="curve" smooth="yes"/>
      <point x="49" y="-190"/>
      <point x="9" y="-165"/>
    </contour>
    <contour>
      <point x="118" y="307" type="curve" smooth="yes"/>
      <point x="118" y="369"/>
      <point x="149" y="462"/>
      <point x="256" y="462" type="curve" smooth="yes"/>
      <point x="326" y="462"/>
      <point x="354" y="439"/>
      <point x="354" y="375" type="curve" smooth="yes"/>
      <point x="354" y="303"/>
      <point x="312" y="226"/>
      <point x="208" y="226" type="curve" smooth="yes"/>
      <point x="143" y="226"/>
      <point x="118" y="255"/>
    </contour>
  </outline>
</glyph>
<glyph name="i" format="2">
  <advance width="210"/>
  <unicode hex="0069"/>
  <note>
i
</note>
  <outline>
    <contour>
      <point x="211" y="612" type="line"/>
      <point x="230" y="700" type="line"/>
      <point x="171" y="700" type="line"/>
      <point x="152" y="612" type="line"/>
    </contour>
    <contour>
      <point x="129" y="500" type="line"/>
      <point x="22" y="0" type="line"/>
      <point x="82" y="0" type="line"/>
      <point x="188" y="500" type="line"/>
    </contour>
  </outline>
</glyph>
<glyph name="j" format="2">
  <advance width="210"/>
  <unicode hex="006A"/>
  <note>
j
</note>
  <outline>
    <contour>
      <point x="211" y="612" type="line"/>
      <point x="230" y="700" type="line"/>
      <point x="170" y="700" type="line"/>
      <point x="151" y="612" type="line"/>
    </contour>
    <contour>
      <point x="-145" y="-193" type="curve"/>
      <point x="-131" y="-240" type="line"/>
      <point x="17" y="-171"/>
      <point x="52" y="-140"/>
      <point x="77" y="-21" type="curve" smooth="yes"/>
      <point x="188" y="500" type="line"/>
      <point x="129" y="500" type="line"/>
      <point x="18" y="-20" type="line" smooth="yes"/>
      <point x="-3" y="-120"/>
      <point x="-27" y="-132"/>
    </contour>
  </outline>
</glyph>
<glyph name="k" format="2">
  <advance width="450"/>
  <unicode hex="006B"/>
  <note>
k
</note>
  <outline>
    <contour>
      <point x="236" y="730" type="line"/>
      <point x="178" y="730" type="line"/>
      <point x="22" y="0" type="line"/>
      <point x="81" y="0" type="line"/>
      <point x="133" y="247" type="line"/>
      <point x="225" y="248" type="line"/>
      <point x="323" y="0" type="line"/>
      <point x="384" y="0" type="line"/>
      <point x="275" y="278" type="line"/>
      <point x="470" y="500" type="line"/>
      <point x="398" y="500" type="line"/>
      <point x="226" y="301" type="line"/>
      <point x="144" y="299" type="line"/>
    </contour>
  </outline>
</glyph>
<glyph name="l" format="2">
  <advance width="254"/>
  <unicode hex="006C"/>
  <note>
l
</note>
  <outline>
    <contour>
      <point x="99" y="97" type="curve" smooth="yes"/>
      <point x="233" y="730" type="line"/>
      <point x="175" y="730" type="line"/>
      <point x="41" y="96" type="line" smooth="yes"/>
      <point x="25" y="25"/>
      <point x="51" y="-11"/>
      <point x="129" y="-11" type="curve" smooth="yes"/>
      <point x="163" y="-11"/>
      <point x="189" y="-4"/>
      <point x="189" y="-4" type="curve"/>
      <point x="195" y="45" type="line"/>
      <point x="195" y="45"/>
      <point x="171" y="43"/>
      <point x="143" y="43" type="curve" smooth="yes"/>
      <point x="97" y="43"/>
      <point x="91" y="58"/>
    </contour>
  </outline>
</glyph>
<glyph name="p" format="2">
  <advance width="500"/>
  <unicode hex="0070"/>
  <note>
p
</note>
  <outline>
    <contour>
      <point x="161" y="397" type="curve"/>
      <point x="183" y="500" type="line"/>
      <point x="129" y="500" type="line"/>
      <point x="-26" y="-230" type="line"/>
      <point x="31" y="-230" type="line"/>
      <point x="81" y="6" type="line"/>
      <point x="81" y="6"/>
      <point x="153" y="-11"/>
      <point x="216" y="-11" type="curve" smooth="yes"/>
      <point x="374" y="-11"/>
      <point x="463" y="189"/>
      <point x="463" y="364" type="curve" smooth="yes"/>
      <point x="463" y="451"/>
      <point x="429" y="512"/>
      <point x="341" y="512" type="curve" smooth="yes"/>
      <point x="250" y="512"/>
      <point x="161" y="397"/>
    </contour>
    <contour>
      <point x="93" y="56" type="curve"/>
      <point x="149" y="319" type="line"/>
      <point x="149" y="319"/>
      <point x="238" y="456"/>
      <point x="328" y="456" type="curve" smooth="yes"/>
      <point x="379" y="456"/>
      <point x="402" y="422"/>
      <point x="402" y="362" type="curve" smooth="yes"/>
      <point x="402" y="222"/>
      <point x="336" y="41"/>
      <point x="220" y="41" type="curve" smooth="yes"/>
      <point x="158" y="41"/>
      <point x="93" y="56"/>
    </contour>
  </outline>
</glyph>
<glyph name="q" format="2">
  <advance width="499"/>
  <unicode hex="0071"/>
  <note>
q
</note>
  <outline>
    <contour>
      <point x="158" y="-11" type="curve" smooth="yes"/>
      <point x="249" y="-11"/>
      <point x="331" y="77"/>
      <point x="331" y="77" type="curve"/>
      <point x="266" y="-230" type="line"/>
      <point x="322" y="-230" type="line"/>
      <point x="474" y="489" type="line"/>
      <point x="474" y="489"/>
      <point x="358" y="512"/>
      <point x="281" y="512" type="curve" smooth="yes"/>
      <point x="119" y="512"/>
      <point x="38" y="303"/>
      <point x="38" y="143" type="curve" smooth="yes"/>
      <point x="38" y="47"/>
      <point x="73" y="-11"/>
    </contour>
    <contour>
      <point x="99" y="141" type="curve" smooth="yes"/>
      <point x="99" y="288"/>
      <point x="164" y="460"/>
      <point x="289" y="460" type="curve" smooth="yes"/>
      <point x="344" y="460"/>
      <point x="406" y="447"/>
      <point x="406" y="447" type="curve"/>
      <point x="345" y="154" type="line"/>
      <point x="345" y="154"/>
      <point x="264" y="45"/>
      <point x="176" y="45" type="curve" smooth="yes"/>
      <point x="121" y="45"/>
      <point x="99" y="79"/>
    </contour>
  </outline>
</glyph>
<glyph name="r" format="2">
  <advance width="329"/>
  <unicode hex="0072"/>
  <note>
r
</note>
  <outline>
    <contour>
      <point x="165" y="414" type="curve"/>
      <point x="182" y="500" type="line"/>
      <point x="129" y="500" type="line"/>
      <point x="23" y="0" type="line"/>
      <point x="82" y="0" type="line"/>
      <point x="157" y="359" type="line"/>
      <point x="157" y="359"/>
      <point x="261" y="430"/>
      <point x="359" y="450" type="curve"/>
      <point x="372" y="512" type="line"/>
      <point x="257" y="488"/>
      <point x="165" y="414"/>
    </contour>
  </outline>
</glyph>
<glyph name="v" format="2">
  <advance width="457"/>
  <unicode hex="0076"/>
  <note>
v
</note>
  <outline>
    <contour>
      <point x="191" y="52" type="line"/>
      <point x="168" y="52" type="line"/>
      <point x="145" y="500" type="line"/>
      <point x="88" y="500" type="line"/>
      <point x="114" y="0" type="line"/>
      <point x="225" y="0" type="line"/>
      <point x="488" y="500" type="line"/>
      <point x="426" y="500" type="line"/>
    </contour>
  </outline>
</glyph>
<glyph name="w" format="2">
  <advance width="717"/>
  <unicode hex="0077"/>
  <note>
w
</note>
  <outline>
    <contour>
      <point x="167" y="52" type="line"/>
      <point x="145" y="52" type="line"/>
      <point x="147" y="500" type="line"/>
      <point x="89" y="500" type="line"/>
      <point x="88" y="0" type="line"/>
      <point x="198" y="0" type="line"/>
      <point x="396" y="413" type="line"/>
      <point x="407" y="0" type="line"/>
      <point x="514" y="0" type="line"/>
      <point x="739" y="500" type="line"/>
      <point x="681" y="500" type="line"/>
      <point x="480" y="52" type="line"/>
      <point x="458" y="52" type="line"/>
      <point x="445" y="490" type="line"/>
      <point x="377" y="490" type="line"/>
    </contour>
  </outline>
</glyph>
<glyph name="x" format="2">
  <advance width="432"/>
  <unicode hex="0078"/>
  <note>
x
</note>
  <outline>
    <contour>
      <point x="88" y="500" type="line"/>
      <point x="184" y="259" type="line"/>
      <point x="-34" y="0" type="line"/>
      <point x="35" y="0" type="line"/>
      <point x="206" y="206" type="line"/>
      <point x="288" y="0" type="line"/>
      <point x="348" y="0" type="line"/>
      <point x="249" y="243" type="line"/>
      <point x="463" y="500" type="line"/>
      <point x="393" y="500" type="line"/>
      <point x="226" y="295" type="line"/>
      <point x="148" y="500" type="line"/>
    </contour>
  </outline>
</glyph>
<glyph name="y" format="2">
  <advance width="456"/>
  <unicode hex="0079"/>
  <note>
y
</note>
  <outline>
    <contour>
      <point x="190" y="52" type="line"/>
      <point x="168" y="52" type="line"/>
      <point x="146" y="500" type="line"/>
      <point x="87" y="500" type="line"/>
      <point x="113" y="0" type="line"/>
      <point x="164" y="0" type="line"/>
      <point x="44" y="-230" type="line"/>
      <point x="104" y="-230" type="line"/>
      <point x="486" y="500" type="line"/>
      <point x="425" y="500" type="line"/>
    </contour>
  </outline>
</glyph>
<glyph name="z" format="2">
  <advance width="430"/>
  <unicode hex="007A"/>
  <note>
z
</note>
  <outline>
    <contour>
      <point x="428" y="426" type="line"/>
      <point x="442" y="500" type="line"/>
      <point x="101" y="500" type="line"/>
      <point x="91" y="447" type="line"/>
      <point x="360" y="447" type="line"/>
      <point x="356" y="429" type="line"/>
      <point x="-1" y="73" type="line"/>
      <point x="-15" y="0" type="line"/>
      <point x="335" y="0" type="line"/>
      <point x="345" y="53" type="line"/>
      <point x="67" y="53" type="line"/>
      <point x="72" y="71" type="line"/>
    </contour>
  </outline>
</glyph>
<glyph name="braceleft" format="2">
  <advance width="347"/>
  <unicode hex="007B"/>
  <note>
braceleft
</note>
  <outline>
    <contour>
      <point x="182" y="168" type="curve" smooth="yes"/>
      <point x="203" y="252"/>
      <point x="183" y="288"/>
      <point x="109" y="312" type="curve"/>
      <point x="193" y="336"/>
      <point x="224" y="363"/>
      <point x="242" y="450" type="curve" smooth="yes"/>
      <point x="249" y="483"/>
      <point x="254" y="543"/>
      <point x="261" y="576" type="curve" smooth="yes"/>
      <point x="278" y="653"/>
      <point x="311" y="697"/>
      <point x="413" y="702" type="curve"/>
      <point x="422" y="754" type="line"/>
      <point x="290" y="749"/>
      <point x="230" y="702"/>
      <point x="203" y="580" type="curve" smooth="yes"/>
      <point x="196" y="543"/>
      <point x="190" y="482"/>
      <point x="183" y="450" type="curve" smooth="yes"/>
      <point x="171" y="390"/>
      <point x="134" y="355"/>
      <point x="53" y="336" type="curve"/>
      <point x="43" y="287" type="line"/>
      <point x="114" y="265"/>
      <point x="137" y="232"/>
      <point x="125" y="172" type="curve" smooth="yes"/>
      <point x="119" y="143"/>
      <point x="99" y="95"/>
      <point x="91" y="56" type="curve" smooth="yes"/>
      <point x="66" y="-63"/>
      <point x="104" y="-124"/>
      <point x="237" y="-129" type="curve"/>
      <point x="248" y="-77" type="line"/>
      <point x="147" y="-72"/>
      <point x="133" y="-28"/>
      <point x="150" y="48" type="curve" smooth="yes"/>
      <point x="157" y="86"/>
      <point x="172" y="128"/>
    </contour>
  </outline>
</glyph>
<glyph name="bar" format="2">
  <advance width="235"/>
  <unicode hex="007C"/>
  <note>
bar
</note>
  <outline>
    <contour>
      <point x="45" y="-230" type="line"/>
      <point x="249" y="730" type="line"/>
      <point x="190" y="730" type="line"/>
      <point x="-14" y="-230" type="line"/>
    </contour>
  </outline>
</glyph>
<glyph name="braceright" format="2">
  <advance width="348"/>
  <unicode hex="007D"/>
  <note>
braceright
</note>
  <outline>
    <contour>
      <point x="192" y="457" type="curve" smooth="yes"/>
      <point x="171" y="373"/>
      <point x="191" y="337"/>
      <point x="265" y="313" type="curve"/>
      <point x="181" y="289"/>
      <point x="150" y="262"/>
      <point x="132" y="175" type="curve" smooth="yes"/>
      <point x="125" y="142"/>
      <point x="120" y="82"/>
      <point x="113" y="49" type="curve" smooth="yes"/>
      <point x="96" y="-28"/>
      <point x="63" y="-72"/>
      <point x="-39" y="-77" type="curve"/>
      <point x="-48" y="-129" type="line"/>
      <point x="84" y="-124"/>
      <point x="144" y="-77"/>
      <point x="171" y="45" type="curve" smooth="yes"/>
      <point x="178" y="82"/>
      <point x="184" y="143"/>
      <point x="191" y="175" type="curve" smooth="yes"/>
      <point x="203" y="235"/>
      <point x="240" y="270"/>
      <point x="321" y="289" type="curve"/>
      <point x="331" y="338" type="line"/>
      <point x="260" y="360"/>
      <point x="237" y="393"/>
      <point x="250" y="453" type="curve" smooth="yes"/>
      <point x="256" y="482"/>
      <point x="275" y="530"/>
      <point x="284" y="569" type="curve" smooth="yes"/>
      <point x="309" y="688"/>
      <point x="270" y="749"/>
      <point x="137" y="754" type="curve"/>
      <point x="127" y="702" type="line"/>
      <point x="227" y="697"/>
      <point x="241" y="653"/>
      <point x="224" y="577" type="curve" smooth="yes"/>
      <point x="217" y="539"/>
      <point x="202" y="497"/>
    </contour>
  </outline>
</glyph>
<glyph name="asciitilde" format="2">
  <advance width="560"/>
  <unicode hex="007E"/>
  <note>
asciitilde
</note>
  <outline>
    <contour>
      <point x="515" y="292" type="curve"/>
      <point x="499" y="329" type="line"/>
      <point x="499" y="329"/>
      <point x="423" y="281"/>
      <point x="387" y="281" type="curve" smooth="yes"/>
      <point x="341" y="281"/>
      <point x="258" y="346"/>
      <point x="202" y="346" type="curve" smooth="yes"/>
      <point x="149" y="346"/>
      <point x="60" y="280"/>
      <point x="60" y="280" type="curve"/>
      <point x="76" y="243" type="line"/>
      <point x="76" y="243"/>
      <point x="151" y="292"/>
      <point x="190" y="292" type="curve" smooth="yes"/>
      <point x="232" y="292"/>
      <point x="318" y="225"/>
      <point x="375" y="225" type="curve" smooth="yes"/>
      <point x="427" y="225"/>
      <point x="515" y="292"/>
    </contour>
  </outline>
</glyph>
<glyph name="exclamdown" format="2">
  <advance width="210"/>
  <unicode hex="00A1"/>
  <note>
exclamdown
</note>
  <outline>
    <contour>
      <point x="123" y="500" type="line"/>
      <point x="102" y="402" type="line"/>
      <point x="168" y="402" type="line"/>
      <point x="189" y="500" type="line"/>
    </contour>
    <contour>
      <point x="84" y="277" type="line"/>
      <point x="-20" y="-200" type="line"/>
      <point x="41" y="-200" type="line"/>
      <point x="139" y="277" type="line"/>
    </contour>
  </outline>
</glyph>
<glyph name="cent" format="2">
  <advance width="444"/>
  <unicode hex="00A2"/>
  <note>
cent
</note>
  <outline>
    <contour>
      <point x="198" y="78" type="curve"/>
      <point x="174" y="-38" type="line"/>
      <point x="227" y="-38" type="line"/>
      <point x="252" y="80" type="line"/>
      <point x="294" y="81"/>
      <point x="362" y="90"/>
      <point x="362" y="90" type="curve"/>
      <point x="370" y="141" type="line"/>
      <point x="370" y="141"/>
      <point x="295" y="133"/>
      <point x="242" y="133" type="curve" smooth="yes"/>
      <point x="155" y="133"/>
      <point x="120" y="155"/>
      <point x="120" y="217" type="curve" smooth="yes"/>
      <point x="120" y="271"/>
      <point x="135" y="448"/>
      <point x="288" y="448" type="curve" smooth="yes"/>
      <point x="341" y="448"/>
      <point x="416" y="440"/>
      <point x="416" y="440" type="curve"/>
      <point x="429" y="490" type="line"/>
      <point x="429" y="490"/>
      <point x="372" y="501"/>
      <point x="328" y="502" type="curve"/>
      <point x="354" y="623" type="line"/>
      <point x="301" y="623" type="line"/>
      <point x="275" y="504" type="line"/>
      <point x="116" y="496"/>
      <point x="56" y="335"/>
      <point x="56" y="211" type="curve" smooth="yes"/>
      <point x="56" y="121"/>
      <point x="105" y="83"/>
    </contour>
  </outline>
</glyph>
<glyph name="sterling" format="2">
  <advance width="473"/>
  <unicode hex="00A3"/>
  <note>
sterling
</note>
  <outline>
    <contour>
      <point x="477" y="605" type="curve"/>
      <point x="488" y="655" type="line"/>
      <point x="488" y="655"/>
      <point x="410" y="670"/>
      <point x="363" y="670" type="curve" smooth="yes"/>
      <point x="261" y="670"/>
      <point x="212" y="633"/>
      <point x="183" y="499" type="curve" smooth="yes"/>
      <point x="165" y="413" type="line"/>
      <point x="97" y="413" type="line"/>
      <point x="86" y="361" type="line"/>
      <point x="154" y="361" type="line"/>
      <point x="89" y="54" type="line"/>
      <point x="1" y="54" type="line"/>
      <point x="-10" y="0" type="line"/>
      <point x="305" y="0" type="line"/>
      <point x="391" y="18" type="line"/>
      <point x="391" y="70" type="line"/>
      <point x="309" y="54" type="line"/>
      <point x="147" y="54" type="line"/>
      <point x="212" y="361" type="line"/>
      <point x="387" y="361" type="line"/>
      <point x="398" y="413" type="line"/>
      <point x="223" y="413" type="line"/>
      <point x="234" y="462" type="line" smooth="yes"/>
      <point x="260" y="586"/>
      <point x="286" y="617"/>
      <point x="356" y="617" type="curve" smooth="yes"/>
      <point x="396" y="617"/>
      <point x="477" y="605"/>
    </contour>
  </outline>
</glyph>
<glyph name="currency" format="2">
  <advance width="538"/>
  <unicode hex="00A4"/>
  <note>
currency
</note>
  <outline>
    <contour>
      <point x="353" y="145" type="curve"/>
      <point x="407" y="75" type="line"/>
      <point x="453" y="112" type="line"/>
      <point x="397" y="181" type="line"/>
      <point x="434" y="220"/>
      <point x="458" y="274"/>
      <point x="458" y="325" type="curve" smooth="yes"/>
      <point x="458" y="348"/>
      <point x="453" y="369"/>
      <point x="443" y="388" type="curve"/>
      <point x="529" y="458" type="line"/>
      <point x="493" y="504" type="line"/>
      <point x="408" y="433" type="line"/>
      <point x="384" y="453"/>
      <point x="352" y="465"/>
      <point x="314" y="465" type="curve" smooth="yes"/>
      <point x="276" y="465"/>
      <point x="234" y="451"/>
      <point x="201" y="430" type="curve"/>
      <point x="146" y="501" type="line"/>
      <point x="100" y="465" type="line"/>
      <point x="156" y="395" type="line"/>
      <point x="119" y="355"/>
      <point x="96" y="299"/>
      <point x="96" y="249" type="curve" smooth="yes"/>
      <point x="96" y="226"/>
      <point x="101" y="205"/>
      <point x="110" y="187" type="curve"/>
      <point x="25" y="117" type="line"/>
      <point x="60" y="72" type="line"/>
      <point x="145" y="143" type="line"/>
      <point x="169" y="122"/>
      <point x="200" y="111"/>
      <point x="239" y="111" type="curve" smooth="yes"/>
      <point x="276" y="111"/>
      <point x="319" y="124"/>
    </contour>
    <contour>
      <point x="151" y="262" type="curve" smooth="yes"/>
      <point x="151" y="340"/>
      <point x="227" y="410"/>
      <point x="302" y="410" type="curve" smooth="yes"/>
      <point x="361" y="410"/>
      <point x="402" y="368"/>
      <point x="402" y="312" type="curve" smooth="yes"/>
      <point x="402" y="235"/>
      <point x="325" y="166"/>
      <point x="250" y="166" type="curve" smooth="yes"/>
      <point x="192" y="166"/>
      <point x="151" y="207"/>
    </contour>
  </outline>
</glyph>
<glyph name="yen" format="2">
  <advance width="568"/>
  <unicode hex="00A5"/>
  <note>
yen
</note>
  <outline>
    <contour>
      <point x="226" y="133" type="line"/>
      <point x="198" y="0" type="line"/>
      <point x="259" y="0" type="line"/>
      <point x="288" y="133" type="line"/>
      <point x="455" y="133" type="line"/>
      <point x="466" y="184" type="line"/>
      <point x="298" y="184" type="line"/>
      <point x="316" y="268" type="line"/>
      <point x="484" y="268" type="line"/>
      <point x="495" y="320" type="line"/>
      <point x="354" y="320" type="line"/>
      <point x="622" y="660" type="line"/>
      <point x="550" y="660" type="line"/>
      <point x="296" y="332" type="line"/>
      <point x="178" y="660" type="line"/>
      <point x="115" y="660" type="line"/>
      <point x="239" y="320" type="line"/>
      <point x="98" y="320" type="line"/>
      <point x="87" y="268" type="line"/>
      <point x="255" y="268" type="line"/>
      <point x="237" y="184" type="line"/>
      <point x="69" y="184" type="line"/>
      <point x="58" y="133" type="line"/>
    </contour>
  </outline>
</glyph>
<glyph name="brokenbar" format="2">
  <advance width="235"/>
  <unicode hex="00A6"/>
  <note>
brokenbar
</note>
  <outline>
    <contour>
      <point x="171" y="360" type="line"/>
      <point x="250" y="730" type="line"/>
      <point x="191" y="730" type="line"/>
      <point x="112" y="360" type="line"/>
    </contour>
    <contour>
      <point x="66" y="140" type="line"/>
      <point x="-13" y="-230" type="line"/>
      <point x="46" y="-230" type="line"/>
      <point x="125" y="140" type="line"/>
    </contour>
  </outline>
</glyph>
<glyph name="section" format="2">
  <advance width="473"/>
  <unicode hex="00A7"/>
  <note>
section
</note>
  <outline>
    <contour>
      <point x="476" y="646" type="curve"/>
      <point x="490" y="697" type="line"/>
      <point x="490" y="697"/>
      <point x="399" y="712"/>
      <point x="336" y="712" type="curve" smooth="yes"/>
      <point x="203" y="712"/>
      <point x="127" y="633"/>
      <point x="127" y="520" type="curve" smooth="yes"/>
      <point x="127" y="491"/>
      <point x="138" y="462"/>
      <point x="153" y="448" type="curve"/>
      <point x="104" y="405"/>
      <point x="68" y="342"/>
      <point x="68" y="294" type="curve" smooth="yes"/>
      <point x="68" y="220"/>
      <point x="111" y="194"/>
      <point x="198" y="177" type="curve" smooth="yes"/>
      <point x="278" y="161"/>
      <point x="320" y="151"/>
      <point x="320" y="102" type="curve" smooth="yes"/>
      <point x="320" y="29"/>
      <point x="266" y="-32"/>
      <point x="170" y="-32" type="curve" smooth="yes"/>
      <point x="116" y="-32"/>
      <point x="16" y="-18"/>
      <point x="16" y="-18" type="curve"/>
      <point x="0" y="-69" type="line"/>
      <point x="0" y="-69"/>
      <point x="101" y="-84"/>
      <point x="162" y="-84" type="curve" smooth="yes"/>
      <point x="314" y="-84"/>
      <point x="380" y="13"/>
      <point x="380" y="119" type="curve" smooth="yes"/>
      <point x="380" y="144"/>
      <point x="373" y="164"/>
      <point x="360" y="177" type="curve"/>
      <point x="407" y="233"/>
      <point x="434" y="288"/>
      <point x="434" y="340" type="curve" smooth="yes"/>
      <point x="434" y="406"/>
      <point x="384" y="434"/>
      <point x="304" y="450" type="curve" smooth="yes"/>
      <point x="221" y="467"/>
      <point x="186" y="479"/>
      <point x="186" y="532" type="curve" smooth="yes"/>
      <point x="186" y="614"/>
      <point x="240" y="660"/>
      <point x="329" y="660" type="curve" smooth="yes"/>
      <point x="376" y="660"/>
      <point x="476" y="646"/>
    </contour>
    <contour>
      <point x="126" y="303" type="curve" smooth="yes"/>
      <point x="126" y="339"/>
      <point x="145" y="376"/>
      <point x="187" y="424" type="curve"/>
      <point x="211" y="414"/>
      <point x="238" y="406"/>
      <point x="275" y="398" type="curve" smooth="yes"/>
      <point x="340" y="384"/>
      <point x="373" y="369"/>
      <point x="373" y="320" type="curve" smooth="yes"/>
      <point x="373" y="285"/>
      <point x="348" y="239"/>
      <point x="321" y="201" type="curve"/>
      <point x="299" y="213"/>
      <point x="265" y="221"/>
      <point x="229" y="229" type="curve" smooth="yes"/>
      <point x="157" y="243"/>
      <point x="126" y="257"/>
    </contour>
  </outline>
</glyph>
<glyph name="copyright" format="2">
  <advance width="638"/>
  <unicode hex="00A9"/>
  <note>
copyright
</note>
  <outline>
    <contour>
      <point x="412" y="740" type="curve" smooth="yes"/>
      <point x="227" y="740"/>
      <point x="99" y="580"/>
      <point x="99" y="419" type="curve" smooth="yes"/>
      <point x="99" y="293"/>
      <point x="185" y="200"/>
      <point x="321" y="200" type="curve" smooth="yes"/>
      <point x="505" y="200"/>
      <point x="633" y="360"/>
      <point x="633" y="522" type="curve" smooth="yes"/>
      <point x="633" y="647"/>
      <point x="548" y="740"/>
    </contour>
    <contour>
      <point x="140" y="422" type="curve" smooth="yes"/>
      <point x="140" y="562"/>
      <point x="251" y="701"/>
      <point x="409" y="701" type="curve" smooth="yes"/>
      <point x="524" y="701"/>
      <point x="591" y="626"/>
      <point x="591" y="519" type="curve" smooth="yes"/>
      <point x="591" y="377"/>
      <point x="481" y="239"/>
      <point x="325" y="239" type="curve" smooth="yes"/>
      <point x="207" y="239"/>
      <point x="140" y="314"/>
    </contour>
    <contour>
      <point x="246" y="416" type="curve" smooth="yes"/>
      <point x="246" y="361"/>
      <point x="271" y="324"/>
      <point x="336" y="324" type="curve" smooth="yes"/>
      <point x="373" y="324"/>
      <point x="415" y="334"/>
      <point x="415" y="334" type="curve"/>
      <point x="422" y="379" type="line"/>
      <point x="422" y="379"/>
      <point x="377" y="371"/>
      <point x="349" y="371" type="curve" smooth="yes"/>
      <point x="310" y="371"/>
      <point x="297" y="390"/>
      <point x="297" y="423" type="curve" smooth="yes"/>
      <point x="297" y="472"/>
      <point x="322" y="572"/>
      <point x="392" y="572" type="curve" smooth="yes"/>
      <point x="424" y="572"/>
      <point x="461" y="565"/>
      <point x="461" y="565" type="curve"/>
      <point x="474" y="610" type="line"/>
      <point x="474" y="610"/>
      <point x="440" y="619"/>
      <point x="400" y="619" type="curve" smooth="yes"/>
      <point x="281" y="619"/>
      <point x="246" y="485"/>
    </contour>
  </outline>
</glyph>
<glyph name="ordfeminine" format="2">
  <advance width="393"/>
  <unicode hex="00AA"/>
  <note>
ordfeminine
</note>
  <outline>
    <contour>
      <point x="344" y="482" type="curve"/>
      <point x="373" y="617" type="line" smooth="yes"/>
      <point x="385" y="673"/>
      <point x="352" y="712"/>
      <point x="279" y="712" type="curve" smooth="yes"/>
      <point x="233" y="712"/>
      <point x="176" y="700"/>
      <point x="176" y="700" type="curve"/>
      <point x="170" y="657" type="line"/>
      <point x="170" y="657"/>
      <point x="226" y="666"/>
      <point x="268" y="666" type="curve" smooth="yes"/>
      <point x="314" y="666"/>
      <point x="329" y="652"/>
      <point x="322" y="620" type="curve" smooth="yes"/>
      <point x="317" y="596" type="line"/>
      <point x="218" y="595" type="line" smooth="yes"/>
      <point x="161" y="594"/>
      <point x="124" y="564"/>
      <point x="124" y="506" type="curve" smooth="yes"/>
      <point x="124" y="455"/>
      <point x="158" y="422"/>
      <point x="210" y="422" type="curve" smooth="yes"/>
      <point x="253" y="422"/>
      <point x="296" y="446"/>
      <point x="296" y="446" type="curve"/>
      <point x="307" y="430"/>
      <point x="319" y="422"/>
      <point x="363" y="422" type="curve"/>
      <point x="372" y="463" type="line"/>
      <point x="360" y="466"/>
      <point x="349" y="471"/>
    </contour>
    <contour>
      <point x="99" y="361" type="line"/>
      <point x="89" y="313" type="line"/>
      <point x="339" y="313" type="line"/>
      <point x="350" y="361" type="line"/>
    </contour>
    <contour>
      <point x="176" y="507" type="curve" smooth="yes"/>
      <point x="176" y="535"/>
      <point x="191" y="556"/>
      <point x="232" y="556" type="curve" smooth="yes"/>
      <point x="309" y="556" type="line"/>
      <point x="293" y="484" type="line"/>
      <point x="293" y="484"/>
      <point x="256" y="466"/>
      <point x="218" y="466" type="curve" smooth="yes"/>
      <point x="187" y="466"/>
      <point x="176" y="481"/>
    </contour>
  </outline>
</glyph>
<glyph name="guillemotleft" format="2">
  <advance width="501"/>
  <unicode hex="00AB"/>
  <note>
guillemotleft
</note>
  <outline>
    <contour>
      <point x="219" y="93" type="line"/>
      <point x="258" y="131" type="line"/>
      <point x="108" y="285" type="line"/>
      <point x="318" y="436" type="line"/>
      <point x="289" y="481" type="line"/>
      <point x="63" y="317" type="line"/>
      <point x="52" y="266" type="line"/>
    </contour>
    <contour>
      <point x="231" y="317" type="line"/>
      <point x="220" y="266" type="line"/>
      <point x="384" y="98" type="line"/>
      <point x="423" y="134" type="line"/>
      <point x="275" y="286" type="line"/>
      <point x="482" y="433" type="line"/>
      <point x="454" y="478" type="line"/>
    </contour>
  </outline>
</glyph>
<glyph name="logicalnot" format="2">
  <advance width="560"/>
  <unicode hex="00AC"/>
  <note>
logicalnot
</note>
  <outline>
    <contour>
      <point x="407" y="124" type="line"/>
      <point x="463" y="124" type="line"/>
      <point x="510" y="342" type="line"/>
      <point x="84" y="342" type="line"/>
      <point x="72" y="287" type="line"/>
      <point x="441" y="287" type="line"/>
    </contour>
  </outline>
</glyph>
<glyph name="uni00AD" format="2">
  <advance width="0"/>
  <unicode hex="00AD"/>
  <note>
uni00AD
</note>
  <outline>
    <contour>
      <point x="156" y="259" type="line"/>
      <point x="167" y="315" type="line"/>
      <point x="-139" y="315" type="line"/>
      <point x="-150" y="259" type="line"/>
    </contour>
  </outline>
</glyph>
<glyph name="registered" format="2">
  <advance width="638"/>
  <unicode hex="00AE"/>
  <note>
registered
</note>
  <outline>
    <contour>
      <point x="412" y="740" type="curve" smooth="yes"/>
      <point x="227" y="740"/>
      <point x="99" y="580"/>
      <point x="99" y="419" type="curve" smooth="yes"/>
      <point x="99" y="293"/>
      <point x="185" y="200"/>
      <point x="321" y="200" type="curve" smooth="yes"/>
      <point x="505" y="200"/>
      <point x="633" y="360"/>
      <point x="633" y="522" type="curve" smooth="yes"/>
      <point x="633" y="647"/>
      <point x="548" y="740"/>
    </contour>
    <contour>
      <point x="140" y="422" type="curve" smooth="yes"/>
      <point x="140" y="562"/>
      <point x="251" y="701"/>
      <point x="409" y="701" type="curve" smooth="yes"/>
      <point x="524" y="701"/>
      <point x="591" y="626"/>
      <point x="591" y="519" type="curve" smooth="yes"/>
      <point x="591" y="377"/>
      <point x="481" y="239"/>
      <point x="325" y="239" type="curve" smooth="yes"/>
      <point x="207" y="239"/>
      <point x="140" y="314"/>
    </contour>
    <contour>
      <point x="296" y="614" type="line"/>
      <point x="235" y="329" type="line"/>
      <point x="283" y="329" type="line"/>
      <point x="305" y="432" type="line"/>
      <point x="368" y="432" type="line"/>
      <point x="407" y="329" type="line"/>
      <point x="456" y="329" type="line"/>
      <point x="415" y="438" type="line"/>
      <point x="464" y="454"/>
      <point x="491" y="494"/>
      <point x="491" y="541" type="curve" smooth="yes"/>
      <point x="491" y="593"/>
      <point x="456" y="614"/>
      <point x="394" y="614" type="curve" smooth="yes"/>
    </contour>
    <contour>
      <point x="375" y="473" type="curve" smooth="yes"/>
      <point x="313" y="473" type="line"/>
      <point x="335" y="573" type="line"/>
      <point x="387" y="573" type="line" smooth="yes"/>
      <point x="420" y="573"/>
      <point x="440" y="567"/>
      <point x="440" y="540" type="curve" smooth="yes"/>
      <point x="440" y="509"/>
      <point x="425" y="473"/>
    </contour>
  </outline>
</glyph>
<glyph name="macron" format="2">
  <advance width="372"/>
  <unicode hex="00AF"/>
  <note>
macron
</note>
  <outline>
    <contour>
      <point x="353" y="631" type="line"/>
      <point x="363" y="679" type="line"/>
      <point x="91" y="679" type="line"/>
      <point x="82" y="631" type="line"/>
    </contour>
  </outline>
</glyph>
<glyph name="degree" format="2">
  <advance width="398"/>
  <unicode hex="00B0"/>
  <note>
degree
</note>
  <outline>
    <contour>
      <point x="288" y="712" type="curve" smooth="yes"/>
      <point x="184" y="712"/>
      <point x="115" y="627"/>
      <point x="115" y="540" type="curve" smooth="yes"/>
      <point x="115" y="470"/>
      <point x="165" y="422"/>
      <point x="240" y="422" type="curve" smooth="yes"/>
      <point x="342" y="422"/>
      <point x="413" y="504"/>
      <point x="413" y="594" type="curve" smooth="yes"/>
      <point x="413" y="664"/>
      <point x="363" y="712"/>
    </contour>
    <contour>
      <point x="166" y="541" type="curve" smooth="yes"/>
      <point x="166" y="602"/>
      <point x="213" y="666"/>
      <point x="285" y="666" type="curve" smooth="yes"/>
      <point x="334" y="666"/>
      <point x="362" y="637"/>
      <point x="362" y="593" type="curve" smooth="yes"/>
      <point x="362" y="532"/>
      <point x="316" y="469"/>
      <point x="243" y="469" type="curve" smooth="yes"/>
      <point x="195" y="469"/>
      <point x="166" y="497"/>
    </contour>
  </outline>
</glyph>
<glyph name="plusminus" format="2">
  <advance width="560"/>
  <unicode hex="00B1"/>
  <note>
plusminus
</note>
  <outline>
    <contour>
      <point x="311" y="529" type="line"/>
      <point x="279" y="380" type="line"/>
      <point x="84" y="380" type="line"/>
      <point x="72" y="324" type="line"/>
      <point x="267" y="324" type="line"/>
      <point x="235" y="175" type="line"/>
      <point x="292" y="175" type="line"/>
      <point x="324" y="324" type="line"/>
      <point x="519" y="324" type="line"/>
      <point x="531" y="380" type="line"/>
      <point x="336" y="380" type="line"/>
      <point x="367" y="529" type="line"/>
    </contour>
    <contour>
      <point x="24" y="101" type="line"/>
      <point x="13" y="45" type="line"/>
      <point x="460" y="45" type="line"/>
      <point x="471" y="101" type="line"/>
    </contour>
  </outline>
</glyph>
<glyph name="uni00B2" format="2">
  <advance width="257"/>
  <unicode hex="00B2"/>
  <note>
uni00B2
</note>
  <outline>
    <contour>
      <point x="183" y="559" type="curve" smooth="yes"/>
      <point x="71" y="462" type="line"/>
      <point x="62" y="417" type="line"/>
      <point x="265" y="417" type="line"/>
      <point x="275" y="465" type="line"/>
      <point x="138" y="465" type="line"/>
      <point x="223" y="536" type="line" smooth="yes"/>
      <point x="278" y="581"/>
      <point x="312" y="608"/>
      <point x="312" y="666" type="curve" smooth="yes"/>
      <point x="312" y="712"/>
      <point x="288" y="740"/>
      <point x="232" y="740" type="curve" smooth="yes"/>
      <point x="188" y="740"/>
      <point x="130" y="728"/>
      <point x="130" y="728" type="curve"/>
      <point x="123" y="682" type="line"/>
      <point x="123" y="682"/>
      <point x="181" y="691"/>
      <point x="212" y="691" type="curve" smooth="yes"/>
      <point x="243" y="691"/>
      <point x="256" y="677"/>
      <point x="256" y="655" type="curve" smooth="yes"/>
      <point x="256" y="617"/>
      <point x="215" y="586"/>
    </contour>
  </outline>
</glyph>
<glyph name="uni00B3" format="2">
  <advance width="270"/>
  <unicode hex="00B3"/>
  <note>
uni00B3
</note>
  <outline>
    <contour>
      <point x="130" y="730" type="curve"/>
      <point x="124" y="684" type="line"/>
      <point x="124" y="684"/>
      <point x="175" y="692"/>
      <point x="219" y="692" type="curve" smooth="yes"/>
      <point x="250" y="692"/>
      <point x="262" y="680"/>
      <point x="262" y="658" type="curve" smooth="yes"/>
      <point x="262" y="620"/>
      <point x="232" y="601"/>
      <point x="207" y="601" type="curve" smooth="yes"/>
      <point x="142" y="601" type="line"/>
      <point x="132" y="556" type="line"/>
      <point x="197" y="556" type="line" smooth="yes"/>
      <point x="227" y="556"/>
      <point x="240" y="545"/>
      <point x="240" y="518" type="curve" smooth="yes"/>
      <point x="240" y="480"/>
      <point x="219" y="455"/>
      <point x="173" y="455" type="curve" smooth="yes"/>
      <point x="127" y="455"/>
      <point x="74" y="464"/>
      <point x="74" y="464" type="curve"/>
      <point x="60" y="418" type="line"/>
      <point x="60" y="418"/>
      <point x="120" y="407"/>
      <point x="169" y="407" type="curve" smooth="yes"/>
      <point x="258" y="407"/>
      <point x="296" y="459"/>
      <point x="296" y="520" type="curve" smooth="yes"/>
      <point x="296" y="555"/>
      <point x="282" y="575"/>
      <point x="258" y="584" type="curve"/>
      <point x="296" y="600"/>
      <point x="317" y="628"/>
      <point x="317" y="668" type="curve" smooth="yes"/>
      <point x="317" y="713"/>
      <point x="291" y="740"/>
      <point x="232" y="740" type="curve" smooth="yes"/>
      <point x="189" y="740"/>
      <point x="130" y="730"/>
    </contour>
  </outline>
</glyph>
<glyph name="acute" format="2">
  <advance width="328"/>
  <unicode hex="00B4"/>
  <note>
acute
</note>
  <outline>
    <contour>
      <point x="328" y="686" type="line"/>
      <point x="309" y="737" type="line"/>
      <point x="83" y="640" type="line"/>
      <point x="100" y="598" type="line"/>
    </contour>
  </outline>
</glyph>
<glyph name="uni00B5" format="2">
  <advance width="519"/>
  <unicode hex="00B5"/>
  <note>
uni00B5
</note>
  <outline>
    <contour>
      <point x="329" y="0" type="line"/>
      <point x="383" y="0" type="line"/>
      <point x="490" y="500" type="line"/>
      <point x="431" y="500" type="line"/>
      <point x="359" y="166" type="line"/>
      <point x="359" y="166"/>
      <point x="274" y="45"/>
      <point x="197" y="45" type="curve" smooth="yes"/>
      <point x="129" y="45"/>
      <point x="109" y="95"/>
      <point x="129" y="187" type="curve" smooth="yes"/>
      <point x="195" y="500" type="line"/>
      <point x="136" y="500" type="line"/>
      <point x="-20" y="-230" type="line"/>
      <point x="37" y="-230" type="line"/>
      <point x="94" y="32" type="line"/>
      <point x="112" y="6"/>
      <point x="141" y="-10"/>
      <point x="183" y="-10" type="curve" smooth="yes"/>
      <point x="275" y="-10"/>
      <point x="349" y="92"/>
      <point x="349" y="92" type="curve"/>
    </contour>
  </outline>
</glyph>
<glyph name="paragraph" format="2">
  <advance width="568"/>
  <unicode hex="00B6"/>
  <note>
paragraph
</note>
  <outline>
    <contour>
      <point x="236" y="0" type="line"/>
      <point x="373" y="646" type="line"/>
      <point x="480" y="646" type="line"/>
      <point x="344" y="0" type="line"/>
      <point x="401" y="0" type="line"/>
      <point x="538" y="646" type="line"/>
      <point x="620" y="646" type="line"/>
      <point x="632" y="700" type="line"/>
      <point x="321" y="700" type="line" smooth="yes"/>
      <point x="167" y="700"/>
      <point x="85" y="614"/>
      <point x="85" y="503" type="curve" smooth="yes"/>
      <point x="85" y="409"/>
      <point x="144" y="339"/>
      <point x="243" y="339" type="curve" smooth="yes"/>
      <point x="250" y="339" type="line"/>
      <point x="178" y="0" type="line"/>
    </contour>
  </outline>
</glyph>
<glyph name="periodcentered" format="2">
  <advance width="205"/>
  <unicode hex="00B7"/>
  <note>
periodcentered
</note>
  <outline>
    <contour>
      <point x="132" y="236" type="line"/>
      <point x="154" y="337" type="line"/>
      <point x="88" y="337" type="line"/>
      <point x="67" y="236" type="line"/>
    </contour>
  </outline>
</glyph>
<glyph name="cedilla" format="2">
  <advance width="275"/>
  <unicode hex="00B8"/>
  <note>
cedilla
</note>
  <outline>
    <contour>
      <point x="101" y="-115" type="curve" smooth="yes"/>
      <point x="101" y="-71"/>
      <point x="69" y="-52"/>
      <point x="14" y="-52" type="curve"/>
      <point x="34" y="1" type="line"/>
      <point x="-4" y="1" type="line"/>
      <point x="-39" y="-90" type="line"/>
      <point x="7" y="-90" type="line" smooth="yes"/>
      <point x="33" y="-90"/>
      <point x="45" y="-99"/>
      <point x="45" y="-120" type="curve" smooth="yes"/>
      <point x="45" y="-151"/>
      <point x="26" y="-168"/>
      <point x="-11" y="-168" type="curve" smooth="yes"/>
      <point x="-40" y="-168"/>
      <point x="-83" y="-165"/>
      <point x="-83" y="-165" type="curve"/>
      <point x="-94" y="-205" type="line"/>
      <point x="-94" y="-205"/>
      <point x="-52" y="-211"/>
      <point x="-8" y="-211" type="curve" smooth="yes"/>
      <point x="70" y="-211"/>
      <point x="101" y="-166"/>
    </contour>
  </outline>
</glyph>
<glyph name="uni00B9" format="2">
  <advance width="201"/>
  <unicode hex="00B9"/>
  <note>
uni00B9
</note>
  <outline>
    <contour>
      <point x="193" y="417" type="line"/>
      <point x="260" y="731" type="line"/>
      <point x="209" y="731" type="line"/>
      <point x="95" y="662" type="line"/>
      <point x="110" y="623" type="line"/>
      <point x="195" y="673" type="line"/>
      <point x="140" y="417" type="line"/>
    </contour>
  </outline>
</glyph>
<glyph name="ordmasculine" format="2">
  <advance width="395"/>
  <unicode hex="00BA"/>
  <note>
ordmasculine
</note>
  <outline>
    <contour>
      <point x="291" y="712" type="curve" smooth="yes"/>
      <point x="161" y="712"/>
      <point x="129" y="593"/>
      <point x="129" y="523" type="curve" smooth="yes"/>
      <point x="129" y="460"/>
      <point x="168" y="422"/>
      <point x="237" y="422" type="curve" smooth="yes"/>
      <point x="370" y="422"/>
      <point x="397" y="546"/>
      <point x="397" y="614" type="curve" smooth="yes"/>
      <point x="397" y="677"/>
      <point x="359" y="712"/>
    </contour>
    <contour>
      <point x="106" y="361" type="line"/>
      <point x="96" y="313" type="line"/>
      <point x="331" y="313" type="line"/>
      <point x="341" y="361" type="line"/>
    </contour>
    <contour>
      <point x="185" y="525" type="curve" smooth="yes"/>
      <point x="185" y="573"/>
      <point x="204" y="663"/>
      <point x="284" y="663" type="curve" smooth="yes"/>
      <point x="324" y="663"/>
      <point x="341" y="649"/>
      <point x="341" y="612" type="curve" smooth="yes"/>
      <point x="341" y="566"/>
      <point x="327" y="471"/>
      <point x="243" y="471" type="curve" smooth="yes"/>
      <point x="203" y="471"/>
      <point x="185" y="488"/>
    </contour>
  </outline>
</glyph>
<glyph name="guillemotright" format="2">
  <advance width="499"/>
  <unicode hex="00BB"/>
  <note>
guillemotright
</note>
  <outline>
    <contour>
      <point x="297" y="481" type="line"/>
      <point x="257" y="444" type="line"/>
      <point x="408" y="290" type="line"/>
      <point x="197" y="139" type="line"/>
      <point x="226" y="93" type="line"/>
      <point x="453" y="257" type="line"/>
      <point x="464" y="309" type="line"/>
    </contour>
    <contour>
      <point x="240" y="289" type="line"/>
      <point x="33" y="141" type="line"/>
      <point x="62" y="97" type="line"/>
      <point x="284" y="257" type="line"/>
      <point x="296" y="308" type="line"/>
      <point x="131" y="477" type="line"/>
      <point x="93" y="440" type="line"/>
    </contour>
  </outline>
</glyph>
<glyph name="onequarter" format="2">
  <advance width="590"/>
  <unicode hex="00BC"/>
  <note>
onequarter
</note>
  <outline>
    <contour>
      <point x="22" y="-12" type="line"/>
      <point x="601" y="685" type="line"/>
      <point x="572" y="710" type="line"/>
      <point x="-5" y="13" type="line"/>
    </contour>
    <contour>
      <point x="229" y="701" type="line"/>
      <point x="114" y="632" type="line"/>
      <point x="130" y="593" type="line"/>
      <point x="214" y="643" type="line"/>
      <point x="160" y="387" type="line"/>
      <point x="212" y="387" type="line"/>
      <point x="279" y="701" type="line"/>
    </contour>
    <contour>
      <point x="300" y="98" type="line"/>
      <point x="291" y="53" type="line"/>
      <point x="434" y="53" type="line"/>
      <point x="422" y="0" type="line"/>
      <point x="475" y="0" type="line"/>
      <point x="486" y="53" type="line"/>
      <point x="517" y="53" type="line"/>
      <point x="527" y="101" type="line"/>
      <point x="496" y="101" type="line"/>
      <point x="515" y="191" type="line"/>
      <point x="466" y="191" type="line"/>
      <point x="444" y="101" type="line"/>
      <point x="357" y="101" type="line"/>
      <point x="486" y="314" type="line"/>
      <point x="426" y="314" type="line"/>
    </contour>
  </outline>
</glyph>
<glyph name="onehalf" format="2">
  <advance width="592"/>
  <unicode hex="00BD"/>
  <note>
onehalf
</note>
  <outline>
    <contour>
      <point x="22" y="-12" type="line"/>
      <point x="601" y="685" type="line"/>
      <point x="572" y="710" type="line"/>
      <point x="-5" y="13" type="line"/>
    </contour>
    <contour>
      <point x="229" y="701" type="line"/>
      <point x="114" y="632" type="line"/>
      <point x="130" y="593" type="line"/>
      <point x="214" y="643" type="line"/>
      <point x="160" y="387" type="line"/>
      <point x="212" y="387" type="line"/>
      <point x="279" y="701" type="line"/>
    </contour>
    <contour>
      <point x="302" y="46" type="line"/>
      <point x="292" y="0" type="line"/>
      <point x="495" y="0" type="line"/>
      <point x="505" y="48" type="line"/>
      <point x="368" y="48" type="line"/>
      <point x="453" y="119" type="line" smooth="yes"/>
      <point x="508" y="165"/>
      <point x="543" y="191"/>
      <point x="543" y="250" type="curve" smooth="yes"/>
      <point x="543" y="295"/>
      <point x="519" y="323"/>
      <point x="462" y="323" type="curve" smooth="yes"/>
      <point x="419" y="323"/>
      <point x="361" y="311"/>
      <point x="361" y="311" type="curve"/>
      <point x="353" y="265" type="line"/>
      <point x="353" y="265"/>
      <point x="411" y="274"/>
      <point x="442" y="274" type="curve" smooth="yes"/>
      <point x="474" y="274"/>
      <point x="486" y="261"/>
      <point x="486" y="238" type="curve" smooth="yes"/>
      <point x="486" y="200"/>
      <point x="446" y="170"/>
      <point x="414" y="142" type="curve" smooth="yes"/>
    </contour>
  </outline>
</glyph>
<glyph name="threequarters" format="2">
  <advance width="638"/>
  <unicode hex="00BE"/>
  <note>
threequarters
</note>
  <outline>
    <contour>
      <point x="144" y="700" type="curve"/>
      <point x="138" y="654" type="line"/>
      <point x="138" y="654"/>
      <point x="189" y="662"/>
      <point x="233" y="662" type="curve" smooth="yes"/>
      <point x="263" y="662"/>
      <point x="276" y="650"/>
      <point x="276" y="628" type="curve" smooth="yes"/>
      <point x="276" y="590"/>
      <point x="245" y="571"/>
      <point x="221" y="571" type="curve" smooth="yes"/>
      <point x="156" y="571" type="line"/>
      <point x="146" y="526" type="line"/>
      <point x="211" y="526" type="line" smooth="yes"/>
      <point x="241" y="526"/>
      <point x="254" y="515"/>
      <point x="254" y="488" type="curve" smooth="yes"/>
      <point x="254" y="450"/>
      <point x="232" y="425"/>
      <point x="187" y="425" type="curve" smooth="yes"/>
      <point x="141" y="425"/>
      <point x="87" y="434"/>
      <point x="87" y="434" type="curve"/>
      <point x="74" y="388" type="line"/>
      <point x="74" y="388"/>
      <point x="133" y="377"/>
      <point x="182" y="377" type="curve" smooth="yes"/>
      <point x="272" y="377"/>
      <point x="310" y="429"/>
      <point x="310" y="490" type="curve" smooth="yes"/>
      <point x="310" y="525"/>
      <point x="295" y="545"/>
      <point x="272" y="554" type="curve"/>
      <point x="309" y="570"/>
      <point x="331" y="598"/>
      <point x="331" y="638" type="curve" smooth="yes"/>
      <point x="331" y="683"/>
      <point x="304" y="710"/>
      <point x="246" y="710" type="curve" smooth="yes"/>
      <point x="202" y="710"/>
      <point x="144" y="700"/>
    </contour>
    <contour>
      <point x="621" y="710" type="line"/>
      <point x="44" y="13" type="line"/>
      <point x="71" y="-12" type="line"/>
      <point x="650" y="685" type="line"/>
    </contour>
    <contour>
      <point x="349" y="98" type="line"/>
      <point x="340" y="53" type="line"/>
      <point x="483" y="53" type="line"/>
      <point x="471" y="0" type="line"/>
      <point x="524" y="0" type="line"/>
      <point x="535" y="53" type="line"/>
      <point x="566" y="53" type="line"/>
      <point x="576" y="101" type="line"/>
      <point x="545" y="101" type="line"/>
      <point x="564" y="191" type="line"/>
      <point x="515" y="191" type="line"/>
      <point x="493" y="101" type="line"/>
      <point x="405" y="101" type="line"/>
      <point x="535" y="314" type="line"/>
      <point x="475" y="314" type="line"/>
    </contour>
  </outline>
</glyph>
<glyph name="questiondown" format="2">
  <advance width="419"/>
  <unicode hex="00BF"/>
  <note>
questiondown
</note>
  <outline>
    <contour>
      <point x="257" y="500" type="line"/>
      <point x="237" y="402" type="line"/>
      <point x="302" y="402" type="line"/>
      <point x="323" y="500" type="line"/>
    </contour>
    <contour>
      <point x="-34" y="-81" type="curve" smooth="yes"/>
      <point x="-34" y="-170"/>
      <point x="32" y="-212"/>
      <point x="133" y="-212" type="curve" smooth="yes"/>
      <point x="234" y="-212"/>
      <point x="310" y="-184"/>
      <point x="310" y="-184" type="curve"/>
      <point x="316" y="-133" type="line"/>
      <point x="316" y="-133"/>
      <point x="235" y="-158"/>
      <point x="149" y="-158" type="curve" smooth="yes"/>
      <point x="80" y="-158"/>
      <point x="28" y="-139"/>
      <point x="28" y="-75" type="curve" smooth="yes"/>
      <point x="28" y="7"/>
      <point x="86" y="50"/>
      <point x="152" y="99" type="curve" smooth="yes"/>
      <point x="213" y="144"/>
      <point x="279" y="192"/>
      <point x="282" y="264" type="curve" smooth="yes"/>
      <point x="283" y="282"/>
      <point x="282" y="298"/>
      <point x="282" y="298" type="curve"/>
      <point x="232" y="298" type="line"/>
      <point x="224" y="262" type="line" smooth="yes"/>
      <point x="213" y="213"/>
      <point x="170" y="177"/>
      <point x="104" y="129" type="curve" smooth="yes"/>
      <point x="10" y="61"/>
      <point x="-34" y="13"/>
    </contour>
  </outline>
</glyph>
<glyph name="Agrave" format="2">
  <advance width="575"/>
  <unicode hex="00C0"/>
  <note>
Agrave
</note>
  <outline>
    <contour>
      <point x="303" y="866" type="line"/>
      <point x="495" y="778" type="line"/>
      <point x="522" y="820" type="line"/>
      <point x="336" y="917" type="line"/>
    </contour>
    <contour>
      <point x="328" y="700" type="line"/>
      <point x="-28" y="0" type="line"/>
      <point x="35" y="0" type="line"/>
      <point x="133" y="198" type="line"/>
      <point x="420" y="198" type="line"/>
      <point x="434" y="0" type="line"/>
      <point x="493" y="0" type="line"/>
      <point x="443" y="700" type="line"/>
    </contour>
    <contour>
      <point x="417" y="253" type="line"/>
      <point x="162" y="253" type="line"/>
      <point x="358" y="642" type="line"/>
      <point x="388" y="642" type="line"/>
    </contour>
  </outline>
</glyph>
<glyph name="Aacute" format="2">
  <advance width="575"/>
  <unicode hex="00C1"/>
  <note>
Aacute
</note>
  <outline>
    <contour>
      <point x="522" y="866" type="line"/>
      <point x="494" y="917" type="line"/>
      <point x="308" y="820" type="line"/>
      <point x="330" y="778" type="line"/>
    </contour>
    <contour>
      <point x="328" y="700" type="line"/>
      <point x="-28" y="0" type="line"/>
      <point x="35" y="0" type="line"/>
      <point x="133" y="198" type="line"/>
      <point x="420" y="198" type="line"/>
      <point x="434" y="0" type="line"/>
      <point x="493" y="0" type="line"/>
      <point x="443" y="700" type="line"/>
    </contour>
    <contour>
      <point x="417" y="253" type="line"/>
      <point x="162" y="253" type="line"/>
      <point x="358" y="642" type="line"/>
      <point x="388" y="642" type="line"/>
    </contour>
  </outline>
</glyph>
<glyph name="Acircumflex" format="2">
  <advance width="575"/>
  <unicode hex="00C2"/>
  <note>
Acircumflex
</note>
  <outline>
    <contour>
      <point x="254" y="783" type="line"/>
      <point x="321" y="783" type="line"/>
      <point x="422" y="869" type="line"/>
      <point x="485" y="783" type="line"/>
      <point x="543" y="783" type="line"/>
      <point x="454" y="912" type="line"/>
      <point x="397" y="912" type="line"/>
    </contour>
    <contour>
      <point x="328" y="700" type="line"/>
      <point x="-28" y="0" type="line"/>
      <point x="35" y="0" type="line"/>
      <point x="133" y="198" type="line"/>
      <point x="420" y="198" type="line"/>
      <point x="434" y="0" type="line"/>
      <point x="493" y="0" type="line"/>
      <point x="443" y="700" type="line"/>
    </contour>
    <contour>
      <point x="417" y="253" type="line"/>
      <point x="162" y="253" type="line"/>
      <point x="358" y="642" type="line"/>
      <point x="388" y="642" type="line"/>
    </contour>
  </outline>
</glyph>
<glyph name="Atilde" format="2">
  <advance width="575"/>
  <unicode hex="00C3"/>
  <note>
Atilde
</note>
  <outline>
    <contour>
      <point x="577" y="856" type="curve"/>
      <point x="559" y="888" type="line"/>
      <point x="559" y="888"/>
      <point x="504" y="849"/>
      <point x="485" y="849" type="curve" smooth="yes"/>
      <point x="454" y="849"/>
      <point x="392" y="897"/>
      <point x="352" y="897" type="curve" smooth="yes"/>
      <point x="314" y="897"/>
      <point x="242" y="839"/>
      <point x="242" y="839" type="curve"/>
      <point x="261" y="807" type="line"/>
      <point x="261" y="807"/>
      <point x="319" y="849"/>
      <point x="341" y="849" type="curve" smooth="yes"/>
      <point x="373" y="849"/>
      <point x="433" y="799"/>
      <point x="473" y="799" type="curve" smooth="yes"/>
      <point x="510" y="799"/>
      <point x="569" y="850"/>
    </contour>
    <contour>
      <point x="328" y="700" type="line"/>
      <point x="-28" y="0" type="line"/>
      <point x="35" y="0" type="line"/>
      <point x="133" y="198" type="line"/>
      <point x="420" y="198" type="line"/>
      <point x="434" y="0" type="line"/>
      <point x="493" y="0" type="line"/>
      <point x="443" y="700" type="line"/>
    </contour>
    <contour>
      <point x="417" y="253" type="line"/>
      <point x="162" y="253" type="line"/>
      <point x="358" y="642" type="line"/>
      <point x="388" y="642" type="line"/>
    </contour>
  </outline>
</glyph>
<glyph name="Adieresis" format="2">
  <advance width="575"/>
  <unicode hex="00C4"/>
  <note>
Adieresis
</note>
  <outline>
    <contour>
      <point x="335" y="811" type="line"/>
      <point x="351" y="887" type="line"/>
      <point x="292" y="887" type="line"/>
      <point x="276" y="811" type="line"/>
    </contour>
    <contour>
      <point x="328" y="700" type="line"/>
      <point x="-28" y="0" type="line"/>
      <point x="35" y="0" type="line"/>
      <point x="133" y="198" type="line"/>
      <point x="420" y="198" type="line"/>
      <point x="434" y="0" type="line"/>
      <point x="493" y="0" type="line"/>
      <point x="443" y="700" type="line"/>
    </contour>
    <contour>
      <point x="417" y="253" type="line"/>
      <point x="162" y="253" type="line"/>
      <point x="358" y="642" type="line"/>
      <point x="388" y="642" type="line"/>
    </contour>
    <contour>
      <point x="486" y="887" type="line"/>
      <point x="470" y="811" type="line"/>
      <point x="530" y="811" type="line"/>
      <point x="546" y="887" type="line"/>
    </contour>
  </outline>
</glyph>
<glyph name="Aring" format="2">
  <advance width="575"/>
  <unicode hex="00C5"/>
  <note>
Aring
</note>
  <outline>
    <contour>
      <point x="310" y="832" type="curve" smooth="yes"/>
      <point x="310" y="786"/>
      <point x="345" y="749"/>
      <point x="400" y="749" type="curve" smooth="yes"/>
      <point x="465" y="749"/>
      <point x="517" y="799"/>
      <point x="517" y="866" type="curve" smooth="yes"/>
      <point x="517" y="911"/>
      <point x="480" y="948"/>
      <point x="430" y="948" type="curve" smooth="yes"/>
      <point x="365" y="948"/>
      <point x="310" y="899"/>
    </contour>
    <contour>
      <point x="328" y="700" type="line"/>
      <point x="-28" y="0" type="line"/>
      <point x="35" y="0" type="line"/>
      <point x="133" y="198" type="line"/>
      <point x="420" y="198" type="line"/>
      <point x="434" y="0" type="line"/>
      <point x="493" y="0" type="line"/>
      <point x="443" y="700" type="line"/>
    </contour>
    <contour>
      <point x="417" y="253" type="line"/>
      <point x="162" y="253" type="line"/>
      <point x="358" y="642" type="line"/>
      <point x="388" y="642" type="line"/>
    </contour>
    <contour>
      <point x="357" y="835" type="curve" smooth="yes"/>
      <point x="357" y="876"/>
      <point x="389" y="906"/>
      <point x="426" y="906" type="curve" smooth="yes"/>
      <point x="453" y="906"/>
      <point x="471" y="889"/>
      <point x="471" y="863" type="curve" smooth="yes"/>
      <point x="471" y="822"/>
      <point x="439" y="791"/>
      <point x="402" y="791" type="curve" smooth="yes"/>
      <point x="375" y="791"/>
      <point x="357" y="809"/>
    </contour>
  </outline>
</glyph>
<glyph name="Ccedilla" format="2">
  <advance width="520"/>
  <unicode hex="00C7"/>
  <note>
Ccedilla
</note>
  <outline>
    <contour>
      <point x="325" y="-115" type="curve" smooth="yes"/>
      <point x="325" y="-71"/>
      <point x="293" y="-52"/>
      <point x="238" y="-52" type="curve"/>
      <point x="254" y="-10" type="line"/>
      <point x="263" y="-10" type="line" smooth="yes"/>
      <point x="326" y="-10"/>
      <point x="379" y="1"/>
      <point x="430" y="11" type="curve"/>
      <point x="438" y="65" type="line"/>
      <point x="387" y="55"/>
      <point x="331" y="45"/>
      <point x="275" y="45" type="curve" smooth="yes"/>
      <point x="161" y="45"/>
      <point x="124" y="82"/>
      <point x="124" y="191" type="curve" smooth="yes"/>
      <point x="124" y="348"/>
      <point x="198" y="655"/>
      <point x="411" y="655" type="curve" smooth="yes"/>
      <point x="457" y="655"/>
      <point x="522" y="642"/>
      <point x="564" y="632" type="curve"/>
      <point x="578" y="685" type="line"/>
      <point x="536" y="696"/>
      <point x="475" y="710"/>
      <point x="417" y="710" type="curve" smooth="yes"/>
      <point x="141" y="710"/>
      <point x="60" y="379"/>
      <point x="60" y="191" type="curve" smooth="yes"/>
      <point x="60" y="63"/>
      <point x="105" y="4"/>
      <point x="218" y="-8" type="curve"/>
      <point x="185" y="-90" type="line"/>
      <point x="231" y="-90" type="line" smooth="yes"/>
      <point x="258" y="-90"/>
      <point x="269" y="-99"/>
      <point x="269" y="-120" type="curve" smooth="yes"/>
      <point x="269" y="-151"/>
      <point x="251" y="-168"/>
      <point x="214" y="-168" type="curve" smooth="yes"/>
      <point x="184" y="-168"/>
      <point x="141" y="-165"/>
      <point x="141" y="-165" type="curve"/>
      <point x="130" y="-205" type="line"/>
      <point x="130" y="-205"/>
      <point x="172" y="-211"/>
      <point x="216" y="-211" type="curve" smooth="yes"/>
      <point x="294" y="-211"/>
      <point x="325" y="-166"/>
    </contour>
  </outline>
</glyph>
<glyph name="Egrave" format="2">
  <advance width="524"/>
  <unicode hex="00C8"/>
  <note>
Egrave
</note>
  <outline>
    <contour>
      <point x="296" y="866" type="line"/>
      <point x="487" y="778" type="line"/>
      <point x="514" y="820" type="line"/>
      <point x="329" y="917" type="line"/>
    </contour>
    <contour>
      <point x="184" y="700" type="line"/>
      <point x="35" y="0" type="line"/>
      <point x="424" y="0" type="line"/>
      <point x="435" y="55" type="line"/>
      <point x="107" y="55" type="line"/>
      <point x="166" y="330" type="line"/>
      <point x="436" y="330" type="line"/>
      <point x="447" y="384" type="line"/>
      <point x="177" y="384" type="line"/>
      <point x="233" y="645" type="line"/>
      <point x="562" y="645" type="line"/>
      <point x="574" y="700" type="line"/>
    </contour>
  </outline>
</glyph>
<glyph name="Eacute" format="2">
  <advance width="524"/>
  <unicode hex="00C9"/>
  <note>
Eacute
</note>
  <outline>
    <contour>
      <point x="514" y="866" type="line"/>
      <point x="486" y="917" type="line"/>
      <point x="301" y="820" type="line"/>
      <point x="323" y="778" type="line"/>
    </contour>
    <contour>
      <point x="184" y="700" type="line"/>
      <point x="35" y="0" type="line"/>
      <point x="424" y="0" type="line"/>
      <point x="435" y="55" type="line"/>
      <point x="107" y="55" type="line"/>
      <point x="166" y="330" type="line"/>
      <point x="436" y="330" type="line"/>
      <point x="447" y="384" type="line"/>
      <point x="177" y="384" type="line"/>
      <point x="233" y="645" type="line"/>
      <point x="562" y="645" type="line"/>
      <point x="574" y="700" type="line"/>
    </contour>
  </outline>
</glyph>
<glyph name="Ecircumflex" format="2">
  <advance width="524"/>
  <unicode hex="00CA"/>
  <note>
Ecircumflex
</note>
  <outline>
    <contour>
      <point x="246" y="783" type="line"/>
      <point x="314" y="783" type="line"/>
      <point x="414" y="869" type="line"/>
      <point x="478" y="783" type="line"/>
      <point x="535" y="783" type="line"/>
      <point x="447" y="912" type="line"/>
      <point x="390" y="912" type="line"/>
    </contour>
    <contour>
      <point x="184" y="700" type="line"/>
      <point x="35" y="0" type="line"/>
      <point x="424" y="0" type="line"/>
      <point x="435" y="55" type="line"/>
      <point x="107" y="55" type="line"/>
      <point x="166" y="330" type="line"/>
      <point x="436" y="330" type="line"/>
      <point x="447" y="384" type="line"/>
      <point x="177" y="384" type="line"/>
      <point x="233" y="645" type="line"/>
      <point x="562" y="645" type="line"/>
      <point x="574" y="700" type="line"/>
    </contour>
  </outline>
</glyph>
<glyph name="Edieresis" format="2">
  <advance width="524"/>
  <unicode hex="00CB"/>
  <note>
Edieresis
</note>
  <outline>
    <contour>
      <point x="328" y="811" type="line"/>
      <point x="343" y="887" type="line"/>
      <point x="284" y="887" type="line"/>
      <point x="268" y="811" type="line"/>
    </contour>
    <contour>
      <point x="184" y="700" type="line"/>
      <point x="35" y="0" type="line"/>
      <point x="424" y="0" type="line"/>
      <point x="435" y="55" type="line"/>
      <point x="107" y="55" type="line"/>
      <point x="166" y="330" type="line"/>
      <point x="436" y="330" type="line"/>
      <point x="447" y="384" type="line"/>
      <point x="177" y="384" type="line"/>
      <point x="233" y="645" type="line"/>
      <point x="562" y="645" type="line"/>
      <point x="574" y="700" type="line"/>
    </contour>
    <contour>
      <point x="478" y="887" type="line"/>
      <point x="462" y="811" type="line"/>
      <point x="523" y="811" type="line"/>
      <point x="538" y="887" type="line"/>
    </contour>
  </outline>
</glyph>
<glyph name="Igrave" format="2">
  <advance width="237"/>
  <unicode hex="00CC"/>
  <note>
Igrave
</note>
  <outline>
    <contour>
      <point x="135" y="866" type="line"/>
      <point x="327" y="778" type="line"/>
      <point x="354" y="820" type="line"/>
      <point x="168" y="917" type="line"/>
    </contour>
    <contour>
      <point x="184" y="700" type="line"/>
      <point x="35" y="0" type="line"/>
      <point x="96" y="0" type="line"/>
      <point x="245" y="700" type="line"/>
    </contour>
  </outline>
</glyph>
<glyph name="Iacute" format="2">
  <advance width="237"/>
  <unicode hex="00CD"/>
  <note>
Iacute
</note>
  <outline>
    <contour>
      <point x="354" y="866" type="line"/>
      <point x="325" y="917" type="line"/>
      <point x="140" y="820" type="line"/>
      <point x="162" y="778" type="line"/>
    </contour>
    <contour>
      <point x="184" y="700" type="line"/>
      <point x="35" y="0" type="line"/>
      <point x="96" y="0" type="line"/>
      <point x="245" y="700" type="line"/>
    </contour>
  </outline>
</glyph>
<glyph name="Icircumflex" format="2">
  <advance width="237"/>
  <unicode hex="00CE"/>
  <note>
Icircumflex
</note>
  <outline>
    <contour>
      <point x="85" y="783" type="line"/>
      <point x="153" y="783" type="line"/>
      <point x="253" y="869" type="line"/>
      <point x="317" y="783" type="line"/>
      <point x="374" y="783" type="line"/>
      <point x="286" y="912" type="line"/>
      <point x="229" y="912" type="line"/>
    </contour>
    <contour>
      <point x="184" y="700" type="line"/>
      <point x="35" y="0" type="line"/>
      <point x="96" y="0" type="line"/>
      <point x="245" y="700" type="line"/>
    </contour>
  </outline>
</glyph>
<glyph name="Idieresis" format="2">
  <advance width="237"/>
  <unicode hex="00CF"/>
  <note>
Idieresis
</note>
  <outline>
    <contour>
      <point x="167" y="811" type="line"/>
      <point x="183" y="887" type="line"/>
      <point x="123" y="887" type="line"/>
      <point x="107" y="811" type="line"/>
    </contour>
    <contour>
      <point x="184" y="700" type="line"/>
      <point x="35" y="0" type="line"/>
      <point x="96" y="0" type="line"/>
      <point x="245" y="700" type="line"/>
    </contour>
    <contour>
      <point x="317" y="887" type="line"/>
      <point x="301" y="811" type="line"/>
      <point x="362" y="811" type="line"/>
      <point x="377" y="887" type="line"/>
    </contour>
  </outline>
</glyph>
<glyph name="Eth" format="2">
  <advance width="643"/>
  <unicode hex="00D0"/>
  <note>
Eth
</note>
  <outline>
    <contour>
      <point x="54" y="328" type="line"/>
      <point x="124" y="328" type="line"/>
      <point x="54" y="0" type="line"/>
      <point x="269" y="0" type="line" smooth="yes"/>
      <point x="516" y="0"/>
      <point x="623" y="270"/>
      <point x="623" y="491" type="curve" smooth="yes"/>
      <point x="623" y="616"/>
      <point x="580" y="700"/>
      <point x="417" y="700" type="curve" smooth="yes"/>
      <point x="203" y="700" type="line"/>
      <point x="136" y="382" type="line"/>
      <point x="66" y="382" type="line"/>
    </contour>
    <contour>
      <point x="276" y="55" type="curve" smooth="yes"/>
      <point x="127" y="55" type="line"/>
      <point x="185" y="328" type="line"/>
      <point x="388" y="328" type="line"/>
      <point x="399" y="382" type="line"/>
      <point x="196" y="382" type="line"/>
      <point x="252" y="645" type="line"/>
      <point x="417" y="645" type="line" smooth="yes"/>
      <point x="533" y="645"/>
      <point x="559" y="582"/>
      <point x="559" y="494" type="curve" smooth="yes"/>
      <point x="559" y="295"/>
      <point x="458" y="55"/>
    </contour>
  </outline>
</glyph>
<glyph name="Ntilde" format="2">
  <advance width="644"/>
  <unicode hex="00D1"/>
  <note>
Ntilde
</note>
  <outline>
    <contour>
      <point x="631" y="856" type="curve"/>
      <point x="612" y="888" type="line"/>
      <point x="612" y="888"/>
      <point x="558" y="849"/>
      <point x="538" y="849" type="curve" smooth="yes"/>
      <point x="507" y="849"/>
      <point x="446" y="897"/>
      <point x="406" y="897" type="curve" smooth="yes"/>
      <point x="368" y="897"/>
      <point x="296" y="839"/>
      <point x="296" y="839" type="curve"/>
      <point x="314" y="807" type="line"/>
      <point x="314" y="807"/>
      <point x="372" y="849"/>
      <point x="395" y="849" type="curve" smooth="yes"/>
      <point x="427" y="849"/>
      <point x="487" y="799"/>
      <point x="527" y="799" type="curve" smooth="yes"/>
      <point x="563" y="799"/>
      <point x="623" y="850"/>
    </contour>
    <contour>
      <point x="184" y="700" type="line"/>
      <point x="35" y="0" type="line"/>
      <point x="96" y="0" type="line"/>
      <point x="232" y="642" type="line"/>
      <point x="262" y="642" type="line"/>
      <point x="375" y="0" type="line"/>
      <point x="503" y="0" type="line"/>
      <point x="652" y="700" type="line"/>
      <point x="591" y="700" type="line"/>
      <point x="454" y="58" type="line"/>
      <point x="425" y="58" type="line"/>
      <point x="311" y="700" type="line"/>
    </contour>
  </outline>
</glyph>
<glyph name="Ograve" format="2">
  <advance width="648"/>
  <unicode hex="00D2"/>
  <note>
Ograve
</note>
  <outline>
    <contour>
      <point x="336" y="866" type="line"/>
      <point x="528" y="778" type="line"/>
      <point x="555" y="820" type="line"/>
      <point x="369" y="917" type="line"/>
    </contour>
    <contour>
      <point x="64" y="210" type="curve" smooth="yes"/>
      <point x="64" y="46"/>
      <point x="156" y="-9"/>
      <point x="278" y="-9" type="curve" smooth="yes"/>
      <point x="551" y="-9"/>
      <point x="626" y="301"/>
      <point x="626" y="488" type="curve" smooth="yes"/>
      <point x="626" y="660"/>
      <point x="526" y="709"/>
      <point x="414" y="709" type="curve" smooth="yes"/>
      <point x="142" y="709"/>
      <point x="64" y="403"/>
    </contour>
    <contour>
      <point x="128" y="201" type="curve" smooth="yes"/>
      <point x="128" y="353"/>
      <point x="189" y="653"/>
      <point x="403" y="653" type="curve" smooth="yes"/>
      <point x="485" y="653"/>
      <point x="564" y="624"/>
      <point x="564" y="491" type="curve" smooth="yes"/>
      <point x="564" y="340"/>
      <point x="496" y="47"/>
      <point x="286" y="47" type="curve" smooth="yes"/>
      <point x="204" y="47"/>
      <point x="128" y="75"/>
    </contour>
  </outline>
</glyph>
<glyph name="Ocircumflex" format="2">
  <advance width="648"/>
  <unicode hex="00D4"/>
  <note>
Ocircumflex
</note>
  <outline>
    <contour>
      <point x="286" y="783" type="line"/>
      <point x="354" y="783" type="line"/>
      <point x="455" y="869" type="line"/>
      <point x="518" y="783" type="line"/>
      <point x="576" y="783" type="line"/>
      <point x="487" y="912" type="line"/>
      <point x="430" y="912" type="line"/>
    </contour>
    <contour>
      <point x="64" y="210" type="curve" smooth="yes"/>
      <point x="64" y="46"/>
      <point x="156" y="-9"/>
      <point x="278" y="-9" type="curve" smooth="yes"/>
      <point x="551" y="-9"/>
      <point x="626" y="301"/>
      <point x="626" y="488" type="curve" smooth="yes"/>
      <point x="626" y="660"/>
      <point x="526" y="709"/>
      <point x="414" y="709" type="curve" smooth="yes"/>
      <point x="142" y="709"/>
      <point x="64" y="403"/>
    </contour>
    <contour>
      <point x="128" y="201" type="curve" smooth="yes"/>
      <point x="128" y="353"/>
      <point x="189" y="653"/>
      <point x="403" y="653" type="curve" smooth="yes"/>
      <point x="485" y="653"/>
      <point x="564" y="624"/>
      <point x="564" y="491" type="curve" smooth="yes"/>
      <point x="564" y="340"/>
      <point x="496" y="47"/>
      <point x="286" y="47" type="curve" smooth="yes"/>
      <point x="204" y="47"/>
      <point x="128" y="75"/>
    </contour>
  </outline>
</glyph>
<glyph name="Otilde" format="2">
  <advance width="648"/>
  <unicode hex="00D5"/>
  <note>
Otilde
</note>
  <outline>
    <contour>
      <point x="610" y="856" type="curve"/>
      <point x="592" y="888" type="line"/>
      <point x="592" y="888"/>
      <point x="537" y="849"/>
      <point x="517" y="849" type="curve" smooth="yes"/>
      <point x="487" y="849"/>
      <point x="425" y="897"/>
      <point x="385" y="897" type="curve" smooth="yes"/>
      <point x="347" y="897"/>
      <point x="275" y="839"/>
      <point x="275" y="839" type="curve"/>
      <point x="293" y="807" type="line"/>
      <point x="293" y="807"/>
      <point x="351" y="849"/>
      <point x="374" y="849" type="curve" smooth="yes"/>
      <point x="406" y="849"/>
      <point x="466" y="799"/>
      <point x="506" y="799" type="curve" smooth="yes"/>
      <point x="542" y="799"/>
      <point x="602" y="850"/>
    </contour>
    <contour>
      <point x="64" y="210" type="curve" smooth="yes"/>
      <point x="64" y="46"/>
      <point x="156" y="-9"/>
      <point x="278" y="-9" type="curve" smooth="yes"/>
      <point x="551" y="-9"/>
      <point x="626" y="301"/>
      <point x="626" y="488" type="curve" smooth="yes"/>
      <point x="626" y="660"/>
      <point x="526" y="709"/>
      <point x="414" y="709" type="curve" smooth="yes"/>
      <point x="142" y="709"/>
      <point x="64" y="403"/>
    </contour>
    <contour>
      <point x="128" y="201" type="curve" smooth="yes"/>
      <point x="128" y="353"/>
      <point x="189" y="653"/>
      <point x="403" y="653" type="curve" smooth="yes"/>
      <point x="485" y="653"/>
      <point x="564" y="624"/>
      <point x="564" y="491" type="curve" smooth="yes"/>
      <point x="564" y="340"/>
      <point x="496" y="47"/>
      <point x="286" y="47" type="curve" smooth="yes"/>
      <point x="204" y="47"/>
      <point x="128" y="75"/>
    </contour>
  </outline>
</glyph>
<glyph name="multiply" format="2">
  <advance width="560"/>
  <unicode hex="00D7"/>
  <note>
multiply
</note>
  <outline>
    <contour>
      <point x="483" y="481" type="line"/>
      <point x="296" y="327" type="line"/>
      <point x="175" y="481" type="line"/>
      <point x="126" y="441" type="line"/>
      <point x="248" y="287" type="line"/>
      <point x="61" y="133" type="line"/>
      <point x="93" y="93" type="line"/>
      <point x="280" y="248" type="line"/>
      <point x="400" y="93" type="line"/>
      <point x="449" y="133" type="line"/>
      <point x="327" y="287" type="line"/>
      <point x="514" y="441" type="line"/>
    </contour>
  </outline>
</glyph>
<glyph name="Oslash" format="2">
  <advance width="648"/>
  <unicode hex="00D8"/>
  <note>
Oslash
</note>
  <outline>
    <contour>
      <point x="278" y="-9" type="curve" smooth="yes"/>
      <point x="551" y="-9"/>
      <point x="626" y="301"/>
      <point x="626" y="488" type="curve" smooth="yes"/>
      <point x="626" y="559"/>
      <point x="609" y="609"/>
      <point x="581" y="643" type="curve"/>
      <point x="637" y="722" type="line"/>
      <point x="599" y="748" type="line"/>
      <point x="547" y="674" type="line"/>
      <point x="510" y="700"/>
      <point x="463" y="709"/>
      <point x="414" y="709" type="curve" smooth="yes"/>
      <point x="142" y="709"/>
      <point x="64" y="403"/>
      <point x="64" y="210" type="curve" smooth="yes"/>
      <point x="64" y="141"/>
      <point x="81" y="91"/>
      <point x="109" y="57" type="curve"/>
      <point x="50" y="-27" type="line"/>
      <point x="88" y="-53" type="line"/>
      <point x="143" y="25" type="line"/>
      <point x="180" y="1"/>
      <point x="226" y="-9"/>
    </contour>
    <contour>
      <point x="128" y="201" type="curve" smooth="yes"/>
      <point x="128" y="353"/>
      <point x="189" y="653"/>
      <point x="403" y="653" type="curve" smooth="yes"/>
      <point x="442" y="653"/>
      <point x="481" y="647"/>
      <point x="511" y="625" type="curve"/>
      <point x="148" y="111" type="line"/>
      <point x="135" y="134"/>
      <point x="128" y="163"/>
    </contour>
    <contour>
      <point x="179" y="75" type="curve"/>
      <point x="542" y="588" type="line"/>
      <point x="556" y="564"/>
      <point x="564" y="533"/>
      <point x="564" y="491" type="curve" smooth="yes"/>
      <point x="564" y="340"/>
      <point x="496" y="47"/>
      <point x="286" y="47" type="curve" smooth="yes"/>
      <point x="246" y="47"/>
      <point x="207" y="54"/>
    </contour>
  </outline>
</glyph>
<glyph name="Ugrave" format="2">
  <advance width="628"/>
  <unicode hex="00D9"/>
  <note>
Ugrave
</note>
  <outline>
    <contour>
      <point x="327" y="866" type="line"/>
      <point x="519" y="778" type="line"/>
      <point x="546" y="820" type="line"/>
      <point x="360" y="917" type="line"/>
    </contour>
    <contour>
      <point x="179" y="700" type="line"/>
      <point x="76" y="217" type="line" smooth="yes"/>
      <point x="44" y="68"/>
      <point x="122" y="-10"/>
      <point x="278" y="-10" type="curve" smooth="yes"/>
      <point x="421" y="-10"/>
      <point x="501" y="42"/>
      <point x="534" y="198" type="curve" smooth="yes"/>
      <point x="641" y="700" type="line"/>
      <point x="580" y="700" type="line"/>
      <point x="474" y="203" type="line" smooth="yes"/>
      <point x="450" y="88"/>
      <point x="389" y="45"/>
      <point x="280" y="45" type="curve" smooth="yes"/>
      <point x="162" y="45"/>
      <point x="111" y="94"/>
      <point x="135" y="209" type="curve" smooth="yes"/>
      <point x="240" y="700" type="line"/>
    </contour>
  </outline>
</glyph>
<glyph name="Ucircumflex" format="2">
  <advance width="628"/>
  <unicode hex="00DB"/>
  <note>
Ucircumflex
</note>
  <outline>
    <contour>
      <point x="278" y="783" type="line"/>
      <point x="345" y="783" type="line"/>
      <point x="446" y="869" type="line"/>
      <point x="509" y="783" type="line"/>
      <point x="567" y="783" type="line"/>
      <point x="478" y="912" type="line"/>
      <point x="421" y="912" type="line"/>
    </contour>
    <contour>
      <point x="179" y="700" type="line"/>
      <point x="76" y="217" type="line" smooth="yes"/>
      <point x="44" y="68"/>
      <point x="122" y="-10"/>
      <point x="278" y="-10" type="curve" smooth="yes"/>
      <point x="421" y="-10"/>
      <point x="501" y="42"/>
      <point x="534" y="198" type="curve" smooth="yes"/>
      <point x="641" y="700" type="line"/>
      <point x="580" y="700" type="line"/>
      <point x="474" y="203" type="line" smooth="yes"/>
      <point x="450" y="88"/>
      <point x="389" y="45"/>
      <point x="280" y="45" type="curve" smooth="yes"/>
      <point x="162" y="45"/>
      <point x="111" y="94"/>
      <point x="135" y="209" type="curve" smooth="yes"/>
      <point x="240" y="700" type="line"/>
    </contour>
  </outline>
</glyph>
<glyph name="Udieresis" format="2">
  <advance width="628"/>
  <unicode hex="00DC"/>
  <note>
Udieresis
</note>
  <outline>
    <contour>
      <point x="359" y="811" type="line"/>
      <point x="375" y="887" type="line"/>
      <point x="316" y="887" type="line"/>
      <point x="300" y="811" type="line"/>
    </contour>
    <contour>
      <point x="179" y="700" type="line"/>
      <point x="76" y="217" type="line" smooth="yes"/>
      <point x="44" y="68"/>
      <point x="122" y="-10"/>
      <point x="278" y="-10" type="curve" smooth="yes"/>
      <point x="421" y="-10"/>
      <point x="501" y="42"/>
      <point x="534" y="198" type="curve" smooth="yes"/>
      <point x="641" y="700" type="line"/>
      <point x="580" y="700" type="line"/>
      <point x="474" y="203" type="line" smooth="yes"/>
      <point x="450" y="88"/>
      <point x="389" y="45"/>
      <point x="280" y="45" type="curve" smooth="yes"/>
      <point x="162" y="45"/>
      <point x="111" y="94"/>
      <point x="135" y="209" type="curve" smooth="yes"/>
      <point x="240" y="700" type="line"/>
    </contour>
    <contour>
      <point x="510" y="887" type="line"/>
      <point x="494" y="811" type="line"/>
      <point x="554" y="811" type="line"/>
      <point x="570" y="887" type="line"/>
    </contour>
  </outline>
</glyph>
<glyph name="Yacute" format="2">
  <advance width="523"/>
  <unicode hex="00DD"/>
  <note>
Yacute
</note>
  <outline>
    <contour>
      <point x="495" y="866" type="line"/>
      <point x="466" y="917" type="line"/>
      <point x="281" y="820" type="line"/>
      <point x="303" y="778" type="line"/>
    </contour>
    <contour>
      <point x="185" y="700" type="line"/>
      <point x="125" y="700" type="line"/>
      <point x="239" y="297" type="line"/>
      <point x="176" y="0" type="line"/>
      <point x="236" y="0" type="line"/>
      <point x="299" y="295" type="line"/>
      <point x="603" y="700" type="line"/>
      <point x="532" y="700" type="line"/>
      <point x="280" y="360" type="line"/>
    </contour>
  </outline>
</glyph>
<glyph name="Thorn" format="2">
  <advance width="584"/>
  <unicode hex="00DE"/>
  <note>
Thorn
</note>
  <outline>
    <contour>
      <point x="218" y="575" type="line"/>
      <point x="245" y="700" type="line"/>
      <point x="184" y="700" type="line"/>
      <point x="35" y="0" type="line"/>
      <point x="96" y="0" type="line"/>
      <point x="130" y="158" type="line"/>
      <point x="296" y="158" type="line" smooth="yes"/>
      <point x="490" y="158"/>
      <point x="565" y="285"/>
      <point x="565" y="415" type="curve" smooth="yes"/>
      <point x="565" y="509"/>
      <point x="510" y="575"/>
      <point x="386" y="575" type="curve" smooth="yes"/>
    </contour>
    <contour>
      <point x="305" y="212" type="curve" smooth="yes"/>
      <point x="141" y="212" type="line"/>
      <point x="207" y="521" type="line"/>
      <point x="374" y="521" type="line" smooth="yes"/>
      <point x="463" y="521"/>
      <point x="500" y="486"/>
      <point x="500" y="414" type="curve" smooth="yes"/>
      <point x="500" y="317"/>
      <point x="444" y="212"/>
    </contour>
  </outline>
</glyph>
<glyph name="germandbls" format="2">
  <advance width="548"/>
  <unicode hex="00DF"/>
  <note>
germandbls
</note>
  <outline>
    <contour>
      <point x="139" y="552" type="curve" smooth="yes"/>
      <point x="22" y="0" type="line"/>
      <point x="82" y="0" type="line"/>
      <point x="197" y="539" type="line" smooth="yes"/>
      <point x="219" y="643"/>
      <point x="269" y="686"/>
      <point x="354" y="686" type="curve" smooth="yes"/>
      <point x="416" y="686"/>
      <point x="445" y="660"/>
      <point x="445" y="620" type="curve" smooth="yes"/>
      <point x="445" y="576"/>
      <point x="417" y="551"/>
      <point x="369" y="519" type="curve" smooth="yes"/>
      <point x="306" y="477"/>
      <point x="258" y="443"/>
      <point x="258" y="381" type="curve" smooth="yes"/>
      <point x="258" y="344"/>
      <point x="277" y="322"/>
      <point x="320" y="294" type="curve" smooth="yes"/>
      <point x="384" y="250" type="line" smooth="yes"/>
      <point x="421" y="226"/>
      <point x="433" y="203"/>
      <point x="433" y="168" type="curve" smooth="yes"/>
      <point x="433" y="96"/>
      <point x="383" y="45"/>
      <point x="285" y="45" type="curve" smooth="yes"/>
      <point x="235" y="45"/>
      <point x="163" y="55"/>
      <point x="163" y="55" type="curve"/>
      <point x="149" y="3" type="line"/>
      <point x="149" y="3"/>
      <point x="212" y="-10"/>
      <point x="275" y="-10" type="curve" smooth="yes"/>
      <point x="440" y="-10"/>
      <point x="499" y="89"/>
      <point x="499" y="181" type="curve" smooth="yes"/>
      <point x="499" y="231"/>
      <point x="481" y="266"/>
      <point x="437" y="295" type="curve" smooth="yes"/>
      <point x="356" y="349" type="line" smooth="yes"/>
      <point x="332" y="364"/>
      <point x="319" y="375"/>
      <point x="319" y="394" type="curve" smooth="yes"/>
      <point x="319" y="424"/>
      <point x="344" y="443"/>
      <point x="406" y="480" type="curve" smooth="yes"/>
      <point x="475" y="522"/>
      <point x="510" y="569"/>
      <point x="510" y="628" type="curve" smooth="yes"/>
      <point x="510" y="691"/>
      <point x="459" y="740"/>
      <point x="357" y="740" type="curve" smooth="yes"/>
      <point x="246" y="740"/>
      <point x="170" y="694"/>
    </contour>
  </outline>
</glyph>
<glyph name="atilde" format="2">
  <advance width="501"/>
  <unicode hex="00E3"/>
  <note>
atilde
</note>
  <outline>
    <contour>
      <point x="517" y="676" type="curve"/>
      <point x="499" y="708" type="line"/>
      <point x="499" y="708"/>
      <point x="444" y="669"/>
      <point x="425" y="669" type="curve" smooth="yes"/>
      <point x="394" y="669"/>
      <point x="332" y="717"/>
      <point x="292" y="717" type="curve" smooth="yes"/>
      <point x="254" y="717"/>
      <point x="183" y="659"/>
      <point x="183" y="659" type="curve"/>
      <point x="201" y="627" type="line"/>
      <point x="201" y="627"/>
      <point x="259" y="669"/>
      <point x="281" y="669" type="curve" smooth="yes"/>
      <point x="313" y="669"/>
      <point x="373" y="619"/>
      <point x="413" y="619" type="curve" smooth="yes"/>
      <point x="450" y="619"/>
      <point x="509" y="670"/>
    </contour>
    <contour>
      <point x="37" y="139" type="curve" smooth="yes"/>
      <point x="37" y="41"/>
      <point x="79" y="-11"/>
      <point x="153" y="-11" type="curve" smooth="yes"/>
      <point x="255" y="-11"/>
      <point x="339" y="106"/>
      <point x="339" y="106" type="curve"/>
      <point x="334" y="89"/>
      <point x="320" y="0"/>
      <point x="320" y="0" type="curve"/>
      <point x="377" y="0" type="line"/>
      <point x="377" y="0"/>
      <point x="391" y="98"/>
      <point x="405" y="161" type="curve" smooth="yes"/>
      <point x="479" y="489" type="line"/>
      <point x="479" y="489"/>
      <point x="348" y="512"/>
      <point x="288" y="512" type="curve" smooth="yes"/>
      <point x="122" y="512"/>
      <point x="37" y="293"/>
    </contour>
    <contour>
      <point x="97" y="139" type="curve" smooth="yes"/>
      <point x="97" y="265"/>
      <point x="163" y="460"/>
      <point x="288" y="460" type="curve" smooth="yes"/>
      <point x="341" y="460"/>
      <point x="411" y="446"/>
      <point x="411" y="446" type="curve"/>
      <point x="351" y="181" type="line"/>
      <point x="351" y="181"/>
      <point x="261" y="45"/>
      <point x="172" y="45" type="curve" smooth="yes"/>
      <point x="126" y="45"/>
      <point x="97" y="74"/>
    </contour>
  </outline>
</glyph>
<glyph name="aring" format="2">
  <advance width="501"/>
  <unicode hex="00E5"/>
  <note>
aring
</note>
  <outline>
    <contour>
      <point x="248" y="632" type="curve" smooth="yes"/>
      <point x="248" y="585"/>
      <point x="285" y="549"/>
      <point x="337" y="549" type="curve" smooth="yes"/>
      <point x="403" y="549"/>
      <point x="455" y="601"/>
      <point x="455" y="663" type="curve" smooth="yes"/>
      <point x="455" y="712"/>
      <point x="418" y="748"/>
      <point x="364" y="748" type="curve" smooth="yes"/>
      <point x="301" y="748"/>
      <point x="248" y="696"/>
    </contour>
    <contour>
      <point x="37" y="139" type="curve" smooth="yes"/>
      <point x="37" y="41"/>
      <point x="79" y="-11"/>
      <point x="153" y="-11" type="curve" smooth="yes"/>
      <point x="255" y="-11"/>
      <point x="339" y="106"/>
      <point x="339" y="106" type="curve"/>
      <point x="334" y="89"/>
      <point x="320" y="0"/>
      <point x="320" y="0" type="curve"/>
      <point x="377" y="0" type="line"/>
      <point x="377" y="0"/>
      <point x="391" y="98"/>
      <point x="405" y="161" type="curve" smooth="yes"/>
      <point x="479" y="489" type="line"/>
      <point x="479" y="489"/>
      <point x="348" y="512"/>
      <point x="288" y="512" type="curve" smooth="yes"/>
      <point x="122" y="512"/>
      <point x="37" y="293"/>
    </contour>
    <contour>
      <point x="97" y="139" type="curve" smooth="yes"/>
      <point x="97" y="265"/>
      <point x="163" y="460"/>
      <point x="288" y="460" type="curve" smooth="yes"/>
      <point x="341" y="460"/>
      <point x="411" y="446"/>
      <point x="411" y="446" type="curve"/>
      <point x="351" y="181" type="line"/>
      <point x="351" y="181"/>
      <point x="261" y="45"/>
      <point x="172" y="45" type="curve" smooth="yes"/>
      <point x="126" y="45"/>
      <point x="97" y="74"/>
    </contour>
    <contour>
      <point x="292" y="636" type="curve" smooth="yes"/>
      <point x="292" y="677"/>
      <point x="326" y="708"/>
      <point x="364" y="708" type="curve" smooth="yes"/>
      <point x="392" y="708"/>
      <point x="411" y="690"/>
      <point x="411" y="661" type="curve" smooth="yes"/>
      <point x="411" y="621"/>
      <point x="378" y="589"/>
      <point x="339" y="589" type="curve" smooth="yes"/>
      <point x="311" y="589"/>
      <point x="292" y="608"/>
    </contour>
  </outline>
</glyph>
<glyph name="ccedilla" format="2">
  <advance width="414"/>
  <unicode hex="00E7"/>
  <note>
ccedilla
</note>
  <outline>
    <contour>
      <point x="269" y="-115" type="curve" smooth="yes"/>
      <point x="269" y="-71"/>
      <point x="237" y="-52"/>
      <point x="182" y="-52" type="curve"/>
      <point x="198" y="-11" type="line"/>
      <point x="261" y="-9"/>
      <point x="322" y="5"/>
      <point x="322" y="5" type="curve"/>
      <point x="329" y="56" type="line"/>
      <point x="329" y="56"/>
      <point x="254" y="42"/>
      <point x="194" y="42" type="curve" smooth="yes"/>
      <point x="130" y="42"/>
      <point x="99" y="64"/>
      <point x="99" y="152" type="curve" smooth="yes"/>
      <point x="99" y="250"/>
      <point x="143" y="459"/>
      <point x="304" y="459" type="curve" smooth="yes"/>
      <point x="348" y="459"/>
      <point x="412" y="449"/>
      <point x="412" y="449" type="curve"/>
      <point x="427" y="498" type="line"/>
      <point x="427" y="498"/>
      <point x="351" y="512"/>
      <point x="303" y="512" type="curve" smooth="yes"/>
      <point x="105" y="512"/>
      <point x="39" y="278"/>
      <point x="39" y="151" type="curve" smooth="yes"/>
      <point x="39" y="41"/>
      <point x="82" y="-4"/>
      <point x="160" y="-10" type="curve"/>
      <point x="129" y="-90" type="line"/>
      <point x="175" y="-90" type="line" smooth="yes"/>
      <point x="201" y="-90"/>
      <point x="213" y="-99"/>
      <point x="213" y="-120" type="curve" smooth="yes"/>
      <point x="213" y="-151"/>
      <point x="194" y="-168"/>
      <point x="157" y="-168" type="curve" smooth="yes"/>
      <point x="128" y="-168"/>
      <point x="85" y="-165"/>
      <point x="85" y="-165" type="curve"/>
      <point x="74" y="-205" type="line"/>
      <point x="74" y="-205"/>
      <point x="116" y="-211"/>
      <point x="160" y="-211" type="curve" smooth="yes"/>
      <point x="238" y="-211"/>
      <point x="269" y="-166"/>
    </contour>
  </outline>
</glyph>
<glyph name="egrave" format="2">
  <advance width="465"/>
  <unicode hex="00E8"/>
  <note>
egrave
</note>
  <outline>
    <contour>
      <point x="213" y="686" type="line"/>
      <point x="404" y="598" type="line"/>
      <point x="426" y="640" type="line"/>
      <point x="241" y="737" type="line"/>
    </contour>
    <contour>
      <point x="40" y="153" type="curve" smooth="yes"/>
      <point x="40" y="37"/>
      <point x="94" y="-11"/>
      <point x="191" y="-11" type="curve" smooth="yes"/>
      <point x="277" y="-11"/>
      <point x="359" y="14"/>
      <point x="359" y="14" type="curve"/>
      <point x="366" y="68" type="line"/>
      <point x="366" y="68"/>
      <point x="279" y="42"/>
      <point x="205" y="42" type="curve" smooth="yes"/>
      <point x="132" y="42"/>
      <point x="100" y="71"/>
      <point x="100" y="146" type="curve" smooth="yes"/>
      <point x="100" y="172"/>
      <point x="101" y="211"/>
      <point x="108" y="240" type="curve"/>
      <point x="204" y="241" type="line" smooth="yes"/>
      <point x="363" y="242"/>
      <point x="449" y="276"/>
      <point x="449" y="391" type="curve" smooth="yes"/>
      <point x="449" y="477"/>
      <point x="391" y="512"/>
      <point x="308" y="512" type="curve" smooth="yes"/>
      <point x="118" y="512"/>
      <point x="40" y="317"/>
    </contour>
    <contour>
      <point x="198" y="291" type="curve" smooth="yes"/>
      <point x="119" y="289" type="line"/>
      <point x="148" y="394"/>
      <point x="206" y="460"/>
      <point x="302" y="460" type="curve" smooth="yes"/>
      <point x="360" y="460"/>
      <point x="389" y="436"/>
      <point x="389" y="388" type="curve" smooth="yes"/>
      <point x="389" y="307"/>
      <point x="320" y="293"/>
    </contour>
  </outline>
</glyph>
<glyph name="igrave" format="2">
  <advance width="210"/>
  <unicode hex="00EC"/>
  <note>
igrave
</note>
  <outline>
    <contour>
      <point x="79" y="686" type="line"/>
      <point x="271" y="598" type="line"/>
      <point x="293" y="640" type="line"/>
      <point x="107" y="737" type="line"/>
    </contour>
    <contour>
      <point x="129" y="500" type="line"/>
      <point x="22" y="0" type="line"/>
      <point x="82" y="0" type="line"/>
      <point x="188" y="500" type="line"/>
    </contour>
  </outline>
</glyph>
<glyph name="iacute" format="2">
  <advance width="210"/>
  <unicode hex="00ED"/>
  <note>
iacute
</note>
  <outline>
    <contour>
      <point x="318" y="686" type="line"/>
      <point x="299" y="737" type="line"/>
      <point x="73" y="640" type="line"/>
      <point x="90" y="598" type="line"/>
    </contour>
    <contour>
      <point x="129" y="500" type="line"/>
      <point x="22" y="0" type="line"/>
      <point x="82" y="0" type="line"/>
      <point x="188" y="500" type="line"/>
    </contour>
  </outline>
</glyph>
<glyph name="icircumflex" format="2">
  <advance width="210"/>
  <unicode hex="00EE"/>
  <note>
icircumflex
</note>
  <outline>
    <contour>
      <point x="33" y="603" type="line"/>
      <point x="101" y="603" type="line"/>
      <point x="202" y="688" type="line"/>
      <point x="265" y="603" type="line"/>
      <point x="322" y="603" type="line"/>
      <point x="233" y="732" type="line"/>
      <point x="176" y="732" type="line"/>
    </contour>
    <contour>
      <point x="129" y="500" type="line"/>
      <point x="22" y="0" type="line"/>
      <point x="82" y="0" type="line"/>
      <point x="188" y="500" type="line"/>
    </contour>
  </outline>
</glyph>
<glyph name="idieresis" format="2">
  <advance width="210"/>
  <unicode hex="00EF"/>
  <note>
idieresis
</note>
  <outline>
    <contour>
      <point x="112" y="631" type="line"/>
      <point x="128" y="707" type="line"/>
      <point x="69" y="707" type="line"/>
      <point x="54" y="631" type="line"/>
    </contour>
    <contour>
      <point x="129" y="500" type="line"/>
      <point x="22" y="0" type="line"/>
      <point x="82" y="0" type="line"/>
      <point x="188" y="500" type="line"/>
    </contour>
    <contour>
      <point x="264" y="707" type="line"/>
      <point x="248" y="631" type="line"/>
      <point x="308" y="631" type="line"/>
      <point x="323" y="707" type="line"/>
    </contour>
  </outline>
</glyph>
<glyph name="eth" format="2">
  <advance width="561"/>
  <unicode hex="00F0"/>
  <note>
eth
</note>
  <outline>
    <contour>
      <point x="313" y="648" type="curve"/>
      <point x="200" y="581" type="line"/>
      <point x="220" y="542" type="line"/>
      <point x="358" y="622" type="line"/>
      <point x="447" y="560"/>
      <point x="469" y="481"/>
      <point x="461" y="375" type="curve"/>
      <point x="461" y="375"/>
      <point x="386" y="428"/>
      <point x="279" y="428" type="curve" smooth="yes"/>
      <point x="137" y="428"/>
      <point x="43" y="337"/>
      <point x="43" y="197" type="curve" smooth="yes"/>
      <point x="43" y="69"/>
      <point x="127" y="-9"/>
      <point x="249" y="-9" type="curve" smooth="yes"/>
      <point x="461" y="-9"/>
      <point x="523" y="222"/>
      <point x="523" y="398" type="curve" smooth="yes"/>
      <point x="523" y="529"/>
      <point x="485" y="596"/>
      <point x="415" y="656" type="curve"/>
      <point x="509" y="712" type="line"/>
      <point x="488" y="751" type="line"/>
      <point x="373" y="682" type="line"/>
      <point x="330" y="706"/>
      <point x="279" y="725"/>
      <point x="210" y="740" type="curve"/>
      <point x="196" y="694" type="line"/>
      <point x="242" y="681"/>
      <point x="281" y="665"/>
    </contour>
    <contour>
      <point x="107" y="197" type="curve" smooth="yes"/>
      <point x="107" y="312"/>
      <point x="181" y="374"/>
      <point x="277" y="374" type="curve" smooth="yes"/>
      <point x="368" y="374"/>
      <point x="453" y="319"/>
      <point x="453" y="319" type="curve"/>
      <point x="427" y="118"/>
      <point x="350" y="46"/>
      <point x="251" y="46" type="curve" smooth="yes"/>
      <point x="162" y="46"/>
      <point x="107" y="104"/>
    </contour>
  </outline>
</glyph>
<glyph name="ntilde" format="2">
  <advance width="503"/>
  <unicode hex="00F1"/>
  <note>
ntilde
</note>
  <outline>
    <contour>
      <point x="507" y="676" type="curve"/>
      <point x="489" y="708" type="line"/>
      <point x="489" y="708"/>
      <point x="434" y="669"/>
      <point x="414" y="669" type="curve" smooth="yes"/>
      <point x="384" y="669"/>
      <point x="322" y="717"/>
      <point x="282" y="717" type="curve" smooth="yes"/>
      <point x="244" y="717"/>
      <point x="172" y="659"/>
      <point x="172" y="659" type="curve"/>
      <point x="190" y="627" type="line"/>
      <point x="190" y="627"/>
      <point x="248" y="669"/>
      <point x="271" y="669" type="curve" smooth="yes"/>
      <point x="303" y="669"/>
      <point x="363" y="619"/>
      <point x="403" y="619" type="curve" smooth="yes"/>
      <point x="439" y="619"/>
      <point x="499" y="670"/>
    </contour>
    <contour>
      <point x="129" y="500" type="line"/>
      <point x="23" y="0" type="line"/>
      <point x="82" y="0" type="line"/>
      <point x="152" y="332" type="line"/>
      <point x="152" y="332"/>
      <point x="239" y="456"/>
      <point x="324" y="456" type="curve" smooth="yes"/>
      <point x="366" y="456"/>
      <point x="394" y="428"/>
      <point x="394" y="376" type="curve" smooth="yes"/>
      <point x="394" y="341"/>
      <point x="383" y="289"/>
      <point x="375" y="255" type="curve" smooth="yes"/>
      <point x="321" y="0" type="line"/>
      <point x="380" y="0" type="line"/>
      <point x="435" y="259" type="line" smooth="yes"/>
      <point x="443" y="296"/>
      <point x="454" y="347"/>
      <point x="454" y="387" type="curve" smooth="yes"/>
      <point x="454" y="464"/>
      <point x="414" y="512"/>
      <point x="345" y="512" type="curve" smooth="yes"/>
      <point x="244" y="512"/>
      <point x="164" y="406"/>
      <point x="164" y="406" type="curve"/>
      <point x="182" y="500" type="line"/>
    </contour>
  </outline>
</glyph>
<glyph name="ograve" format="2">
  <advance width="499"/>
  <unicode hex="00F2"/>
  <note>
ograve
</note>
  <outline>
    <contour>
      <point x="215" y="686" type="line"/>
      <point x="407" y="598" type="line"/>
      <point x="429" y="640" type="line"/>
      <point x="243" y="737" type="line"/>
    </contour>
    <contour>
      <point x="40" y="154" type="curve" smooth="yes"/>
      <point x="40" y="40"/>
      <point x="95" y="-11"/>
      <point x="200" y="-11" type="curve" smooth="yes"/>
      <point x="400" y="-11"/>
      <point x="459" y="206"/>
      <point x="459" y="352" type="curve" smooth="yes"/>
      <point x="459" y="460"/>
      <point x="408" y="512"/>
      <point x="300" y="512" type="curve" smooth="yes"/>
      <point x="104" y="512"/>
      <point x="40" y="287"/>
    </contour>
    <contour>
      <point x="100" y="146" type="curve" smooth="yes"/>
      <point x="100" y="259"/>
      <point x="149" y="460"/>
      <point x="295" y="460" type="curve" smooth="yes"/>
      <point x="366" y="460"/>
      <point x="399" y="429"/>
      <point x="399" y="361" type="curve" smooth="yes"/>
      <point x="399" y="237"/>
      <point x="349" y="41"/>
      <point x="204" y="41" type="curve" smooth="yes"/>
      <point x="129" y="41"/>
      <point x="100" y="80"/>
    </contour>
  </outline>
</glyph>
<glyph name="ocircumflex" format="2">
  <advance width="499"/>
  <unicode hex="00F4"/>
  <note>
ocircumflex
</note>
  <outline>
    <contour>
      <point x="169" y="603" type="line"/>
      <point x="238" y="603" type="line"/>
      <point x="338" y="688" type="line"/>
      <point x="402" y="603" type="line"/>
      <point x="458" y="603" type="line"/>
      <point x="370" y="732" type="line"/>
      <point x="313" y="732" type="line"/>
    </contour>
    <contour>
      <point x="40" y="154" type="curve" smooth="yes"/>
      <point x="40" y="40"/>
      <point x="95" y="-11"/>
      <point x="200" y="-11" type="curve" smooth="yes"/>
      <point x="400" y="-11"/>
      <point x="459" y="206"/>
      <point x="459" y="352" type="curve" smooth="yes"/>
      <point x="459" y="460"/>
      <point x="408" y="512"/>
      <point x="300" y="512" type="curve" smooth="yes"/>
      <point x="104" y="512"/>
      <point x="40" y="287"/>
    </contour>
    <contour>
      <point x="100" y="146" type="curve" smooth="yes"/>
      <point x="100" y="259"/>
      <point x="149" y="460"/>
      <point x="295" y="460" type="curve" smooth="yes"/>
      <point x="366" y="460"/>
      <point x="399" y="429"/>
      <point x="399" y="361" type="curve" smooth="yes"/>
      <point x="399" y="237"/>
      <point x="349" y="41"/>
      <point x="204" y="41" type="curve" smooth="yes"/>
      <point x="129" y="41"/>
      <point x="100" y="80"/>
    </contour>
  </outline>
</glyph>
<glyph name="otilde" format="2">
  <advance width="499"/>
  <unicode hex="00F5"/>
  <note>
otilde
</note>
  <outline>
    <contour>
      <point x="491" y="676" type="curve"/>
      <point x="473" y="708" type="line"/>
      <point x="473" y="708"/>
      <point x="419" y="669"/>
      <point x="399" y="669" type="curve" smooth="yes"/>
      <point x="368" y="669"/>
      <point x="306" y="717"/>
      <point x="266" y="717" type="curve" smooth="yes"/>
      <point x="229" y="717"/>
      <point x="157" y="659"/>
      <point x="157" y="659" type="curve"/>
      <point x="175" y="627" type="line"/>
      <point x="175" y="627"/>
      <point x="233" y="669"/>
      <point x="256" y="669" type="curve" smooth="yes"/>
      <point x="288" y="669"/>
      <point x="347" y="619"/>
      <point x="387" y="619" type="curve" smooth="yes"/>
      <point x="424" y="619"/>
      <point x="484" y="670"/>
    </contour>
    <contour>
      <point x="40" y="154" type="curve" smooth="yes"/>
      <point x="40" y="40"/>
      <point x="95" y="-11"/>
      <point x="200" y="-11" type="curve" smooth="yes"/>
      <point x="400" y="-11"/>
      <point x="459" y="206"/>
      <point x="459" y="352" type="curve" smooth="yes"/>
      <point x="459" y="460"/>
      <point x="408" y="512"/>
      <point x="300" y="512" type="curve" smooth="yes"/>
      <point x="104" y="512"/>
      <point x="40" y="287"/>
    </contour>
    <contour>
      <point x="100" y="146" type="curve" smooth="yes"/>
      <point x="100" y="259"/>
      <point x="149" y="460"/>
      <point x="295" y="460" type="curve" smooth="yes"/>
      <point x="366" y="460"/>
      <point x="399" y="429"/>
      <point x="399" y="361" type="curve" smooth="yes"/>
      <point x="399" y="237"/>
      <point x="349" y="41"/>
      <point x="204" y="41" type="curve" smooth="yes"/>
      <point x="129" y="41"/>
      <point x="100" y="80"/>
    </contour>
  </outline>
</glyph>
<glyph name="odieresis" format="2">
  <advance width="499"/>
  <unicode hex="00F6"/>
  <note>
odieresis
</note>
  <outline>
    <contour>
      <point x="249" y="631" type="line"/>
      <point x="264" y="707" type="line"/>
      <point x="206" y="707" type="line"/>
      <point x="190" y="631" type="line"/>
    </contour>
    <contour>
      <point x="40" y="154" type="curve" smooth="yes"/>
      <point x="40" y="40"/>
      <point x="95" y="-11"/>
      <point x="200" y="-11" type="curve" smooth="yes"/>
      <point x="400" y="-11"/>
      <point x="459" y="206"/>
      <point x="459" y="352" type="curve" smooth="yes"/>
      <point x="459" y="460"/>
      <point x="408" y="512"/>
      <point x="300" y="512" type="curve" smooth="yes"/>
      <point x="104" y="512"/>
      <point x="40" y="287"/>
    </contour>
    <contour>
      <point x="100" y="146" type="curve" smooth="yes"/>
      <point x="100" y="259"/>
      <point x="149" y="460"/>
      <point x="295" y="460" type="curve" smooth="yes"/>
      <point x="366" y="460"/>
      <point x="399" y="429"/>
      <point x="399" y="361" type="curve" smooth="yes"/>
      <point x="399" y="237"/>
      <point x="349" y="41"/>
      <point x="204" y="41" type="curve" smooth="yes"/>
      <point x="129" y="41"/>
      <point x="100" y="80"/>
    </contour>
    <contour>
      <point x="400" y="707" type="line"/>
      <point x="385" y="631" type="line"/>
      <point x="444" y="631" type="line"/>
      <point x="460" y="707" type="line"/>
    </contour>
  </outline>
</glyph>
<glyph name="divide" format="2">
  <advance width="560"/>
  <unicode hex="00F7"/>
  <note>
divide
</note>
  <outline>
    <contour>
      <point x="346" y="406" type="line"/>
      <point x="365" y="498" type="line"/>
      <point x="299" y="498" type="line"/>
      <point x="280" y="406" type="line"/>
    </contour>
    <contour>
      <point x="90" y="315" type="line"/>
      <point x="79" y="260" type="line"/>
      <point x="485" y="260" type="line"/>
      <point x="497" y="315" type="line"/>
    </contour>
    <contour>
      <point x="229" y="169" type="line"/>
      <point x="210" y="76" type="line"/>
      <point x="276" y="76" type="line"/>
      <point x="295" y="169" type="line"/>
    </contour>
  </outline>
</glyph>
<glyph name="oslash" format="2">
  <advance width="499"/>
  <unicode hex="00F8"/>
  <note>
oslash
</note>
  <outline>
    <contour>
      <point x="300" y="512" type="curve" smooth="yes"/>
      <point x="104" y="512"/>
      <point x="40" y="287"/>
      <point x="40" y="154" type="curve" smooth="yes"/>
      <point x="40" y="85"/>
      <point x="60" y="39"/>
      <point x="99" y="13" type="curve"/>
      <point x="78" y="-30" type="line"/>
      <point x="124" y="-52" type="line"/>
      <point x="147" y="-6" type="line"/>
      <point x="163" y="-9"/>
      <point x="181" y="-11"/>
      <point x="200" y="-11" type="curve" smooth="yes"/>
      <point x="400" y="-11"/>
      <point x="459" y="206"/>
      <point x="459" y="352" type="curve" smooth="yes"/>
      <point x="459" y="422"/>
      <point x="438" y="468"/>
      <point x="394" y="492" type="curve"/>
      <point x="413" y="530" type="line"/>
      <point x="367" y="552" type="line"/>
      <point x="345" y="508" type="line"/>
      <point x="331" y="511"/>
      <point x="317" y="512"/>
    </contour>
    <contour>
      <point x="100" y="146" type="curve" smooth="yes"/>
      <point x="100" y="259"/>
      <point x="149" y="460"/>
      <point x="295" y="460" type="curve" smooth="yes"/>
      <point x="304" y="460"/>
      <point x="312" y="460"/>
      <point x="320" y="458" type="curve"/>
      <point x="127" y="68" type="line"/>
      <point x="108" y="85"/>
      <point x="100" y="112"/>
    </contour>
    <contour>
      <point x="172" y="44" type="curve"/>
      <point x="368" y="440" type="line"/>
      <point x="389" y="423"/>
      <point x="399" y="397"/>
      <point x="399" y="361" type="curve" smooth="yes"/>
      <point x="399" y="237"/>
      <point x="349" y="41"/>
      <point x="204" y="41" type="curve" smooth="yes"/>
      <point x="193" y="41"/>
      <point x="181" y="42"/>
    </contour>
  </outline>
</glyph>
<glyph name="udieresis" format="2">
  <advance width="499"/>
  <unicode hex="00FC"/>
  <note>
udieresis
</note>
  <outline>
    <contour>
      <point x="243" y="631" type="line"/>
      <point x="259" y="707" type="line"/>
      <point x="200" y="707" type="line"/>
      <point x="184" y="631" type="line"/>
    </contour>
    <contour>
      <point x="50" y="112" type="curve" smooth="yes"/>
      <point x="50" y="39"/>
      <point x="88" y="-11"/>
      <point x="160" y="-11" type="curve" smooth="yes"/>
      <point x="258" y="-11"/>
      <point x="336" y="93"/>
      <point x="336" y="93" type="curve"/>
      <point x="318" y="0" type="line"/>
      <point x="370" y="0" type="line"/>
      <point x="477" y="500" type="line"/>
      <point x="418" y="500" type="line"/>
      <point x="348" y="168" type="line"/>
      <point x="348" y="168"/>
      <point x="263" y="45"/>
      <point x="181" y="45" type="curve" smooth="yes"/>
      <point x="138" y="45"/>
      <point x="110" y="74"/>
      <point x="110" y="124" type="curve" smooth="yes"/>
      <point x="110" y="161"/>
      <point x="122" y="212"/>
      <point x="129" y="246" type="curve" smooth="yes"/>
      <point x="183" y="500" type="line"/>
      <point x="124" y="500" type="line"/>
      <point x="70" y="242" type="line" smooth="yes"/>
      <point x="62" y="205"/>
      <point x="50" y="155"/>
    </contour>
    <contour>
      <point x="395" y="707" type="line"/>
      <point x="379" y="631" type="line"/>
      <point x="439" y="631" type="line"/>
      <point x="454" y="707" type="line"/>
    </contour>
  </outline>
</glyph>
<glyph name="yacute" format="2">
  <advance width="456"/>
  <unicode hex="00FD"/>
  <note>
yacute
</note>
  <outline>
    <contour>
      <point x="430" y="686" type="line"/>
      <point x="411" y="737" type="line"/>
      <point x="185" y="640" type="line"/>
      <point x="201" y="598" type="line"/>
    </contour>
    <contour>
      <point x="164" y="0" type="line"/>
      <point x="44" y="-230" type="line"/>
      <point x="104" y="-230" type="line"/>
      <point x="486" y="500" type="line"/>
      <point x="425" y="500" type="line"/>
      <point x="190" y="52" type="line"/>
      <point x="168" y="52" type="line"/>
      <point x="146" y="500" type="line"/>
      <point x="87" y="500" type="line"/>
      <point x="113" y="0" type="line"/>
    </contour>
  </outline>
</glyph>
<glyph name="thorn" format="2">
  <advance width="499"/>
  <unicode hex="00FE"/>
  <note>
thorn
</note>
  <outline>
    <contour>
      <point x="163" y="399" type="curve"/>
      <point x="235" y="730" type="line"/>
      <point x="177" y="730" type="line"/>
      <point x="-27" y="-230" type="line"/>
      <point x="31" y="-230" type="line"/>
      <point x="81" y="6" type="line"/>
      <point x="97" y="3"/>
      <point x="161" y="-11"/>
      <point x="217" y="-11" type="curve" smooth="yes"/>
      <point x="359" y="-11"/>
      <point x="462" y="173"/>
      <point x="462" y="363" type="curve" smooth="yes"/>
      <point x="462" y="450"/>
      <point x="428" y="512"/>
      <point x="343" y="512" type="curve" smooth="yes"/>
      <point x="248" y="512"/>
      <point x="163" y="399"/>
    </contour>
    <contour>
      <point x="93" y="56" type="curve"/>
      <point x="149" y="320" type="line"/>
      <point x="149" y="320"/>
      <point x="236" y="456"/>
      <point x="330" y="456" type="curve" smooth="yes"/>
      <point x="377" y="456"/>
      <point x="402" y="422"/>
      <point x="402" y="363" type="curve" smooth="yes"/>
      <point x="402" y="192"/>
      <point x="315" y="41"/>
      <point x="220" y="41" type="curve" smooth="yes"/>
      <point x="166" y="41"/>
      <point x="108" y="54"/>
    </contour>
  </outline>
</glyph>
<glyph name="ydieresis" format="2">
  <advance width="456"/>
  <unicode hex="00FF"/>
  <note>
ydieresis
</note>
  <outline>
    <contour>
      <point x="224" y="631" type="line"/>
      <point x="240" y="707" type="line"/>
      <point x="181" y="707" type="line"/>
      <point x="165" y="631" type="line"/>
    </contour>
    <contour>
      <point x="164" y="0" type="line"/>
      <point x="44" y="-230" type="line"/>
      <point x="104" y="-230" type="line"/>
      <point x="486" y="500" type="line"/>
      <point x="425" y="500" type="line"/>
      <point x="190" y="52" type="line"/>
      <point x="168" y="52" type="line"/>
      <point x="146" y="500" type="line"/>
      <point x="87" y="500" type="line"/>
      <point x="113" y="0" type="line"/>
    </contour>
    <contour>
      <point x="376" y="707" type="line"/>
      <point x="360" y="631" type="line"/>
      <point x="420" y="631" type="line"/>
      <point x="435" y="707" type="line"/>
    </contour>
  </outline>
</glyph>
<glyph name="Amacron" format="2">
  <advance width="575"/>
  <unicode hex="0100"/>
  <note>
Amacron
</note>
  <outline>
    <contour>
      <point x="542" y="811" type="line"/>
      <point x="552" y="859" type="line"/>
      <point x="280" y="859" type="line"/>
      <point x="271" y="811" type="line"/>
    </contour>
    <contour>
      <point x="328" y="700" type="line"/>
      <point x="-28" y="0" type="line"/>
      <point x="35" y="0" type="line"/>
      <point x="133" y="198" type="line"/>
      <point x="420" y="198" type="line"/>
      <point x="434" y="0" type="line"/>
      <point x="493" y="0" type="line"/>
      <point x="443" y="700" type="line"/>
    </contour>
    <contour>
      <point x="417" y="253" type="line"/>
      <point x="162" y="253" type="line"/>
      <point x="358" y="642" type="line"/>
      <point x="388" y="642" type="line"/>
    </contour>
  </outline>
</glyph>
<glyph name="Aogonek" format="2">
  <advance width="575"/>
  <unicode hex="0104"/>
  <note>
Aogonek
</note>
  <outline>
    <contour>
      <point x="443" y="700" type="line"/>
      <point x="328" y="700" type="line"/>
      <point x="-28" y="0" type="line"/>
      <point x="35" y="0" type="line"/>
      <point x="133" y="198" type="line"/>
      <point x="420" y="198" type="line"/>
      <point x="434" y="0" type="line"/>
      <point x="438" y="0" type="line"/>
      <point x="370" y="-52"/>
      <point x="332" y="-93"/>
      <point x="332" y="-138" type="curve" smooth="yes"/>
      <point x="332" y="-181"/>
      <point x="360" y="-204"/>
      <point x="403" y="-204" type="curve" smooth="yes"/>
      <point x="434" y="-204"/>
      <point x="478" y="-195"/>
      <point x="478" y="-195" type="curve"/>
      <point x="482" y="-147" type="line"/>
      <point x="482" y="-147"/>
      <point x="444" y="-153"/>
      <point x="428" y="-153" type="curve" smooth="yes"/>
      <point x="406" y="-153"/>
      <point x="394" y="-139"/>
      <point x="394" y="-118" type="curve" smooth="yes"/>
      <point x="394" y="-91"/>
      <point x="422" y="-63"/>
      <point x="493" y="0" type="curve"/>
    </contour>
    <contour>
      <point x="417" y="253" type="line"/>
      <point x="162" y="253" type="line"/>
      <point x="358" y="642" type="line"/>
      <point x="388" y="642" type="line"/>
    </contour>
  </outline>
</glyph>
<glyph name="aogonek" format="2">
  <advance width="501"/>
  <unicode hex="0105"/>
  <note>
aogonek
</note>
  <outline>
    <contour>
      <point x="153" y="-11" type="curve" smooth="yes"/>
      <point x="255" y="-11"/>
      <point x="339" y="106"/>
      <point x="339" y="106" type="curve"/>
      <point x="334" y="90"/>
      <point x="323" y="17"/>
      <point x="320" y="3" type="curve"/>
      <point x="252" y="-51"/>
      <point x="212" y="-92"/>
      <point x="212" y="-138" type="curve" smooth="yes"/>
      <point x="212" y="-181"/>
      <point x="240" y="-204"/>
      <point x="283" y="-204" type="curve" smooth="yes"/>
      <point x="315" y="-204"/>
      <point x="358" y="-195"/>
      <point x="358" y="-195" type="curve"/>
      <point x="362" y="-147" type="line"/>
      <point x="362" y="-147"/>
      <point x="324" y="-153"/>
      <point x="309" y="-153" type="curve" smooth="yes"/>
      <point x="286" y="-153"/>
      <point x="274" y="-139"/>
      <point x="274" y="-118" type="curve" smooth="yes"/>
      <point x="274" y="-91"/>
      <point x="302" y="-62"/>
      <point x="372" y="0" type="curve"/>
      <point x="377" y="0" type="line"/>
      <point x="377" y="0"/>
      <point x="391" y="98"/>
      <point x="405" y="161" type="curve" smooth="yes"/>
      <point x="479" y="489" type="line"/>
      <point x="479" y="489"/>
      <point x="348" y="512"/>
      <point x="288" y="512" type="curve" smooth="yes"/>
      <point x="122" y="512"/>
      <point x="37" y="293"/>
      <point x="37" y="139" type="curve" smooth="yes"/>
      <point x="37" y="41"/>
      <point x="79" y="-11"/>
    </contour>
    <contour>
      <point x="97" y="139" type="curve" smooth="yes"/>
      <point x="97" y="265"/>
      <point x="163" y="460"/>
      <point x="288" y="460" type="curve" smooth="yes"/>
      <point x="341" y="460"/>
      <point x="411" y="446"/>
      <point x="411" y="446" type="curve"/>
      <point x="351" y="181" type="line"/>
      <point x="351" y="181"/>
      <point x="261" y="45"/>
      <point x="172" y="45" type="curve" smooth="yes"/>
      <point x="126" y="45"/>
      <point x="97" y="74"/>
    </contour>
  </outline>
</glyph>
<glyph name="cacute" format="2">
  <advance width="414"/>
  <unicode hex="0107"/>
  <note>
cacute
</note>
  <outline>
    <contour>
      <point x="468" y="686" type="line"/>
      <point x="449" y="737" type="line"/>
      <point x="223" y="640" type="line"/>
      <point x="240" y="598" type="line"/>
    </contour>
    <contour>
      <point x="39" y="151" type="curve" smooth="yes"/>
      <point x="39" y="32"/>
      <point x="89" y="-11"/>
      <point x="182" y="-11" type="curve" smooth="yes"/>
      <point x="250" y="-11"/>
      <point x="322" y="5"/>
      <point x="322" y="5" type="curve"/>
      <point x="329" y="56" type="line"/>
      <point x="329" y="56"/>
      <point x="254" y="42"/>
      <point x="194" y="42" type="curve" smooth="yes"/>
      <point x="130" y="42"/>
      <point x="99" y="64"/>
      <point x="99" y="152" type="curve" smooth="yes"/>
      <point x="99" y="250"/>
      <point x="143" y="459"/>
      <point x="304" y="459" type="curve" smooth="yes"/>
      <point x="348" y="459"/>
      <point x="412" y="449"/>
      <point x="412" y="449" type="curve"/>
      <point x="427" y="498" type="line"/>
      <point x="427" y="498"/>
      <point x="351" y="512"/>
      <point x="303" y="512" type="curve" smooth="yes"/>
      <point x="105" y="512"/>
      <point x="39" y="278"/>
    </contour>
  </outline>
</glyph>
<glyph name="ccircumflex" format="2">
  <advance width="414"/>
  <unicode hex="0109"/>
  <note>
ccircumflex
</note>
  <outline>
    <contour>
      <point x="183" y="603" type="line"/>
      <point x="251" y="603" type="line"/>
      <point x="352" y="688" type="line"/>
      <point x="415" y="603" type="line"/>
      <point x="472" y="603" type="line"/>
      <point x="383" y="732" type="line"/>
      <point x="326" y="732" type="line"/>
    </contour>
    <contour>
      <point x="39" y="151" type="curve" smooth="yes"/>
      <point x="39" y="32"/>
      <point x="89" y="-11"/>
      <point x="182" y="-11" type="curve" smooth="yes"/>
      <point x="250" y="-11"/>
      <point x="322" y="5"/>
      <point x="322" y="5" type="curve"/>
      <point x="329" y="56" type="line"/>
      <point x="329" y="56"/>
      <point x="254" y="42"/>
      <point x="194" y="42" type="curve" smooth="yes"/>
      <point x="130" y="42"/>
      <point x="99" y="64"/>
      <point x="99" y="152" type="curve" smooth="yes"/>
      <point x="99" y="250"/>
      <point x="143" y="459"/>
      <point x="304" y="459" type="curve" smooth="yes"/>
      <point x="348" y="459"/>
      <point x="412" y="449"/>
      <point x="412" y="449" type="curve"/>
      <point x="427" y="498" type="line"/>
      <point x="427" y="498"/>
      <point x="351" y="512"/>
      <point x="303" y="512" type="curve" smooth="yes"/>
      <point x="105" y="512"/>
      <point x="39" y="278"/>
    </contour>
  </outline>
</glyph>
<glyph name="cdotaccent" format="2">
  <advance width="414"/>
  <unicode hex="010B"/>
  <note>
cdotaccent
</note>
  <outline>
    <contour>
      <point x="366" y="631" type="line"/>
      <point x="383" y="713" type="line"/>
      <point x="323" y="713" type="line"/>
      <point x="306" y="631" type="line"/>
    </contour>
    <contour>
      <point x="39" y="151" type="curve" smooth="yes"/>
      <point x="39" y="32"/>
      <point x="89" y="-11"/>
      <point x="182" y="-11" type="curve" smooth="yes"/>
      <point x="250" y="-11"/>
      <point x="322" y="5"/>
      <point x="322" y="5" type="curve"/>
      <point x="329" y="56" type="line"/>
      <point x="329" y="56"/>
      <point x="254" y="42"/>
      <point x="194" y="42" type="curve" smooth="yes"/>
      <point x="130" y="42"/>
      <point x="99" y="64"/>
      <point x="99" y="152" type="curve" smooth="yes"/>
      <point x="99" y="250"/>
      <point x="143" y="459"/>
      <point x="304" y="459" type="curve" smooth="yes"/>
      <point x="348" y="459"/>
      <point x="412" y="449"/>
      <point x="412" y="449" type="curve"/>
      <point x="427" y="498" type="line"/>
      <point x="427" y="498"/>
      <point x="351" y="512"/>
      <point x="303" y="512" type="curve" smooth="yes"/>
      <point x="105" y="512"/>
      <point x="39" y="278"/>
    </contour>
  </outline>
</glyph>
<glyph name="Ccaron" format="2">
  <advance width="520"/>
  <unicode hex="010C"/>
  <note>
Ccaron
</note>
  <outline>
    <contour>
      <point x="608" y="912" type="line"/>
      <point x="540" y="912" type="line"/>
      <point x="440" y="827" type="line"/>
      <point x="376" y="912" type="line"/>
      <point x="319" y="912" type="line"/>
      <point x="407" y="783" type="line"/>
      <point x="465" y="783" type="line"/>
    </contour>
    <contour>
      <point x="60" y="191" type="curve" smooth="yes"/>
      <point x="60" y="47"/>
      <point x="116" y="-10"/>
      <point x="263" y="-10" type="curve" smooth="yes"/>
      <point x="326" y="-10"/>
      <point x="379" y="1"/>
      <point x="430" y="11" type="curve"/>
      <point x="438" y="65" type="line"/>
      <point x="387" y="55"/>
      <point x="331" y="45"/>
      <point x="275" y="45" type="curve" smooth="yes"/>
      <point x="161" y="45"/>
      <point x="124" y="82"/>
      <point x="124" y="191" type="curve" smooth="yes"/>
      <point x="124" y="348"/>
      <point x="198" y="655"/>
      <point x="411" y="655" type="curve" smooth="yes"/>
      <point x="457" y="655"/>
      <point x="522" y="642"/>
      <point x="564" y="632" type="curve"/>
      <point x="578" y="685" type="line"/>
      <point x="536" y="696"/>
      <point x="475" y="710"/>
      <point x="417" y="710" type="curve" smooth="yes"/>
      <point x="141" y="710"/>
      <point x="60" y="379"/>
    </contour>
  </outline>
</glyph>
<glyph name="Dcaron" format="2">
  <advance width="624"/>
  <unicode hex="010E"/>
  <note>
Dcaron
</note>
  <outline>
    <contour>
      <point x="570" y="912" type="line"/>
      <point x="503" y="912" type="line"/>
      <point x="402" y="827" type="line"/>
      <point x="339" y="912" type="line"/>
      <point x="281" y="912" type="line"/>
      <point x="370" y="783" type="line"/>
      <point x="427" y="783" type="line"/>
    </contour>
    <contour>
      <point x="184" y="700" type="line"/>
      <point x="35" y="0" type="line"/>
      <point x="249" y="0" type="line" smooth="yes"/>
      <point x="497" y="0"/>
      <point x="604" y="270"/>
      <point x="604" y="491" type="curve" smooth="yes"/>
      <point x="604" y="616"/>
      <point x="560" y="700"/>
      <point x="397" y="700" type="curve" smooth="yes"/>
    </contour>
    <contour>
      <point x="256" y="55" type="curve" smooth="yes"/>
      <point x="107" y="55" type="line"/>
      <point x="233" y="645" type="line"/>
      <point x="397" y="645" type="line" smooth="yes"/>
      <point x="513" y="645"/>
      <point x="540" y="582"/>
      <point x="540" y="494" type="curve" smooth="yes"/>
      <point x="540" y="295"/>
      <point x="438" y="55"/>
    </contour>
  </outline>
</glyph>
<glyph name="dcaron" format="2">
  <advance width="519"/>
  <unicode hex="010F"/>
  <note>
dcaron
</note>
  <outline>
    <contour>
      <point x="339" y="103" type="curve"/>
      <point x="318" y="0" type="line"/>
      <point x="372" y="0" type="line"/>
      <point x="527" y="730" type="line"/>
      <point x="469" y="730" type="line"/>
      <point x="419" y="495" type="line"/>
      <point x="417" y="495"/>
      <point x="342" y="512"/>
      <point x="279" y="512" type="curve" smooth="yes"/>
      <point x="122" y="512"/>
      <point x="38" y="301"/>
      <point x="38" y="140" type="curve" smooth="yes"/>
      <point x="38" y="38"/>
      <point x="83" y="-11"/>
      <point x="155" y="-11" type="curve" smooth="yes"/>
      <point x="254" y="-11"/>
      <point x="339" y="103"/>
    </contour>
    <contour>
      <point x="98" y="138" type="curve" smooth="yes"/>
      <point x="98" y="265"/>
      <point x="157" y="460"/>
      <point x="280" y="460" type="curve" smooth="yes"/>
      <point x="337" y="460"/>
      <point x="407" y="445"/>
      <point x="407" y="445" type="curve"/>
      <point x="352" y="181" type="line"/>
      <point x="352" y="181"/>
      <point x="262" y="45"/>
      <point x="173" y="45" type="curve" smooth="yes"/>
      <point x="126" y="45"/>
      <point x="98" y="75"/>
    </contour>
    <contour>
      <point x="563" y="603" type="curve"/>
      <point x="590" y="589" type="line"/>
      <point x="590" y="589"/>
      <point x="643" y="630"/>
      <point x="650" y="667" type="curve" smooth="yes"/>
      <point x="656" y="692"/>
      <point x="663" y="730"/>
      <point x="663" y="730" type="curve"/>
      <point x="609" y="730" type="line"/>
      <point x="609" y="730"/>
      <point x="602" y="687"/>
      <point x="599" y="672" type="curve" smooth="yes"/>
      <point x="596" y="654"/>
      <point x="563" y="603"/>
    </contour>
  </outline>
</glyph>
<glyph name="dcroat" format="2">
  <advance width="500"/>
  <unicode hex="0111"/>
  <note>
dcroat
</note>
  <outline>
    <contour>
      <point x="339" y="103" type="curve"/>
      <point x="318" y="0" type="line"/>
      <point x="372" y="0" type="line"/>
      <point x="497" y="588" type="line"/>
      <point x="589" y="588" type="line"/>
      <point x="600" y="640" type="line"/>
      <point x="507" y="640" type="line"/>
      <point x="527" y="730" type="line"/>
      <point x="469" y="730" type="line"/>
      <point x="450" y="640" type="line"/>
      <point x="262" y="640" type="line"/>
      <point x="251" y="588" type="line"/>
      <point x="439" y="588" type="line"/>
      <point x="419" y="495" type="line"/>
      <point x="417" y="495"/>
      <point x="342" y="512"/>
      <point x="279" y="512" type="curve" smooth="yes"/>
      <point x="122" y="512"/>
      <point x="38" y="301"/>
      <point x="38" y="140" type="curve" smooth="yes"/>
      <point x="38" y="38"/>
      <point x="83" y="-11"/>
      <point x="155" y="-11" type="curve" smooth="yes"/>
      <point x="254" y="-11"/>
      <point x="339" y="103"/>
    </contour>
    <contour>
      <point x="98" y="138" type="curve" smooth="yes"/>
      <point x="98" y="265"/>
      <point x="157" y="460"/>
      <point x="280" y="460" type="curve" smooth="yes"/>
      <point x="337" y="460"/>
      <point x="407" y="445"/>
      <point x="407" y="445" type="curve"/>
      <point x="352" y="181" type="line"/>
      <point x="352" y="181"/>
      <point x="262" y="45"/>
      <point x="173" y="45" type="curve" smooth="yes"/>
      <point x="126" y="45"/>
      <point x="98" y="75"/>
    </contour>
  </outline>
</glyph>
<glyph name="Emacron" format="2">
  <advance width="524"/>
  <unicode hex="0112"/>
  <note>
Emacron
</note>
  <outline>
    <contour>
      <point x="535" y="811" type="line"/>
      <point x="544" y="859" type="line"/>
      <point x="273" y="859" type="line"/>
      <point x="263" y="811" type="line"/>
    </contour>
    <contour>
      <point x="184" y="700" type="line"/>
      <point x="35" y="0" type="line"/>
      <point x="424" y="0" type="line"/>
      <point x="435" y="55" type="line"/>
      <point x="107" y="55" type="line"/>
      <point x="166" y="330" type="line"/>
      <point x="436" y="330" type="line"/>
      <point x="447" y="384" type="line"/>
      <point x="177" y="384" type="line"/>
      <point x="233" y="645" type="line"/>
      <point x="562" y="645" type="line"/>
      <point x="574" y="700" type="line"/>
    </contour>
  </outline>
</glyph>
<glyph name="emacron" format="2">
  <advance width="465"/>
  <unicode hex="0113"/>
  <note>
emacron
</note>
  <outline>
    <contour>
      <point x="455" y="631" type="line"/>
      <point x="465" y="679" type="line"/>
      <point x="193" y="679" type="line"/>
      <point x="184" y="631" type="line"/>
    </contour>
    <contour>
      <point x="40" y="153" type="curve" smooth="yes"/>
      <point x="40" y="37"/>
      <point x="94" y="-11"/>
      <point x="191" y="-11" type="curve" smooth="yes"/>
      <point x="277" y="-11"/>
      <point x="359" y="14"/>
      <point x="359" y="14" type="curve"/>
      <point x="366" y="68" type="line"/>
      <point x="366" y="68"/>
      <point x="279" y="42"/>
      <point x="205" y="42" type="curve" smooth="yes"/>
      <point x="132" y="42"/>
      <point x="100" y="71"/>
      <point x="100" y="146" type="curve" smooth="yes"/>
      <point x="100" y="172"/>
      <point x="101" y="211"/>
      <point x="108" y="240" type="curve"/>
      <point x="204" y="241" type="line" smooth="yes"/>
      <point x="363" y="242"/>
      <point x="449" y="276"/>
      <point x="449" y="391" type="curve" smooth="yes"/>
      <point x="449" y="477"/>
      <point x="391" y="512"/>
      <point x="308" y="512" type="curve" smooth="yes"/>
      <point x="118" y="512"/>
      <point x="40" y="317"/>
    </contour>
    <contour>
      <point x="198" y="291" type="curve" smooth="yes"/>
      <point x="119" y="289" type="line"/>
      <point x="148" y="394"/>
      <point x="206" y="460"/>
      <point x="302" y="460" type="curve" smooth="yes"/>
      <point x="360" y="460"/>
      <point x="389" y="436"/>
      <point x="389" y="388" type="curve" smooth="yes"/>
      <point x="389" y="307"/>
      <point x="320" y="293"/>
    </contour>
  </outline>
</glyph>
<glyph name="Ebreve" format="2">
  <advance width="524"/>
  <unicode hex="0114"/>
  <note>
Ebreve
</note>
  <outline>
    <contour>
      <point x="325" y="911" type="curve"/>
      <point x="277" y="911" type="line"/>
      <point x="266" y="838"/>
      <point x="310" y="778"/>
      <point x="396" y="778" type="curve" smooth="yes"/>
      <point x="486" y="778"/>
      <point x="542" y="838"/>
      <point x="562" y="911" type="curve"/>
      <point x="508" y="911" type="line"/>
      <point x="494" y="862"/>
      <point x="454" y="825"/>
      <point x="398" y="825" type="curve" smooth="yes"/>
      <point x="342" y="825"/>
      <point x="317" y="862"/>
    </contour>
    <contour>
      <point x="184" y="700" type="line"/>
      <point x="35" y="0" type="line"/>
      <point x="424" y="0" type="line"/>
      <point x="435" y="55" type="line"/>
      <point x="107" y="55" type="line"/>
      <point x="166" y="330" type="line"/>
      <point x="436" y="330" type="line"/>
      <point x="447" y="384" type="line"/>
      <point x="177" y="384" type="line"/>
      <point x="233" y="645" type="line"/>
      <point x="562" y="645" type="line"/>
      <point x="574" y="700" type="line"/>
    </contour>
  </outline>
</glyph>
<glyph name="ebreve" format="2">
  <advance width="465"/>
  <unicode hex="0115"/>
  <note>
ebreve
</note>
  <outline>
    <contour>
      <point x="247" y="731" type="curve"/>
      <point x="197" y="731" type="line"/>
      <point x="189" y="658"/>
      <point x="231" y="598"/>
      <point x="317" y="598" type="curve" smooth="yes"/>
      <point x="403" y="598"/>
      <point x="462" y="654"/>
      <point x="484" y="731" type="curve"/>
      <point x="429" y="731" type="line"/>
      <point x="415" y="682"/>
      <point x="375" y="645"/>
      <point x="319" y="645" type="curve" smooth="yes"/>
      <point x="263" y="645"/>
      <point x="239" y="682"/>
    </contour>
    <contour>
      <point x="40" y="153" type="curve" smooth="yes"/>
      <point x="40" y="37"/>
      <point x="94" y="-11"/>
      <point x="191" y="-11" type="curve" smooth="yes"/>
      <point x="277" y="-11"/>
      <point x="359" y="14"/>
      <point x="359" y="14" type="curve"/>
      <point x="366" y="68" type="line"/>
      <point x="366" y="68"/>
      <point x="279" y="42"/>
      <point x="205" y="42" type="curve" smooth="yes"/>
      <point x="132" y="42"/>
      <point x="100" y="71"/>
      <point x="100" y="146" type="curve" smooth="yes"/>
      <point x="100" y="172"/>
      <point x="101" y="211"/>
      <point x="108" y="240" type="curve"/>
      <point x="204" y="241" type="line" smooth="yes"/>
      <point x="363" y="242"/>
      <point x="449" y="276"/>
      <point x="449" y="391" type="curve" smooth="yes"/>
      <point x="449" y="477"/>
      <point x="391" y="512"/>
      <point x="308" y="512" type="curve" smooth="yes"/>
      <point x="118" y="512"/>
      <point x="40" y="317"/>
    </contour>
    <contour>
      <point x="198" y="291" type="curve" smooth="yes"/>
      <point x="119" y="289" type="line"/>
      <point x="148" y="394"/>
      <point x="206" y="460"/>
      <point x="302" y="460" type="curve" smooth="yes"/>
      <point x="360" y="460"/>
      <point x="389" y="436"/>
      <point x="389" y="388" type="curve" smooth="yes"/>
      <point x="389" y="307"/>
      <point x="320" y="293"/>
    </contour>
  </outline>
</glyph>
<glyph name="Edotaccent" format="2">
  <advance width="524"/>
  <unicode hex="0116"/>
  <note>
Edotaccent
</note>
  <outline>
    <contour>
      <point x="429" y="811" type="line"/>
      <point x="446" y="893" type="line"/>
      <point x="385" y="893" type="line"/>
      <point x="368" y="811" type="line"/>
    </contour>
    <contour>
      <point x="184" y="700" type="line"/>
      <point x="35" y="0" type="line"/>
      <point x="424" y="0" type="line"/>
      <point x="435" y="55" type="line"/>
      <point x="107" y="55" type="line"/>
      <point x="166" y="330" type="line"/>
      <point x="436" y="330" type="line"/>
      <point x="447" y="384" type="line"/>
      <point x="177" y="384" type="line"/>
      <point x="233" y="645" type="line"/>
      <point x="562" y="645" type="line"/>
      <point x="574" y="700" type="line"/>
    </contour>
  </outline>
</glyph>
<glyph name="Eogonek" format="2">
  <advance width="524"/>
  <unicode hex="0118"/>
  <note>
Eogonek
</note>
  <outline>
    <contour>
      <point x="396" y="0" type="curve"/>
      <point x="424" y="0" type="line"/>
      <point x="435" y="55" type="line"/>
      <point x="107" y="55" type="line"/>
      <point x="166" y="330" type="line"/>
      <point x="436" y="330" type="line"/>
      <point x="447" y="384" type="line"/>
      <point x="177" y="384" type="line"/>
      <point x="233" y="645" type="line"/>
      <point x="562" y="645" type="line"/>
      <point x="574" y="700" type="line"/>
      <point x="184" y="700" type="line"/>
      <point x="35" y="0" type="line"/>
      <point x="340" y="0" type="line"/>
      <point x="273" y="-53"/>
      <point x="236" y="-93"/>
      <point x="236" y="-138" type="curve" smooth="yes"/>
      <point x="236" y="-181"/>
      <point x="264" y="-204"/>
      <point x="306" y="-204" type="curve" smooth="yes"/>
      <point x="338" y="-204"/>
      <point x="381" y="-195"/>
      <point x="381" y="-195" type="curve"/>
      <point x="386" y="-147" type="line"/>
      <point x="386" y="-147"/>
      <point x="348" y="-153"/>
      <point x="332" y="-153" type="curve" smooth="yes"/>
      <point x="310" y="-153"/>
      <point x="297" y="-139"/>
      <point x="297" y="-118" type="curve" smooth="yes"/>
      <point x="297" y="-91"/>
      <point x="326" y="-63"/>
    </contour>
  </outline>
</glyph>
<glyph name="eogonek" format="2">
  <advance width="465"/>
  <unicode hex="0119"/>
  <note>
eogonek
</note>
  <outline>
    <contour>
      <point x="205" y="42" type="curve" smooth="yes"/>
      <point x="132" y="42"/>
      <point x="100" y="71"/>
      <point x="100" y="146" type="curve" smooth="yes"/>
      <point x="100" y="172"/>
      <point x="101" y="211"/>
      <point x="108" y="240" type="curve"/>
      <point x="204" y="241" type="line" smooth="yes"/>
      <point x="363" y="242"/>
      <point x="449" y="276"/>
      <point x="449" y="391" type="curve" smooth="yes"/>
      <point x="449" y="477"/>
      <point x="391" y="512"/>
      <point x="308" y="512" type="curve" smooth="yes"/>
      <point x="118" y="512"/>
      <point x="40" y="317"/>
      <point x="40" y="153" type="curve" smooth="yes"/>
      <point x="40" y="37"/>
      <point x="94" y="-11"/>
      <point x="191" y="-11" type="curve" smooth="yes"/>
      <point x="204" y="-11"/>
      <point x="216" y="-11"/>
      <point x="230" y="-10" type="curve"/>
      <point x="169" y="-54"/>
      <point x="136" y="-96"/>
      <point x="136" y="-138" type="curve" smooth="yes"/>
      <point x="136" y="-181"/>
      <point x="164" y="-204"/>
      <point x="207" y="-204" type="curve" smooth="yes"/>
      <point x="239" y="-204"/>
      <point x="282" y="-195"/>
      <point x="282" y="-195" type="curve"/>
      <point x="287" y="-147" type="line"/>
      <point x="287" y="-147"/>
      <point x="249" y="-153"/>
      <point x="233" y="-153" type="curve" smooth="yes"/>
      <point x="211" y="-153"/>
      <point x="198" y="-139"/>
      <point x="198" y="-118" type="curve" smooth="yes"/>
      <point x="198" y="-91"/>
      <point x="223" y="-54"/>
      <point x="278" y="-19" type="curve" smooth="yes"/>
      <point x="314" y="4"/>
      <point x="359" y="14"/>
      <point x="359" y="14" type="curve"/>
      <point x="366" y="68" type="line"/>
      <point x="366" y="68"/>
      <point x="279" y="42"/>
    </contour>
    <contour>
      <point x="198" y="291" type="curve" smooth="yes"/>
      <point x="119" y="289" type="line"/>
      <point x="148" y="394"/>
      <point x="206" y="460"/>
      <point x="302" y="460" type="curve" smooth="yes"/>
      <point x="360" y="460"/>
      <point x="389" y="436"/>
      <point x="389" y="388" type="curve" smooth="yes"/>
      <point x="389" y="307"/>
      <point x="320" y="293"/>
    </contour>
  </outline>
</glyph>
<glyph name="Ecaron" format="2">
  <advance width="524"/>
  <unicode hex="011A"/>
  <note>
Ecaron
</note>
  <outline>
    <contour>
      <point x="565" y="912" type="line"/>
      <point x="497" y="912" type="line"/>
      <point x="396" y="827" type="line"/>
      <point x="333" y="912" type="line"/>
      <point x="276" y="912" type="line"/>
      <point x="364" y="783" type="line"/>
      <point x="421" y="783" type="line"/>
    </contour>
    <contour>
      <point x="184" y="700" type="line"/>
      <point x="35" y="0" type="line"/>
      <point x="424" y="0" type="line"/>
      <point x="435" y="55" type="line"/>
      <point x="107" y="55" type="line"/>
      <point x="166" y="330" type="line"/>
      <point x="436" y="330" type="line"/>
      <point x="447" y="384" type="line"/>
      <point x="177" y="384" type="line"/>
      <point x="233" y="645" type="line"/>
      <point x="562" y="645" type="line"/>
      <point x="574" y="700" type="line"/>
    </contour>
  </outline>
</glyph>
<glyph name="Gcircumflex" format="2">
  <advance width="595"/>
  <unicode hex="011C"/>
  <note>
Gcircumflex
</note>
  <outline>
    <contour>
      <point x="303" y="783" type="line"/>
      <point x="370" y="783" type="line"/>
      <point x="471" y="869" type="line"/>
      <point x="534" y="783" type="line"/>
      <point x="592" y="783" type="line"/>
      <point x="503" y="912" type="line"/>
      <point x="446" y="912" type="line"/>
    </contour>
    <contour>
      <point x="61" y="182" type="curve" smooth="yes"/>
      <point x="61" y="58"/>
      <point x="112" y="-10"/>
      <point x="261" y="-10" type="curve" smooth="yes"/>
      <point x="342" y="-10"/>
      <point x="442" y="7"/>
      <point x="478" y="15" type="curve"/>
      <point x="550" y="351" type="line"/>
      <point x="364" y="351" type="line"/>
      <point x="352" y="297" type="line"/>
      <point x="479" y="297" type="line"/>
      <point x="428" y="62" type="line"/>
      <point x="397" y="54"/>
      <point x="335" y="45"/>
      <point x="275" y="45" type="curve" smooth="yes"/>
      <point x="161" y="45"/>
      <point x="124" y="86"/>
      <point x="124" y="182" type="curve" smooth="yes"/>
      <point x="124" y="348"/>
      <point x="201" y="655"/>
      <point x="400" y="655" type="curve" smooth="yes"/>
      <point x="483" y="655"/>
      <point x="603" y="628"/>
      <point x="603" y="628" type="curve"/>
      <point x="618" y="681" type="line"/>
      <point x="618" y="681"/>
      <point x="505" y="710"/>
      <point x="407" y="710" type="curve" smooth="yes"/>
      <point x="139" y="710"/>
      <point x="61" y="372"/>
    </contour>
  </outline>
</glyph>
<glyph name="Gbreve" format="2">
  <advance width="595"/>
  <unicode hex="011E"/>
  <note>
Gbreve
</note>
  <outline>
    <contour>
      <point x="382" y="911" type="curve"/>
      <point x="334" y="911" type="line"/>
      <point x="323" y="838"/>
      <point x="367" y="778"/>
      <point x="452" y="778" type="curve" smooth="yes"/>
      <point x="542" y="778"/>
      <point x="599" y="838"/>
      <point x="619" y="911" type="curve"/>
      <point x="564" y="911" type="line"/>
      <point x="550" y="862"/>
      <point x="511" y="825"/>
      <point x="455" y="825" type="curve" smooth="yes"/>
      <point x="399" y="825"/>
      <point x="374" y="862"/>
    </contour>
    <contour>
      <point x="61" y="182" type="curve" smooth="yes"/>
      <point x="61" y="58"/>
      <point x="112" y="-10"/>
      <point x="261" y="-10" type="curve" smooth="yes"/>
      <point x="342" y="-10"/>
      <point x="442" y="7"/>
      <point x="478" y="15" type="curve"/>
      <point x="550" y="351" type="line"/>
      <point x="364" y="351" type="line"/>
      <point x="352" y="297" type="line"/>
      <point x="479" y="297" type="line"/>
      <point x="428" y="62" type="line"/>
      <point x="397" y="54"/>
      <point x="335" y="45"/>
      <point x="275" y="45" type="curve" smooth="yes"/>
      <point x="161" y="45"/>
      <point x="124" y="86"/>
      <point x="124" y="182" type="curve" smooth="yes"/>
      <point x="124" y="348"/>
      <point x="201" y="655"/>
      <point x="400" y="655" type="curve" smooth="yes"/>
      <point x="483" y="655"/>
      <point x="603" y="628"/>
      <point x="603" y="628" type="curve"/>
      <point x="618" y="681" type="line"/>
      <point x="618" y="681"/>
      <point x="505" y="710"/>
      <point x="407" y="710" type="curve" smooth="yes"/>
      <point x="139" y="710"/>
      <point x="61" y="372"/>
    </contour>
  </outline>
</glyph>
